<svg xmlns="http://www.w3.org/2000/svg" viewBox="0 0 15.81 17"><path d="M1.49,16.51l-.4-.89L1,15.24l-.45.49-.45.49,0-.94a14.58,14.58,0,0,1,.27-3.7A8.11,8.11,0,0,1,4.48,6.36l.47-.22L4.84,5.8A3.94,3.94,0,0,1,4.68,5l0-.47-.47,0A1.4,1.4,0,0,1,2.83,3.7c-.13-.27-.13-.31-.09-1,0-.94.11-1.14.4-1.45S3.75.76,4.64.8A2.47,2.47,0,0,1,5.71,1c.18.09.33.18.36.18A4.24,4.24,0,0,0,6.53.6L7,0l.27.16L7.65.4l.16.09L7.67.83a4.05,4.05,0,0,0-.18.65l0,.31.38,0A3.09,3.09,0,0,1,10.59,4a3.69,3.69,0,0,1,0,1.56c-.11.36-.11.38,0,.38a8.49,8.49,0,0,1,1.63.78A9,9,0,0,1,14.52,9a7.25,7.25,0,0,1,1.25,4.91,8.4,8.4,0,0,1-.65,2.74L15,17H13.87l.27-.54a7.66,7.66,0,0,0,.62-2.1,10.88,10.88,0,0,0,0-2.07l0-.16-.29.31a3,3,0,0,1-3.17.62,9.11,9.11,0,0,0-2.83-.38,6,6,0,0,0-1.63.13,8.64,8.64,0,0,0-3.48,1.63c-.47.33-.85.6-.87.6a2.19,2.19,0,0,1,.13-.51c.09-.29.25-.76.33-1.07l.18-.56-.2.2c-.11.11-.42.42-.69.71l-.47.51.11.42a6.18,6.18,0,0,0,.78,1.76A4.54,4.54,0,0,1,2.9,17a2.75,2.75,0,0,1-.58,0H1.74l-.25-.47Zm2-5.4C4.53,10,5.4,9.06,5.42,9.06a4.75,4.75,0,0,1-.2.74c-.74,2.32-.89,2.77-.87,2.79l.56-.2a9.71,9.71,0,0,1,6.45-.31c1,.27,1.45.27,2,0a1.12,1.12,0,0,0,.54-.47A1.69,1.69,0,0,0,14,10.2a6.57,6.57,0,0,0-3.23-3.06C10,6.83,10,6.83,9.81,7l-.13.13.58.71a7.92,7.92,0,0,1,.69.91,1.2,1.2,0,0,1,0,1,1.11,1.11,0,0,1-1.14.56c-.18,0-.25,0-.42.11a1,1,0,0,1-1.47-.27,1.39,1.39,0,0,1-.47-1,1.49,1.49,0,0,0-.11-.54,1.07,1.07,0,0,1-.09-.49l0-.31L7,7.7a3.84,3.84,0,0,1-1.14-.54A1.23,1.23,0,0,0,5.57,7a4.55,4.55,0,0,0-.65.29,7,7,0,0,0-3.79,5.53c0,.22,0,.51-.07.62l0,.2.25-.25c.11-.11,1.09-1.14,2.16-2.28ZM9.23,9.46a2,2,0,0,1,.42-.29s.09.07.16.16a.22.22,0,0,0,.4,0c.07-.11.07-.13-1.25-1.74-.78-1-.94-1.12-1-1.12-.27,0-.2.22.22.74l.4.49-.22.18c-.25.22-.27.27-.11.4s.13.09.36-.07l.25-.16L9,8.21a.37.37,0,0,1,.13.2s-.18.2-.38.38a1.18,1.18,0,0,0-.36.38,1.38,1.38,0,0,0,.31.49c.07.13.18.09.56-.2ZM6.94,6.29a1.12,1.12,0,0,1,1-.71A1.37,1.37,0,0,1,8.81,6L9,6.31l.2-.25a1.87,1.87,0,0,0,.18-2.25,2.27,2.27,0,0,0-1.83-1,1,1,0,0,1-.83-.33l-.18-.18-.09.13a9.85,9.85,0,0,0-.67,1.47,2.78,2.78,0,0,0,.11,1.72c.2.38.74.89.89.83s.07-.07.11-.18Zm-2-3c0-.11.16-.4.27-.62a2,2,0,0,0,.2-.51c0-.2-.22-.29-.83-.33s-.58,0-.69.09a.47.47,0,0,0-.13.36c0,.13,0,.38,0,.58,0,.47,0,.56.49.62C4.91,3.48,4.88,3.48,4.95,3.26Zm-.69-.54c0-.38,0-.42.36-.42h.29v.62H4.28v-.2Zm1.41,13a.52.52,0,0,1-.18-.45.6.6,0,0,1,.65-.67.65.65,0,1,1,0,1.29.52.52,0,0,1-.45-.18ZM10,15.8a.65.65,0,0,1,.4-1.18.62.62,0,0,1,.65.67c0,.25,0,.31-.18.45a.54.54,0,0,1-.45.18A.69.69,0,0,1,10,15.8Z" style="fill:#fff"/></svg>