<svg xmlns="http://www.w3.org/2000/svg" viewBox="0 0 1125.02 1125.02"><title>dide</title><path d="M1125,965.57A159.45,159.45,0,0,1,965.57,1125H159.45A159.45,159.45,0,0,1,0,965.57V159.45A159.45,159.45,0,0,1,159.45,0H965.57A159.45,159.45,0,0,1,1125,159.45V965.57Z" style="fill:#7b98b7"/><path d="M688.91,133.3a70.48,70.48,0,0,0-70.5,70.5V405.37a256.41,256.41,0,0,0-136.35-39.05c-142.35,0-257.74,115.41-257.74,257.76S339.71,881.82,482.06,881.82a256.48,256.48,0,0,0,143.38-43.55,70.47,70.47,0,0,0,134-30.55V203.8A70.49,70.49,0,0,0,688.91,133.3Zm-206.84,629A138.21,138.21,0,1,1,620.28,624.07,138.21,138.21,0,0,1,482.07,762.28Z" style="fill:#fff"/><path d="M759.42,203.8V807.73a70.46,70.46,0,0,1-134,30.54,257.78,257.78,0,0,1-326.09-32.39L618.47,1125h347.1A159.45,159.45,0,0,0,1125,965.57V540.18L740,155.26A70.24,70.24,0,0,1,759.42,203.8Z" style="fill:#143f70"/><path d="M343.86,624.07A138.21,138.21,0,1,0,482.07,485.86,138.21,138.21,0,0,0,343.86,624.07Z" style="fill:#143f70"/></svg>