<svg xmlns="http://www.w3.org/2000/svg" viewBox="0 0 159.06 161.3"><title>habtium</title><path d="M155.94,69.45A32.43,32.43,0,0,0,156.47,59c-.9-8.36-4.88-15.84-10.45-19.78a25.16,25.16,0,0,0-24.14-24.45,20.56,20.56,0,0,0-8-4.54,20.39,20.39,0,0,0-24.68-5A24.73,24.73,0,0,0,74,0a24.46,24.46,0,0,0-9.07,1.73A24.69,24.69,0,0,0,38.75,12.59,25.3,25.3,0,0,0,28.44,23.83,25.1,25.1,0,0,0,5.75,49a25.65,25.65,0,0,0,.47,4.88A25.51,25.51,0,0,0,4.28,84.7a19.63,19.63,0,0,0,.6,2.18,18.36,18.36,0,0,0,11.94,23.65,72.71,72.71,0,0,0,30.74,24.79,75.69,75.69,0,0,0,10.93,14.61c6.68,6.83,13.69,10.62,20.84,11.27.72.07,1.47.1,2.23.1a27.18,27.18,0,0,0,13.66-3.87,43.68,43.68,0,0,0,10.05-8.24,67.22,67.22,0,0,0,9.49-13.35c.31-.42.84-1.18,1.47-2.19a71.52,71.52,0,0,0,29.41-26.54A18.76,18.76,0,0,0,149,102a25.49,25.49,0,0,0,6.93-32.52ZM145.58,99.26l-.29.69a14.6,14.6,0,0,1-2.83,4.4l-.19.2-.15.24A67.37,67.37,0,0,1,114,130.07l-.71.35-.41.67c-.7,1.15-1.27,2-1.56,2.34l-.13.17-.1.19c-1.25,2.38-12.66,23.3-29.53,23.3-.63,0-1.25,0-1.84-.08C65.56,155.72,54.89,139.63,51,132.78l-.45-.78-.82-.35a68.5,68.5,0,0,1-29.71-24l-.57-.83-1-.25A14,14,0,0,1,8.05,93a14.18,14.18,0,0,1,1-5.13l.37-.95L9,86a15.45,15.45,0,0,1-.67-2.39L8.24,83l-.31-.46A21.29,21.29,0,0,1,9.85,56.13l1-1-.31-1.38A21.48,21.48,0,0,1,10,49,20.87,20.87,0,0,1,29.61,28l1.68-.09.65-1.55a21.06,21.06,0,0,1,9.19-10.24l.61-.34.37-.59A20.48,20.48,0,0,1,64.4,5.94l.86.21.81-.34A20.29,20.29,0,0,1,74,4.22a20.51,20.51,0,0,1,13.27,4.9l1.43,1.22,1.63-.93a16.18,16.18,0,0,1,20.58,3.86l.55.67.83.22a16.34,16.34,0,0,1,7.11,4.05l.77.75h1.08a20.92,20.92,0,0,1,20.57,21V41.5l1.24.79c4.88,3.12,8.41,9.69,9.22,17.15a28.08,28.08,0,0,1-.57,9.62l-.25,1L152,71a21.27,21.27,0,0,1-5.81,27.78Z" style="fill:#fff"/><path d="M152,71l-.54-.93.25-1a28.08,28.08,0,0,0,.57-9.62c-.81-7.46-4.34-14-9.22-17.15l-1.24-.79V40a20.92,20.92,0,0,0-20.57-21h-1.08l-.77-.75a16.34,16.34,0,0,0-7.11-4.05l-.83-.22-.55-.67A16.18,16.18,0,0,0,90.32,9.4l-1.63.93L87.25,9.12A20.51,20.51,0,0,0,74,4.22a20.29,20.29,0,0,0-7.9,1.59l-.81.34-.86-.21a20.48,20.48,0,0,0-22.29,9.22l-.37.59-.61.34a21.06,21.06,0,0,0-9.19,10.24l-.65,1.55L29.61,28A20.87,20.87,0,0,0,10,49a21.48,21.48,0,0,0,.53,4.73l.31,1.38-1,1A21.29,21.29,0,0,0,7.93,82.58l.31.46.11.54A15.45,15.45,0,0,0,9,86l.35,1L9,87.86a14.18,14.18,0,0,0-1,5.13,14,14,0,0,0,10.38,13.61l1,.25.57.83A68.41,68.41,0,0,0,49,131.36c3.17,5.41,8.68,13.44,16,18.93,4.24,3.52,9.17,6.21,14.63,6.71.59.05,1.21.08,1.84.08,6.49,0,12.17-3.09,16.77-7,8.69-6.66,14.11-16.5,15.14-18.47.27-.36.73-1,1.29-1.9a67.21,67.21,0,0,0,27.36-24.88l.15-.24.19-.2a14.6,14.6,0,0,0,2.83-4.4l.29-.69.61-.44A21.27,21.27,0,0,0,152,71Z"/><path d="M142.75,21.85" style="fill:#f7d635"/><g style="opacity:0.30000000000000004"><path d="M32.28,31.2l-.61,0c-10.14,0-18.36,8-18.36,17.77a17.24,17.24,0,0,0,.6,4.5C14.08,42.93,21.77,34.07,32.28,31.2Z" style="fill:#808184"/><path d="M139,41.4c0-.2,0-.4,0-.6-.14-9.95-8.06-17.9-17.69-17.77a16.88,16.88,0,0,0-4.41.65C127.24,23.71,136,31.13,139,41.4Z" style="fill:#808184"/><path d="M44.36,73.82l.64-.06c10.61-1.25,18.5-8.27,17.62-15.67a9.69,9.69,0,0,0-1-3.32C62.35,62.72,55.09,70.35,44.36,73.82Z" style="fill:#808184"/><path d="M91,58.15c0,.23,0,.46.08.69,1.66,11.28,13.41,18.89,26.24,17a26.53,26.53,0,0,0,5.79-1.53C109.3,76.13,96.47,69.28,91,58.15Z" style="fill:#808184"/><path d="M146.71,73.16c.12-.19.25-.39.36-.59,5.68-9.89,1.16-23.14-10.08-29.6a26.64,26.64,0,0,0-5.5-2.38C143.45,47.7,149.29,61,146.71,73.16Z" style="fill:#808184"/><path d="M108.87,78.59c0,.18,0,.36.06.54,1.29,8.78,10.43,14.7,20.41,13.23a20.67,20.67,0,0,0,4.5-1.19C123.12,92.58,113.13,87.25,108.87,78.59Z" style="fill:#808184"/><path d="M25,87.47l.53.28c8.92,4.41,19.61,1,23.88-7.64a16.9,16.9,0,0,0,1.44-4.22C46.06,85.07,35.45,89.51,25,87.47Z" style="fill:#808184"/><path d="M16.16,55.71l-.52.35C7.16,62.07,5,73.59,10.81,81.8A17.79,17.79,0,0,0,14,85.22C7.89,76.3,9.08,64.34,16.16,55.71Z" style="fill:#808184"/><path d="M67.67,11.56l-.45-.29a15.77,15.77,0,0,0-21.78,4.79,15,15,0,0,0-1.62,3.62C48.78,11.94,58.55,8.89,67.67,11.56Z" style="fill:#808184"/></g><path d="M103.19,129.72" style="fill:#ca9731"/><path d="M110.65,104.34c-4.93-7.77-18-13.2-31.72-13.2a51.1,51.1,0,0,0-21.54,4.71c-5.55,2.6-8.86,6-9.83,10.1-1.78,7.55,3.24,16,3.79,16.07l.38.64c.11.25,12.51,24.84,28.38,26.28,15.57,1.42,26.85-20.73,27-20.95l.39-.62C107.57,127.25,117.19,114.63,110.65,104.34Z" style="fill:#fccb98"/><polygon points="107.67 105.79 107.67 109.36 83.35 109.36 83.35 112.19 81.32 112.19 80.56 112.19 80.56 108.95 52.58 108.95 52.58 105.87 46.06 105.87 46.06 112.34 51.87 112.34 51.87 114.91 54.6 114.91 54.6 118.14 57.38 118.14 57.38 123.7 76.52 123.7 76.52 120.87 78.03 120.87 78.03 118.14 79.72 118.14 81.32 118.14 83.35 118.14 83.35 120.97 86.25 120.97 86.25 123.73 107.11 123.73 107.11 120.97 107.92 120.97 107.92 115.32 109.2 115.32 109.2 112.15 115.12 112.15 115.12 105.79 107.67 105.79" style="fill:#fff"/><rect x="60.3" y="112.23" width="14.43" height="8.45" style="fill:#183319"/><rect x="63.26" y="114.86" width="8.5" height="5.82" style="fill:#69bc45"/><rect x="89.1" y="112.23" width="14.43" height="8.45" style="fill:#3e1211"/><rect x="92.07" y="114.86" width="8.5" height="5.82" style="fill:#ec2024"/><rect x="74.79" y="120.87" width="2.87" height="2.87" style="fill:#231f20"/><rect x="54.62" y="115.21" width="2.87" height="8.45" style="fill:#231f20"/><rect x="83.32" y="120.87" width="2.87" height="2.87" style="fill:#231f20"/><polygon points="109.14 112.18 109.14 115.05 106.46 115.05 106.46 117.79 106.46 117.92 106.46 123.66 109.33 123.66 109.33 117.92 112.01 117.92 112.01 115.38 112.01 115.05 112.01 112.18 109.14 112.18" style="fill:#231f20"/><rect x="80.55" y="109.31" width="2.87" height="2.87" style="fill:#231f20"/><polygon points="114.88 103.65 114.88 103.65 105.95 103.65 105.95 106.44 83.4 106.44 83.4 109.31 109.06 109.31 109.06 106.52 114.88 106.52 114.88 109.39 112.09 109.39 112.09 112.26 114.88 112.26 114.88 114.73 117.75 114.73 117.75 103.65 114.88 103.65" style="fill:#231f20"/><polygon points="54.58 106.44 54.58 103.65 45.82 103.65 45.82 106.52 51.61 106.52 51.61 109.31 80.53 109.31 80.53 106.44 54.58 106.44" style="fill:#231f20"/><polygon points="48.88 109.51 46.05 109.51 46.05 106.48 43.18 106.48 43.18 115.78 46.05 115.78 46.05 112.58 48.88 112.58 48.88 109.51" style="fill:#231f20"/><rect x="48.79" y="112.34" width="5.83" height="2.87" style="fill:#231f20"/><rect x="77.66" y="118.02" width="5.66" height="2.87" style="fill:#231f20"/><rect x="57.47" y="123.69" width="17.31" height="2.87" style="fill:#231f20"/><rect x="86.27" y="123.66" width="20.01" height="2.87" style="fill:#231f20"/></svg>