<?xml version="1.0" encoding="utf-8"?>
<svg xmlns="http://www.w3.org/2000/svg" width="512" height="588.6">
	<style type="text/css">
		.c0{fill:#BF1616;}
	</style>
	<path class="c0" d="M511.6,273.4c-0.5-4.1-0.9-8.6-1.8-12.9c-0.9-5-2.3-9.7-2.3-14.7c0-0.5,0.5-1.4-0.5-1.8c-0.9,0-1.4,0.5-1.4,1.4c-2.3,5-5.4,9.3-9.7,13.4c-1.4,1.4-2.3,2.3-3.6,3.6c-1.4,1.8-2.3,1.8-3.6,0.5c-3.2-3.2-5.9-5.9-7.7-10.2c-1.8-3.6-2.7-8.2-4.1-12c-0.5-0.5-0.5-1.4-1.4-1.8c-0.9,0-0.9,0.9-1.4,1.4c-4.5,6.3-8.2,13.4-10.2,21.1c-0.9,3.6-1.4,3.6-4.1,1.4c-0.5-0.5-0.5-0.5-0.9-0.9c-5-2.3-8.6-5.9-11.1-11.6c0-0.5-0.5-1.4-1.4-1.4c-0.9,0-0.9,0.5-1.4,1.4c0,0.5-0.5,0.9-0.5,1.4c-2.3,5.9-2.3,12-1.8,18.3c1.4,11.1,6.3,20.6,13.8,28.5c4.5,5,9.7,9.7,14.7,14.3c1.4,1.4,2.3,2.7,1.8,4.5c-0.5,4.5-0.5,8.6-0.5,13.4c0,1.4-0.5,2.7-1.8,3.2c-0.9,0.5-0.9,0.9-0.9,1.8c-2.3,7.7-7.7,12.9-12.5,19.3c-0.5,0.9-1.4,0.9-2.3,0c-0.9-1.4-2.3-2.7-3.2-4.1c-2.7-3.6-4.1-7.2-5.9-11.6c-0.5-0.5,0-1.8-1.4-1.4c-0.9,0-0.9,0.9-0.9,1.8c-0.5,1.8-0.9,3.6-1.8,5c-4.1,6.3-5.4,13.8-5.9,21.1c-0.9,8.6,1.4,16.5,5,24.7c1.8,5,1.8,5-3.2,5c-7.2,0-14.7,0-22,0c-2.7,0-3.2,0-3.2-3.2c0-40.3,0-81.1,0-121.7c0-2.3,0-4.5,0.9-6.8c1.4-5,4.1-8.2,7.7-11.6c0.9-0.9,1.4-1.4,0.9-2.3c0-0.5-1.4-0.5-2.3-0.5c-19.3,0-39,0-58.7,0c-1.4,0-1.8,0.9-1.4,2.3c0.5,0.5,0.5,0.9,0.9,0.9c5.4,5,8.2,12,8.2,19.3c0,12.5,0,29.5,0,41.7L265.2,210.7c0.9,0,2.3,0,2.3,0c5-0.9,9.7-1.8,14.7-2.7c10.2-1.8,20.2-5,30.4-8.2c8.2-3.2,16.5-6.8,23.8-11.6c2.3-1.4,4.1-3.2,5-5.9c4.1-11.6,10.6-22.4,16.1-33.5c5-9.7,10.2-19.3,15.2-29c0.9-1.4,0.5-2.7-0.9-3.6c-2.3-1.4-5-2.3-7.7-2.3c-6.8,0-12.9,1.8-17.4,6.8c-0.9,0.9-1.8,1.4-3.2,1.4c-5.4-0.9-9.3,1.4-10.6,7.2c-0.5,0.9-0.5,1.8-0.5,2.7c-0.5,2.7-0.5,5.4-3.6,5.9c-3.2,0.5-5.9,0.9-9.3,0.9c-1.8,0-4.1-1.4-4.5-2.7c-0.9-2.3,0.5-3.2,2.3-4.5l0.5-0.5c4.5-2.7,5.4-8.6,0.9-13.4c-1.4-1.4-1.8-2.7-1.8-4.1c0-4.1-2.3-7.2-5.9-8.6c-4.5-1.4-8.2,0-10.6,3.6c-1.4,1.8-2.7,3.6-4.5,5c-2.7,1.8-3.6,4.1-4.1,7.7c0,2.3,0.9,4.1,1.8,5.9c1.4,3.2,0.9,5.4-2.3,5.9c-6.3,1.4-12.9,0-18.3-3.6c-2.3-1.4-3.6-4.5-2.3-6.8c1.4-1.8,2.3-3.6,3.2-5.4c2.3-3.6,2.7-7.7,2.3-12c0-4.5-2.3-8.2-5-12c-0.9-1.4-2.3-2.3-2.3-3.6c-0.5-4.5-2.3-8.6-5-12.5c-0.9-0.9-0.9-1.8,0-2.7c3.2-6.3,8.6-10.2,15.2-12c6.8-1.8,14.3-1.4,21.1,0c1.8,0.5,3.2,0.5,5,0c1.4-0.5,2.3-0.9,3.6-1.4c5.4-1.4,11.1-2.3,16.5-3.2c5.9-0.9,12-0.5,17.9,1.4c5.4,1.4,10.6,3.6,16.1,5.9c0.9,0.5,1.8,0.5,2.7,0.5c1.8-0.5,3.2-0.5,5-0.9c3.6-0.5,6.8-1.4,10.6-0.9c6.3,1.4,12.9,4.1,18.8,6.8c4.5,2.3,8.6,4.5,12.9,6.8c0.5,0.5,1.4,0.9,1.8,0c0.5-0.5,0.5-1.4,0-1.8c-0.5-0.5-0.5-0.9-0.5-0.9c-3.6-6.3-9.3-11.1-14.3-16.1c-7.2-6.3-14.7-12.5-22.9-17.4C361.2,34,349,27,335.6,22.9c-3.6-0.9-7.2-1.8-10.2-4.5c-0.9-0.9-1.8-0.5-2.3,0.9c-0.5,0.9-0.5,1.8-0.5,2.7c0,1.4-0.5,2.3-1.8,3.2c-2.3,0.9-4.1,1.8-6.3,2.7c-6.3,2.3-12.5,4.5-19.3,5.9c-4.5,0.9-8.6,2.3-13.8,1.8c-3.2-0.5-5.9-0.5-8.6-2.3c-2.7-1.8-2.7-4.5,0-6.3c3.6-2.7,5-5.9,4.1-10.6c-0.5-3.2-2.7-5.4-5-7.2c-2.7-2.3-5-5-6.8-8.2c-0.9,0-1.4-0.9-1.8-0.9c-0.9,0-0.9,0.9-1.4,1.8c-0.5,3.2-0.9,6.3-1.4,9.7c-0.5,4.5-0.9,5-5.4,5c-4.1,0-4.5-0.5-5-4.5c-0.5-3.6-0.9-6.8-1.4-10.6c0-0.5-0.5-1.4-0.9-1.4c-0.5,0-0.9,0.5-1.4,0.9c-0.5,0.5-0.5,0.9-0.9,1.4c-0.9,3.6-3.6,5.4-6.3,7.7c-5.9,4.5-6.8,13.8,0,17.9c1.4,0.9,1.8,1.8,1.4,3.2c-0.5,1.8-1.8,3.6-3.6,4.1c-2.7-0.5-5.4,0-8.2,0c-5,0-10.2-1.4-15.2-2.3c-6.3-1.4-12.9-4.1-19.3-6.3c-3.2-1.4-5-2.7-5-6.3c0-1.8-1.4-2.7-2.7-1.4c-2.3,2.3-5,2.7-7.2,3.6c-12,3.6-22.9,8.6-33.5,15.2c-6.3,4.1-13.4,7.7-19.3,12.9c-3.6,2.7-7.2,5.9-10.6,9.3c-5.4,4.5-10.2,10.2-13.8,16.1c-0.5,0.5-0.9,1.4-0.5,2.3c0.5,0.5,1.4,0,1.8,0c3.2-0.9,5.9-2.7,8.6-4.5c5-2.3,9.7-5,14.7-6.8c3.6-1.4,7.7-2.7,11.6-2.3c3.6,0,7.2,0.9,11.1,1.8c1.4,0.5,2.7,0,4.1-0.5c5-2.3,9.7-4.1,15.2-5.4c3.6-0.9,7.2-1.8,11.1-1.8c2.7,0,5.4,0.5,8.2,0.5c6.3,0.5,12.5,1.8,17.9,4.1c1.8,0.5,3.6,0.9,5.4,0.5c4.1-0.9,8.2-1.4,12-1.4c5.4,0,11.1,1.4,16.1,4.1c3.6,2.3,6.3,5.4,8.2,9.3c0.5,1.4,0.5,2.3-0.5,3.2c-2.3,2.7-3.6,5.9-4.1,9.7c-0.5,2.7-1.8,5-3.6,7.2c-2.7,3.2-4.1,7.2-4.1,11.6c0,5.9,2.3,10.6,5,15.6c0.9,1.4,1.4,3.2,0.5,4.5c-0.9,1.4-1.8,2.7-3.2,3.6c-5.4,3.6-11.6,3.6-17.9,2.7c-1.8-0.5-2.7-2.3-2.3-4.1c0.5-0.9,0.9-1.8,1.4-2.7c1.8-4.1,1.4-9.3-2.3-11.6c-2.7-1.8-4.5-4.5-6.3-6.8c-2.3-3.2-5.9-3.2-9.7-2.7c-4.1,0.9-5.9,3.2-6.3,7.2c-0.5,2.3-0.5,4.1-2.3,6.3c-2.7,3.2-2.7,6.3-0.9,10.2c0.9,1.4,2.3,2.3,3.6,3.6c0.9,0.9,2.3,1.8,1.8,3.6s-1.4,2.7-3.2,3.2c-2.7,0.9-5.4,0-8.2,0c-1.4,0-2.3-0.5-3.6-0.9c-1.4-0.5-2.3-1.8-2.3-3.2s-0.5-2.3-0.5-3.6c-0.9-6.3-5-10.2-10.6-8.6c-1.4,0.5-1.8,0-2.7-0.9c-1.8-1.8-4.1-3.6-6.3-4.5c-5.4-2.7-11.6-3.6-17.4-0.9c-3.6,1.4-4.1,2.3-1.8,5.4c0.5,0.9,0.5,1.8,0.9,2.3c4.5,9.3,9.7,18.3,14.3,27.6c2.3,4.5,4.5,9.7,6.8,14.3c2.7,5.4,5.4,11.1,7.2,16.5c0.9,1.8,1.8,3.6,3.2,5c5.9,5,12.9,8.2,20.2,11.6c10.6,4.1,21.1,7.2,32.2,9.7c5.4,0.9,11.6,2.3,17,3.2c0.5,0,2.7,0.5,4.5,0.5L141.9,317.8c0-14.3,0-31.7,0-44.9c0-5.4,1.8-10.2,5.9-13.4c1.4-0.9,2.7-2.3,3.6-3.6c0.5-0.5,0.9-0.9,0.5-1.8c-0.5-0.9-0.9-0.5-1.4-0.5s-1.4,0-1.8,0H94.1c-0.9,0-1.8,0-3.2,0c-1.8,0-2.7,0.9-1.4,2.7c0.9,0.9,1.8,1.8,2.7,2.7c4.1,4.5,6.3,9.7,6.3,15.6c0,46.9,0,93.1,0,140c0,0.9-0.5,1.8-0.9,2.7c-1.4,2.7-3.6,5-5.4,7.2c-0.5,0.5-0.9,0.9-0.5,1.4c0.5,0.5,0.9,0.5,1.4,0.5c0.5,0,1.4,0,1.8,0c24.2,0,48.7,0,72.5,0c4.5,0,6.8-1.4,9.3-5c1.8-3.6,5.4-8.2,8.2-12l70.2,70.2l113.7-113.7c0,12.9,0,30.8,0,43.5c0,2.3-0.5,4.1-1.4,6.3c-1.8,4.1-3.2,5.4-6.3,8.6c-1.4,0.9-0.5,2.3,0.5,2.3c23.8,0,48.3,0,72,0c0.9,0,1.8-0.5,1.8,0.5c0.5,0.9-0.5,0.9-0.9,1.4c-2.7,3.2-5.9,5.9-8.6,9.3c-3.6,4.1-7.7,8.2-12,12c-0.9,0.9-1.8,1.4-2.3-0.5c-0.5-1.4-1.4-1.8-2.7-0.9c-4.5,3.2-10.2,5-15.2,7.2c-1.8,0.9-2.3,0-1.8-1.4c0.5-3.6,0.5-7.2,0.5-10.6c0-3.2-0.5-5.9-1.8-9.3c-0.9-2.3-1.8-2.3-3.2-0.9s-2.7,3.2-4.5,5c-2.7,2.7-5.4,5-8.6,7.2c-3.6,3.2-6.8,6.3-9.7,10.2c-4.1,5-7.2,10.6-10.2,16.5c-2.7,5.9-4.1,12.5-4.1,18.8c0,3.6-1.8,5.4-5,6.8c-8.2,4.1-17,7.7-26.1,10.2c-5,1.4-9.7,2.7-14.7,3.2c-0.5,0-1.4,0.5-1.8-0.5c-0.5-0.5,0-0.9,0.5-1.4c2.7-2.7,4.1-6.3,5.9-10.2c1.4-2.3,1.8-4.5,1.8-7.2c-0.5-5.9-2.3-11.1-5.9-15.6c-1.4-1.8-3.2-3.2-5.9-2.3c-9.7,2.7-17.9,7.2-25.1,14.3c-6.3,5.9-11.6,13.4-15.2,21.1c-0.9,1.8-1.8,2.7-4.1,2.3c-1.4-0.5-1.8-0.9-2.3-2.3c-2.7-6.3-6.8-12.5-11.6-17.4c-7.7-8.6-17.4-15.2-28.5-18.3c-2.3-0.9-5.4,0-6.8,2.3c-1.4,2.3-2.7,4.5-4.1,6.8c-2.7,6.8-2.3,13.8,1.8,20.2c1.4,1.8,2.3,4.5,4.1,5.9c0.5,0.5,0.9,0.9,0.5,1.4c-0.5,0.5-0.9,0-1.4,0c-2.7-0.5-5.4-1.4-8.2-1.8c-11.6-2.7-22.4-6.8-33.1-12.5c-1.4-0.9-3.2-1.4-3.6-3.2c-0.9-2.7-1.8-5.9-1.8-8.6c-0.5-4.1-0.9-7.7-2.3-12c-4.1-11.6-11.6-20.2-20.6-28.5c-4.1-3.6-8.6-7.2-12.5-11.6c-2.3-2.7-3.2-2.7-4.5,0.9c0,0.5-0.5,0.9-0.5,1.8c-1.4,5.9-1.8,12-0.5,17.4c0.5,1.4,0,2.3-1.4,1.4c-5-2.3-10.6-4.1-15.6-7.2c-1.8-1.4-2.7-1.4-3.2,1.4c-0.5,1.4-0.5,1.4-1.8,0.5c-2.7-2.7-5.4-5-8.2-7.7c-2.3-2.3-4.1-4.5-6.3-6.8c-5-5-10.2-10.6-14.7-16.1c-2.3-2.7-4.5-5-6.3-7.7c-0.9-1.4-0.9-2.3,0-3.6c1.4-1.4,2.3-2.7,3.2-4.1c7.7-11.1,11.6-23.3,10.2-36.7c-0.5-4.5-1.4-9.7-3.6-14.3c-1.4-3.2-3.6-5.9-4.5-9.7c0-0.9,0-1.8-1.4-1.8c-0.9,0-0.9,1.4-1.4,1.8c-2.3,5.4-4.5,11.1-8.6,15.6c-0.9,0.9-1.4,0.9-2.3,0c-0.9-1.4-2.3-2.7-3.6-4.5c-4.1-4.5-7.2-9.3-9.3-15.2c0-0.5-0.5-0.9-0.5-0.9c-2.7-0.9-2.3-3.2-2.3-5c0-3.6,0-7.2-0.5-11.6c0-1.4,0-2.7,0.9-3.6c5.4-5.4,11.1-10.6,16.5-16.1c5-5.4,8.2-12,11.1-18.8c1.8-5.9,2.7-12,2.3-18.3c-0.5-3.6-0.9-6.8-2.7-10.6c-0.5-0.5-0.5-1.4-1.4-1.4c-0.9,0-0.9,0.9-1.4,1.4c-1.4,3.2-3.2,6.3-6.3,8.2c-1.4,0.9-3.2,2.3-5,3.2c-3.2,2.3-3.2,2.3-4.5-1.4c-1.8-7.2-5.4-14.3-9.7-20.2c-0.5-0.9-0.9-1.8-1.8-1.8c-0.9,0-0.9,1.4-1.4,2.3v0.5c-1.8,6.3-4.1,12.9-8.6,18.3c-1.4,1.4-2.3,2.7-3.6,3.6c-0.9,0.5-1.4,0.5-1.8,0c-2.3-2.7-5-5.4-7.2-7.7c-3.2-3.2-5-6.8-6.8-10.6c-0.5-0.5-0.5-1.4-1.4-1.4c-0.9,0.5-0.9,0.9-0.5,1.8c0.5,2.7,0,5.9-0.9,8.6c-1.4,6.3-2.7,13.4-2.7,19.7c-0.5,8.6,0.5,17,5.4,24.2c3.2,5,6.8,10.2,12.5,12.9c3.6,2.3,4.5,5.9,6.3,9.7c-0.5,9.7,0.5,19.3,1.4,28.5c0,0.9,0.9,2.3,0,2.7c-0.9,0.5-1.8-0.9-2.7-1.4c-1.4-1.4-2.7-2.7-4.1-4.1c-1.4-0.9-2.3-0.9-2.7,0.9c-1.8,8.2-2.7,17-1.8,25.6c0.9,8.6,5,15.6,10.6,22c5,5.9,12,9.7,19.3,12.5c0.9,0.5,2.3,0.9,2.7,1.4c4.1,5.4,8.6,10.6,12.9,15.6c5.4,6.8,11.1,12.9,17,19.3c2.3,2.3,4.5,4.5,6.3,6.8c3.6,4.1,7.7,8.2,12,12c1.8,1.8,4.1,3.2,4.5,5.9c1.4,6.8,5.4,12,10.6,16.5c0.5,0.5,1.8,0.9,1.4,1.8s-1.4,0.9-2.3,0.9c-3.6,0.9-6.8,1.8-10.2,3.6c-3.2,1.8-6.3,3.2-9.3,5.4c-1.4,1.4-1.4,1.8,0.5,2.3c3.2,0.9,6.3,1.8,9.3,3.2c6.8,3.2,13.8,6.3,21.5,8.6c5.9,1.8,11.6,2.3,17.9,0.9c5.9-1.4,11.6-3.2,17-5.4c0.9-0.5,1.8-0.9,2.3-0.5c3.6,1.8,7.2,3.2,11.1,4.5c5.4,2.3,11.6,4.5,17,6.3c6.8,2.3,14.3,4.1,21.5,5.4c5.4,0.9,11.1,2.3,16.5,2.7c2.3,0.5,4.5-0.5,6.8,0.9c2.7,1.4,5.4,2.3,8.2,2.7c1.8,0.5,1.4,0.9,0.5,2.3c-4.1,4.1-9.3,7.2-14.3,9.7c-8.6,4.1-18.3,5.9-28.1,7.2c-6.8,0.9-13.4,2.3-20.2,2.7c-0.5,0-0.9,0.5-0.9,0.9s0.5,0.5,0.5,0.9c1.4,1.4,3.2,1.4,5,2.3c5.9,2.3,12.5,4.1,18.8,4.5c0.5,0,1.4,0,1.8,0.5c0,0.5-0.5,0.9-0.9,1.4c-3.6,5-7.2,10.2-9.7,16.1c-0.9,2.7-1.8,5-1.8,7.7c0,1.8,0.9,2.3,2.3,1.4c2.3-1.4,4.1-2.3,6.3-3.6c6.3-4.1,12.9-8.2,18.8-13.4c5.4-4.1,11.1-8.6,16.1-13.4c3.2-2.7,6.8-5.9,10.2-9.3c2.7-2.7,5.9-5.4,9.3-8.2c0.9-0.9,1.4-0.5,1.8,0c4.5,4.1,9.3,8.2,13.8,12.5c4.1,3.6,8.2,7.2,12.9,11.1c4.1,3.2,8.6,6.3,12.9,9.7c5,4.1,10.2,7.2,15.2,10.6c2.3,1.4,4.5,2.7,6.8,4.1c0.5,0.5,1.4,0.9,2.3,0c0.5-0.5,0.5-0.9,0.5-1.8c-0.5-4.5-2.3-8.6-4.5-12.5c-2.3-3.6-4.5-7.2-7.2-11.1c-0.9-0.9-0.9-1.8,0.9-1.8c3.2,0,5.9-0.9,9.3-1.8c5-1.4,9.7-2.7,14.3-5c0.5-0.5,1.4-0.5,1.4-1.4s-0.9-0.9-1.8-0.9c-2.7-0.5-5.9-0.9-8.6-1.4c-7.7-1.4-15.6-2.3-23.3-4.1c-10.2-2.3-19.3-6.3-27.6-12.9c-0.9-0.9-2.3-1.4-2.3-2.7c0-1.4,1.8-1.4,3.2-1.8c2.7-0.9,5-2.3,7.7-2.7c4.1-0.5,8.2-0.5,12.5-1.4c10.6-1.8,21.5-4.1,31.7-7.7c9.3-3.2,18.3-6.8,27.6-10.6c0.9-0.5,1.4-0.5,2.3,0c3.6,1.4,7.2,2.7,11.1,3.6c5.4,1.4,10.6,2.7,16.1,2.3c6.3-0.9,12.9-2.7,18.8-5c6.3-2.7,12.5-5.9,19.3-7.7c0.9,0,2.3,0,2.3-1.4c0-0.9-0.9-1.8-1.8-2.3c-5.4-3.2-11.6-6.8-17.9-8.2c-0.9,0-1.8,0-1.8-0.9c0-0.9,0.5-1.4,1.4-1.8c5.4-4.5,9.3-10.6,11.1-17.4c0.5-1.4,0.9-2.3,1.8-3.2c1.8-1.4,3.6-3.2,5.4-5c2.7-2.7,5.9-5.9,8.6-8.6c4.1-4.5,8.6-9.3,12.9-14.3c7.2-8.2,14.3-17,21.1-25.1c2.3-3.2,5-5,8.6-5.9c1.8-0.5,3.6-1.4,5-2.3c5.4-3.2,10.2-6.8,13.8-12c3.2-4.5,5.9-9.3,6.8-14.7c1.4-5.9,0.9-12,0.5-17.4c-0.5-3.6-0.9-7.7-1.8-11.6c-0.5-1.8-0.9-1.8-2.3-0.9c-1.4,1.4-3.2,2.7-4.5,4.1c-0.9,0.5-1.4,1.8-2.3,1.4c-0.9-0.5-0.5-1.8-0.5-2.7c0.9-5.4,1.4-11.1,1.4-16.1c0-3.6,0-7.7,0-11.6c0-0.9,0-2.3,0.9-3.2c0.9-1.4,1.8-3.2,2.7-4.5c0.5-0.9,0.9-1.4,1.8-1.8c4.1-1.8,7.2-5,10.6-8.6c3.2-4.1,5.9-8.6,6.8-13.8C511.6,284.5,512.5,278.9,511.6,273.4z M362.3,57.8c1.4-3.6,4.1-4.5,7.2-4.5c5-0.5,9.7,1.4,14.3,3.2c5.4,2.3,10.2,5.9,14.7,10.2c0.9,0.9,1.8,2.3,2.7,3.2c-4.1-1.4-7.7-4.1-12-5.4c-5.4-1.8-10.6-4.1-16.5-4.1c-2.7,0-5.4,0.5-8.2,1.4c-1.4,0.5-2.7,0.9-3.6,0C360.5,60,361.9,59.1,362.3,57.8z M308.2,55.5c3.6-8.6,8.6-15.6,17.4-19.7c4.5-2.3,10.2-1.8,14.3,2.3c6.3,6.3,12.9,13.4,17.4,21.5c0.5,0.5,0.5,0.9,0.9,1.4c-6.8-3.2-13.4-5.4-20.6-6.3c-3.6-0.5-7.2-0.5-11.1-0.5c-5.9,0-11.6,1.8-17,2.7C307.3,56.9,307.7,56.4,308.2,55.5z M266.1,62.8c1.8-6.3,1.8-13.4,2.3-20.2c0-1.4,0.5-2.3,2.3-1.8c6.8,1.8,12.9,5,18.8,8.6c3.2,1.8,5.9,3.6,8.6,6.3c0.5,0.5,1.4,0.9,1.4,2.3c-7.7-0.9-15.6-0.9-23.3,0.5c-2.7,0.5-5,2.3-7.7,3.6c-0.5,0.5-0.9,0.9-1.4,0.9c-0.5,0-0.9,0.5-0.9,0C266.1,63.2,266.1,62.8,266.1,62.8z M147.8,61.4c-3.2-0.9-6.8-1.4-10.2-1.8c-1.4,0-2.3,0-3.2,0c-7.2,1.8-14.3,4.1-20.6,7.7c-0.9,0.5-1.4,0.9-2.7,1.4c0.5-2.3,2.3-3.2,3.2-4.5c1.8-1.8,4.1-3.6,6.3-5c5-2.7,10.2-5,15.6-6.3c3.6-0.5,7.7-0.5,11.1,2.3c1.4,1.4,1.8,2.7,2.3,4.5C149.6,60.9,149.2,61.4,147.8,61.4z M202.9,56.9c-0.5,0.5-2.3,0-3.6-0.5c-5.9-1.4-12-2.7-18.3-2.3c-7.7,0-15.2,1.4-22.4,4.5c-1.4,0.9-3.2,1.4-5.4,1.8c3.6-5.9,7.2-11.6,12-16.1c2.7-2.7,5-5.9,8.2-8.2c4.1-2.7,8.2-2.7,12.5-0.9c7.7,3.6,12.5,10.2,16.1,17C202.4,54.1,203.3,55.5,202.9,56.9z M244.1,63.9c-0.9,0.5-1.8-0.9-2.7-1.8c-4.1-2.3-8.6-3.6-13.8-4.1c-5.4-0.5-10.6,0-16.5,0c2.7-3.6,5.9-5.9,9.3-7.7c4.1-2.7,8.6-4.5,13.4-6.8c1.8-0.9,4.1-1.4,6.3-2.3c1.4-0.5,2.3,0,2.3,1.8c0,5.9,0.9,12,1.8,17.4C244.1,61.4,245.4,62.8,244.1,63.9z M126.5,339.1l26.5-26.5v53.2L126.5,339.1z M158.7,396.4c-4.5,0-9.3,0-14.3,0c-1.8,0-2.7-0.9-2.7-2.7c0-8.6,0-21.1,0-30.4l11.1,11.1l21.5,21.5C169.8,396.4,162.8,396.4,158.7,396.4z M164.8,157.9c-2.7-4.5-4.5-9.3-6.8-13.8c-3.6-6.8-7.2-13.8-11.1-21.1c-0.5-0.5-0.9-1.4-0.9-2.3s0.5-1.4,1.4-1.8c5-0.9,12.5,2.7,15.2,7.2c0.9,1.4,1.8,2.3,3.6,0.9c2.3-1.4,5-0.5,5.9,2.3c0.5,0.9,0.5,2.3,0.9,3.2c0,4.1,2.3,7.2,5.9,8.6c4.1,1.4,8.2,2.3,12.9,2.3c4.5-0.5,7.2-2.7,9.3-6.3c1.4-2.7,1.4-5.9-0.5-8.6c-0.9-1.4-1.8-1.8-2.7-2.7c-2.3-2.3-2.3-4.1,0-6.3c1.4-0.9,1.8-2.3,1.4-3.6c0-0.5,0-1.4,0-1.8c0-1.8,0.9-3.2,2.7-3.6c2.7-0.5,4.5,0.5,5.4,2.3s1.8,3.6,4.1,4.5c2.3,1.4,2.7,3.6,1.8,5.9c-0.9,2.7-1.8,5-1.8,7.7c0,2.3,0.9,3.6,2.3,5c1.8,1.4,4.1,2.3,6.8,2.3s5.4,0.5,8.6,0c5.4-1.4,11.1-2.7,15.2-7.2c2.7-3.2,4.1-10.6,0-15.2c-4.5-5.4-5.4-13.8,0-19.3c2.7-2.7,3.2-6.3,4.5-10.2c0.9-2.3,1.8-5,4.5-6.3c1.8-0.9,3.6-0.5,5,0.9c2.3,2.3,3.6,5.4,4.1,8.2c0.5,3.2,1.8,5.4,4.1,7.7c5.4,5.9,4.1,13.8-0.5,19.3c-2.3,2.7-2.7,5.9-1.8,9.7c1.4,5.4,5,8.6,10.6,10.6c4.1,1.4,7.7,2.7,11.6,2.3c3.2,0,5.9-0.5,8.6-1.4c5-2.3,5.4-5.4,4.1-10.6c-0.5-0.9-0.9-1.8-1.4-3.2c-0.9-2.7,0-5.4,2.7-6.8c1.4-0.9,2.3-1.8,2.7-3.2c0.9-3.2,3.2-4.1,5.9-3.2c2.3,0.5,2.3,2.7,2.3,4.5c0,2.3,0,4.1,2.3,5.4c1.8,1.4,1.4,3.6,0,5.4c-0.5,0.5-0.9,1.4-1.8,1.8c-4.5,3.6-3.6,9.7,0,13.8c3.2,3.2,6.8,4.1,11.6,3.6c3.2-0.5,6.3-0.9,9.3-2.3c3.2-0.9,5.4-4.5,5.4-7.7c0-1.8,0.5-3.2,0.9-4.5c0.9-2.3,3.6-3.2,5.4-2.3c2.7,0.9,2.7,0.9,4.5-0.9c3.6-4.5,8.2-6.8,13.8-6.8c2.3,0,3.2,0.9,1.8,2.7c-4.1,7.2-7.7,15.2-12,22.4c-2.3,4.1-4.1,8.6-6.3,12.9c-0.9,1.4-1.4,1.4-2.7,0.5c-3.6-3.2-8.2-5-12.9-6.3c-7.2-2.3-14.3-4.1-21.5-5.9c-7.7-1.8-16.1-2.7-23.8-4.1c-7.7-0.9-16.1-1.4-24.2-1.8c-5.9-0.5-12.5,0-18.3,0c-8.6,0.5-17.4,1.4-26.1,2.7c-7.7,1.4-16.1,2.7-23.8,4.5c-6.3,1.8-12.9,3.2-18.8,5.9c-2.3,1.4-5,2.3-6.8,4.5C166.2,159.7,165.3,159.3,164.8,157.9z M172.5,176.2c-1.4-3.6-2.7-7.2-4.1-11.1c-0.5-1.4,0.9-2.3,1.8-3.2c1.4-1.4,3.2-2.3,5.4-3.2c12-4.5,24.7-7.2,37.2-10.2c7.7-1.4,16.1-1.8,24.2-3.2c4.1-0.5,7.7-0.9,11.6-0.5c5.9,0,12,0,17.4,0c5,0.5,10.2,0.5,15.6,1.4c4.1,0.5,8.2,0.9,12.5,1.4c5.9,0.9,12,2.3,18.3,3.6c8.2,1.8,16.5,4.5,24.2,7.2c1.8,0.9,3.6,2.3,5.4,3.2c1.4,0.9,1.8,2.7,0.9,4.1c-1.4,2.7-2.3,5.4-3.2,8.2c-0.9,2.7-1.8,3.2-4.5,1.8c-4.1-2.7-9.3-3.6-13.8-5c-6.8-1.8-13.8-3.6-20.6-4.5c-7.2-1.4-14.3-2.3-21.5-3.2c-5.4-0.9-11.6-1.4-17-1.8c-5,0-10.2-0.5-15.2,0c-3.2,0.5-5.9,0.9-9.3,0.9c-3.6,0-7.2,0.9-11.1,1.4c-6.3,0.5-12.5,1.8-18.8,3.2c-7.2,1.4-14.7,3.2-22,5c-3.6,0.9-7.2,2.3-10.2,4.5C173.9,178.5,173,177.6,172.5,176.2z M223,171.9c-4.5,0.9-8.6,0.9-13.4,1.8c-3.6,0.9-7.2,1.4-11.1,2.3c-3.6,0.9-6.8,1.4-10.6,2.7c-1.8,0.5-3.2,1.4-5,1.8c-2.7,0.9-3.2,3.6-1.4,5.9c0.5,0.5,0.5,0.5,0.9,0.9c-0.9,0.5-1.8,0-2.3-0.5c-1.4-0.5-2.3-1.4-3.2-2.3c-2.3-1.8-1.8-3.6,0.5-5c4.1-2.3,9.3-3.6,13.8-5c5.9-1.4,12-2.7,17.9-3.6c6.8-1.4,13.8-2.3,20.6-3.2c7.2-0.9,14.3-1.4,21.5-1.8s14.7,0,22,0.9c11.1,0.9,22.4,2.3,33.5,5c8.2,1.8,16.5,3.6,24.7,6.8c1.8,0.9,3.6,1.4,4.5,3.2c0,0.5,0.5,0.9,0,1.4c-0.9,1.8-5,4.1-7.2,4.1c0.5-0.5,0.9-0.9,1.4-1.4c1.8-2.3,0.9-4.5-1.8-5.4c-7.2-2.7-14.7-4.1-22-5.9c-8.2-1.8-16.5-3.2-25.1-4.1c-8.6-0.9-17.9-1.8-26.5-1.4C243.2,170.1,233,170.1,223,171.9z M211.5,423.9l-28.5-28.5V282.5l28.5-28.5V423.9z M269.7,453.8L255.4,468l-14.3-14.3V223.8l14.3-14.3l14.3,14.3V453.8z M328.1,395.5l-28.5,28.5V254.4l28.5,28.5V395.5z M358.3,365.6v-53.2l26.5,26.5L358.3,365.6z M16.9,275.2c-0.9,3.2-1.4,6.8-1.4,10.2c0,0.5,0,0.9-0.5,1.8c-1.4-1.8-1.8-3.6-1.8-5.9c-0.5-3.6-0.9-7.7-1.8-11.6c0-0.9-0.5-1.8-0.9-2.3c0-0.5-0.5-0.9-0.9-0.9s-0.9,0.9-0.5,1.4c0.9,3.2,0.9,6.8,1.4,10.6c0,0.5,0.5,0.9,0,1.4c-0.9,6.3,0.5,12.9,2.3,18.8c-2.3-1.8-3.6-4.1-4.5-6.3C6,287,4.2,280.9,5.1,275c0.5-5,0.5-9.7,1.8-14.3c0-0.9,0.5-1.8,1.4-2.3c0.9,0,1.4,0.9,1.8,1.4c1.4,1.8,3.2,3.2,4.5,4.5C16.4,267.5,18.7,270.7,16.9,275.2z M49,291.3c3.6-3.2,5.9-7.2,8.2-11.6c0.9-2.3,1.8-4.5,2.3-6.8c0-0.5,0.5-1.4-0.5-1.4c-0.9-0.5-0.9,0.5-1.4,0.9c-1.8,3.2-3.6,6.3-6.3,8.6c-0.5,0.5-0.9,0.9-1.4,0.5c-0.5-0.5-0.5-0.9-0.5-1.8c0.5-1.4,0-3.2,0-4.5c0-3.6,1.8-5.9,4.5-7.7c2.3-1.8,5-3.2,7.2-5c1.4-0.9,2.3-0.5,2.3,1.4c0.5,6.3-1.4,12.5-4.1,18.3c-2.3,5-5.4,10.2-9.7,13.8c-1.4,1.4-2.7,2.3-4.1,3.2l-0.5-0.5C47.2,296.3,46.8,293.1,49,291.3z M25.7,310.6h-0.5c-1.8-2.7-2.7-5.4-3.6-8.6c-2.3-8.6-0.9-17.9,0.9-26.5c0.9-3.6,3.2-5.9,5-8.6c3.6-4.5,7.2-9.7,9.7-15.6c2.7,2.7,3.6,5.9,4.5,8.6c2.7,6.3,3.2,12.9,2.7,19.3c-0.5,7.7-2.3,15.6-5.4,22.9c-1.4,2.7-2.7,5.4-4.5,7.7c-0.9,1.4-1.8,0.9-2.7-0.5c-1.4-3.6-1.8-7.2-0.9-11.6c1.4-7.2,2.7-14.3,4.5-21.5c0.5-2.3,0-4.5,0-6.8c0-0.5,0-0.9-0.9-1.4c-0.5,0-0.5,0.5-0.5,0.9c-0.9,7.7-4.1,15.2-6.3,22.4c-0.9,3.6-2.3,7.7-2.3,12C25.2,306.1,25.7,308.3,25.7,310.6z M36.6,397.4c-0.5,0.5-0.9,0-1.4,0c-2.3-1.4-4.1-2.7-5.4-4.5c-5.4-5.4-10.2-11.6-11.1-18.8c-0.9-4.5-0.9-9.3,0-13.8c0-0.9,0-1.8,0.5-2.7c0.5-1.4,1.4-1.8,2.3-0.9c2.3,2.7,4.1,5.4,6.3,8.2c0.9,1.4,0.9,2.7,0.9,4.1c0,2.3,0.9,4.5,0.5,7.2c-2.3-2.7-3.2-5.9-4.5-8.6c-0.5-0.9-0.5-3.2-1.8-2.7c-1.4,0-0.9,1.8-0.9,3.2c0.5,7.2,2.7,13.8,7.2,19.7c2.3,3.2,4.5,6.3,7.2,9.3C36.6,396.9,36.6,396.9,36.6,397.4z M52.7,395.5c-0.5,1.4-0.5,3.2-1.8,3.6s-1.8-1.8-2.3-2.7c-1.4-2.7-2.3-5.9-2.7-8.6c-0.9-7.2-0.9-14.3-0.9-21.5c0-2.3-0.9-4.5-1.4-6.8c0-0.5-0.5-1.8-1.4-1.4c-0.9,0-0.9,1.4-0.5,1.8c0.9,5.4,0,11.1,0.5,16.5c0,2.7-0.5,5.9-0.5,8.6s0.5,5.4,0.5,8.2c0,0.5,0.5,0.9,0,1.4c-0.5,0-0.9-0.5-0.9-0.9c-1.8-1.8-2.7-4.1-3.6-6.3c-2.3-6.3-4.1-12.9-4.1-19.7c0.5-5.9,0.9-12.5,4.1-17.9c0.5-0.9,0.9-2.3,1.4-3.2c1.4-1.8,2.3-1.8,3.2,0s2.3,3.2,3.2,5c2.3,3.2,5,6.3,6.8,10.2c2.3,5,3.6,10.2,3.6,12.9C54.9,383.1,54.5,389.4,52.7,395.5z M57.9,399.6c-0.9-0.5-0.5-1.4-0.5-1.8c0.9-4.1,2.7-7.2,5-10.6c4.1-7.2,6.8-15.6,5-24.2c0-1.4-0.5-2.7-0.5-3.6c0-0.5-0.5-0.9-0.9-0.9s-0.5,0.9-0.5,1.4c0,1.8,0,4.1,0,5.9c0,4.1-0.9,8.2-2.7,12c0,0.5-0.5,1.4-1.4,1.4c-0.9,0-0.9-0.9-0.9-1.4c-0.5-4.5-0.9-9.3-2.7-13.4c-0.5-0.9,0-1.4,0.5-2.3c2.7-3.6,5-7.2,7.2-11.6c0-0.5,0.5-0.9,0.9-0.9s0.9,0.9,0.9,1.4c2.7,5.9,4.5,12.5,4.1,18.8c-0.5,8.6-2.3,17.4-7.2,24.7c-1.4,1.8-3.2,3.6-4.5,5.4C59.2,399.6,58.8,400.1,57.9,399.6z M139.9,507c-7.7,3.2-16.1,2.3-23.3-0.9c-5.4-2.3-11.1-5-16.5-7.2c-1.4-0.5-0.5-1.4,0-1.4c1.8-0.9,3.6-1.8,5-2.7c3.6-1.4,7.2-2.3,11.6-2.7c1.8,0,3.2,0.5,4.5,1.4c5,1.8,10.2,3.6,15.2,5.4c0.5,0.5,1.4,0.5,1.8,1.4c-5,0.5-9.7-0.5-14.7-1.4c-5.4-1.4-11.1-1.8-17-1.4c-0.5,0-1.4,0-1.4,0.9c0,0.9,0.9,0.9,1.4,0.9c4.1,0,8.6,0.9,12.9,1.8c3.2,0.9,6.3,1.8,9.7,2.7c3.6,0.9,7.2,1.8,11.1,2.3c0.5,0,1.4,0.5,1.8,0.5C141.7,507,140.8,507,139.9,507z M113.8,468c0.9,0.9,2.3,1.4,3.2,1.8c3.6,2.3,6.8,5,10.2,8.2c5,5,10.2,10.2,15.6,14.7c0.5,0.5,0.9,0.5,0.9,1.4c-2.3-0.5-4.5-0.9-6.8-1.4c-7.7-2.7-15.2-5.4-22-9.7c-5.9-3.6-9.3-9.3-11.6-16.1c-1.4-4.1-0.5-8.2-0.5-12.5c0-2.3,0.9-2.7,2.7-1.8c5.4,1.8,11.1,4.1,16.1,7.2c7.2,4.1,13.8,10.2,19.3,16.1c3.6,3.6,6.3,7.7,9.3,12c0.5,0.5,0.5,1.4,0.9,2.3c-5.9-0.9-10.2-4.1-14.3-7.2c-3.2-2.3-5.9-5-8.6-7.7c-3.6-3.6-8.2-6.3-13.4-8.6c-0.5,0-0.5-0.5-0.9-0.5s-0.9,0-1.4,0.5C112.9,467.1,113.4,467.6,113.8,468z M157.3,483.2c-0.5,0-0.9-0.5-0.9-0.9c-1.8-3.2-2.7-6.3-4.5-9.3c-2.3-3.6-5-7.2-8.2-10.6c-4.1-3.6-7.7-7.7-11.6-12c-0.5-0.5-0.9-1.4-1.4-0.9c-0.9,0.5-0.5,1.4-0.5,1.8c1.4,3.6,4.1,5.9,6.3,8.6c2.7,2.7,5.4,5.9,6.8,9.7c-4.1-2.3-7.2-5.9-11.6-8.6c-0.5-0.5-1.4-0.9-1.8-1.4c-3.6-1.8-5-5.4-5.4-9.3c-0.5-3.2-1.4-5.9-1.4-9.3c0-0.5,0-0.9,0-1.4c0-0.5,0-1.4,0.9-1.8s1.4,0.5,1.8,0.9c5.4,5,11.1,10.2,16.5,15.6c5,5,9.7,10.6,12,17.4c1.4,3.2,2.3,6.8,2.7,10.6C157.8,482.8,157.8,483.2,157.3,483.2z M230.3,499.7c-5.9-4.5-12-7.7-18.8-10.2c-0.9-0.5-1.8-0.9-2.7-1.4c-2.7-1.4-3.2-1.8-2.7-5c0.5-2.7,1.4-5,3.2-6.8c0.5-0.9,1.4-0.9,2.7-0.9c4.5,0.9,8.2,2.7,12,5c4.5,2.7,9.3,5.9,12.9,10.2c4.1,4.1,6.8,9.3,9.7,13.8c0.9,1.4,1.8,3.2,1.8,5c0,0,0,0.5-0.5,0.9c-0.5,1.8-0.9,4.1-2.7,4.5c-1.4,0.5-2.3-2.3-3.2-3.2C239.1,506.5,234.8,502.9,230.3,499.7z M253.1,536c-2.7,2.7-5.4,5.9-8.6,8.6c-3.6,3.2-6.8,6.3-10.6,9.3c-5,4.1-10.2,8.6-15.2,12.9c-5.9,5.4-12.9,9.3-19.7,13.8c-0.5,0-0.5,0.5-0.9,0.5c-0.5,0-0.9,0.9-1.4,0.5c-0.5-0.5,0-0.9,0-1.4c2.3-4.5,4.5-9.3,8.6-13.4c2.3-2.7,4.5-5.4,7.2-7.7c0.5-0.5,0.9-0.9,0.5-1.4c-0.5-0.5-0.9-0.5-1.4-0.5c-6.3,0.5-12.9,0.5-18.8-1.8c6.3-0.9,12.9-2.3,19.3-3.2c2.3-0.5,4.1-1.4,5.9-1.8c8.6-3.2,17-7.2,24.2-13.4l0.5-0.5c2.3-3.2,5.4-4.1,9.7-2.7c0.5,0.5,1.4,0,1.8,0.9C254.5,535.1,253.6,535.5,253.1,536z M252.7,528.1c-2.3,0-4.5-1.8-4.5-3.6c0.5-2.3,1.4-4.5,2.7-6.3c0.9-1.4,1.8-1.4,2.3,0c0.9,1.8,1.8,5,1.8,6.8C255.2,526.7,254.1,528.1,252.7,528.1z M259.3,527.2c-0.5-3.6-1.8-6.8-2.3-10.6c0-0.5-0.5-0.9,0.5-0.9c2.3,0.5,5.9,4.5,5.9,6.8c-0.5,2.3,0.5,4.5-2.3,5.9C260.2,528.5,259.3,528.5,259.3,527.2z M279.4,544.1c7.2,4.1,14.7,7.2,22.9,8.6c4.5,0.9,9.7,1.8,14.7,2.3c0.9,0,1.4,0.5,2.3,0.9c-3.6,0.5-6.3,1.4-9.7,1.8s-6.3,0.5-9.7,0c-0.5,0-1.4-0.5-1.4,0.5c0,0.5,0,1.4,0.5,1.4c2.7,2.7,5.4,5.9,8.2,9.3c3.2,3.2,5,7.7,7.2,12c0,0.5,0.5,0.9,0,1.4c-0.5,0.5-0.9,0-1.4,0c-3.2-2.3-6.8-4.1-10.2-6.3c-9.3-5.9-16.5-13.8-25.1-20.2c-4.1-3.2-7.7-7.2-12-10.6c-2.3-1.8-4.1-4.1-5.9-6.3c-0.9-1.4,0.5-4.1,2.3-4.5c1.4-0.5,2.7,0,4.1,0.9C270.1,538.7,274.9,541.4,279.4,544.1z M271.5,508.8c-1.8,1.8-3.2,3.6-4.5,5.9c-0.9,1.4-1.4,0.9-1.8,0c-1.8-2.7-2.7-5.4-0.9-8.6c3.6-5.9,6.8-12,12-16.5c3.2-3.2,6.8-5.9,11.1-8.2c3.6-1.8,7.2-4.5,12-5.4c2.7-0.5,3.2-0.5,5,1.8c1.8,2.3,2.3,4.5,2.7,7.2c-0.5,1.4-0.9,2.3-2.3,2.7c-3.2,1.8-6.8,2.7-10.2,4.1C285.3,496.3,278.1,502,271.5,508.8z M354.6,483.7c-0.9-2.3,0-4.5,0.9-6.8c2.3-7.7,6.3-14.7,12-20.2c4.1-4.5,9.3-8.2,13.8-12.5c1.8-1.4,3.2-3.2,4.5-4.5s1.8-1.4,2.7,0.9c0.9,2.3,0.5,5,0,7.2c-0.5,2.3-0.9,5-1.8,7.2c-0.9,2.3-2.3,3.6-4.1,5c-5,3.2-8.6,7.7-14.7,11.1c1.8-3.6,3.6-6.3,5.9-8.6c2.3-2.7,5-5,6.8-8.2c0-0.5,0.5-0.9,0.5-1.4c0-0.9,0.5-1.8-0.5-1.8c-0.9-0.5-0.9,0.5-1.4,0.9c-2.7,2.7-5,5.4-7.7,8.2c-6.3,6.3-12,12.9-15.6,21.1C356,482.3,356,483.7,354.6,483.7z M411.5,497.3c0.5,0.5,1.4,0.5,1.4,1.4s-0.9,0.9-1.4,0.9c-6.3,2.7-12.5,5.9-18.8,8.2c-6.8,2.7-13.8,2.3-21.1,0c-0.9-0.5-1.8-0.5-1.8-1.4c0-0.9,0.9-0.9,1.8-0.9c6.8-0.9,13.4-3.2,20.2-5c3.6-0.9,7.2-1.4,11.1-1.4c0.9,0,3.2,0,3.2-0.9c0-1.4-1.8-0.9-3.2-0.9c-7.2-0.5-14.7,1.4-21.5,3.2c-2.7,0.5-5,0.5-8.2,0c2.3-1.8,4.5-2.3,6.8-3.2c4.1-1.8,8.2-2.7,12.5-4.5c2.3-0.9,4.5,0,6.8,0.5C403.8,493.6,407.9,495.4,411.5,497.3z M402.9,479.4c-3.2,3.6-7.2,6.3-12,8.2c-7.2,3.2-14.7,5.9-22,7.7c-0.5,0-0.5,0-0.9,0c0-0.9,0.5-0.9,0.9-1.4c4.1-2.7,7.2-6.3,11.1-9.7c2.7-2.7,5.4-5.9,8.6-8.6c2.7-2.3,5.4-4.1,8.2-5.9c0,0,0.5,0,0.5-0.5c0.5-0.5,1.8-0.9,1.4-1.8c-0.5-0.9-1.4,0-2.3,0c-5.9,2.7-11.1,6.3-15.6,11.1c-5,5-10.6,9.3-17,12c-0.9,0.5-1.8,1.4-2.7,0.5c-0.5-0.9,0.5-1.8,0.9-2.3c2.3-3.2,4.5-6.3,6.8-9.7c5-5.4,10.6-10.6,16.5-15.2c4.5-3.6,10.2-5.9,15.6-8.2c1.8-0.9,3.2-1.4,4.5-2.3c2.3-0.9,3.2-0.5,3.2,1.8C410.1,464.4,408.8,472.6,402.9,479.4z M454.3,400.1c-0.9,0.5-1.4,0-1.8-0.5c-3.6-3.2-6.3-7.2-8.2-12c-2.7-5.4-3.6-12-4.1-17.9c0-6.8,1.4-13.4,4.5-19.3c0.5-1.4,0.9-1.4,1.8,0c1.8,4.1,4.5,7.7,7.2,11.6c0.5,0.9,0.9,1.8,0.9,2.7c-1.8,4.1-2.3,8.6-2.7,12.9c0,0.5,0,1.4-0.9,1.4c-0.9,0-0.9-0.5-1.4-1.4c-1.8-4.1-2.7-8.2-2.7-12.9c0-1.4,0-2.7,0-4.5c0-0.5,0-1.4-0.9-1.4c-0.5,0-0.9,0.5-0.9,0.9c-1.4,5.9-1.4,12,0.5,18.3c1.4,5,4.1,9.7,6.8,13.8c1.4,2.3,1.4,4.5,2.3,6.8C455.2,399.6,454.8,400.1,454.3,400.1z M454.8,288.2c-3.2-5.4-5.9-11.1-6.8-17.4c-0.5-2.3,0-4.5,0-6.8c0-1.4,0.9-1.8,2.3-0.9c3.6,2.3,7.2,4.5,10.6,7.2c1.4,1.4,1.8,3.2,1.8,5s0,3.6,0,5.4c0,0.5,0,0.9-0.5,1.4c-0.5,0-0.9-0.5-1.4-0.5c-2.7-2.3-4.5-5-6.3-7.7c0,0-0.5-0.5-0.5-0.9c-0.5-0.5-0.5-1.4-1.4-0.9s-0.5,0.9-0.5,1.4c0.9,5.4,3.6,10.2,6.8,14.7c0.9,1.4,2.3,2.3,3.2,3.6c2.3,1.8,2.3,5,3.2,7.7C460.7,296.8,457.5,292.7,454.8,288.2z M471.5,394.2c-0.5,0.5-0.5,1.4-1.4,0.9c-0.5-0.5-0.5-0.9-0.5-1.8c0.9-5,0.5-10.2,0.5-15.6c0-4.5,0-9.3-0.5-13.8c0-1.4,0.5-2.7,0.5-4.5c0-0.5,0-1.4-0.5-1.4c-0.9,0-0.9,0.5-1.4,0.9c-0.5,1.4-1.4,2.7-1.4,4.5c0,4.1-0.9,7.7-0.5,11.6c0,6.8,0,12.9-1.8,19.3c-0.5,1.8-1.8,3.6-3.2,5c-0.9,0.9-0.9,0-1.4-0.5c-1.4-2.3-1.8-5.4-2.3-8.2c-0.9-5.4-1.4-11.1-1.4-16.5c0.5-7.2,3.2-13.8,8.2-19.7c2.3-2.3,4.1-5,5.4-7.7c1.4-2.3,2.3-2.3,3.2,0c2.3,4.1,3.6,8.2,4.1,12.9c0.5,3.6,0.9,6.8,0.9,10.6c0,5.9-1.8,12-4.1,17.4C474.5,390.1,473.6,392.4,471.5,394.2z M491.5,357.5c0.9-1.4,2.3-0.5,2.3,0.9c1.4,8.6,1.4,17-2.7,24.7c-2.3,4.5-5.9,7.7-9.3,11.1c-1.4,1.4-2.7,2.3-4.1,3.2c-0.5,0-0.9,0.5-1.4,0.5c-0.5-0.5,0-0.9,0.5-1.4c2.3-3.2,5-6.3,7.2-9.7c4.1-5.9,6.8-12.5,6.8-19.7c0-0.9,0.5-2.3-0.5-2.3c-1.4,0-1.4,1.4-1.4,2.3c-0.9,3.2-2.7,6.3-4.5,9.3c0-2.3,0-4.1,0-6.3C483.5,364.3,488.1,361.1,491.5,357.5z M486.7,311.5c-0.9-1.4,0-2.7,0-4.1c0.5-5-0.9-10.2-2.3-15.2c-1.8-6.3-4.5-12.9-5.9-19.3c0-0.9,0-1.4-0.5-2.3c0-0.5,0-1.4-0.9-0.9c-0.5,0-0.5,0.9-0.5,1.4c0,2.7-0.5,5.9,0.5,8.6c1.8,6.3,3.2,12.9,4.1,19.7c0.5,3.2,0.5,6.8-0.9,10.2c-1.4,2.3-1.8,2.3-3.2,0c-3.6-5-5.9-11.1-7.7-17c-1.8-7.2-2.7-14.7-1.8-22.4c0.5-6.3,2.7-12.5,6.3-17.9c0.5-0.9,0.9-1.4,1.4,0c2.3,5,5.4,9.7,9.3,13.8c4.5,5.4,6.8,11.1,6.8,18.3c0,3.2,0.9,5.9,0.9,9.3C491.5,299.7,490.6,305.6,486.7,311.5z M502.8,295.9c-0.9,1.4-1.8,2.3-2.7,3.2c0.9-3.2,0.9-5.9,1.8-9.3c0-1.4,0.5-2.7,0-4.1c0-5.4,0.5-11.1,1.4-16.5c0-0.5,0.5-1.8-0.5-1.8c-0.9,0-0.9,0.9-1.4,1.4c-0.9,4.1-1.4,8.6-1.8,12.9c-0.5,1.8-0.9,3.6-1.8,5.4c-1.4-1.4-0.9-3.2-0.9-5c-0.5-3.2-1.4-5.9-1.8-9.3c-0.5-1.4,0-2.7,0.5-4.1c2.3-3.6,5.4-6.8,8.6-10.2c0.9-0.9,1.4-0.5,1.8,0.5c0.9,1.8,0.9,3.2,0.9,5C508.2,275.2,508.2,285.9,502.8,295.9z"/>
	<path class="c0" d="M157.8,128.9c-1.4,0-2.3,1.4-1.8,2.7c0.9,1.8,1.8,4.1,3.2,5.9c1.4,1.8,2.7,4.1,5.4,5c2.3,0.9,5.4-0.9,5.4-3.2v-0.5C169.8,134.3,161.9,128.9,157.8,128.9z"/>
	<path class="c0" d="M344.9,143.2c2.7-0.5,4.5-1.4,5.9-3.6c1.8-2.3,2.7-4.5,4.1-7.2c0.5-0.9,0.5-1.8,0-2.3c-0.5-0.9-1.4-0.9-2.3-0.5c-4.5,1.4-8.6,3.6-11.1,8.2C339.9,140.5,341.3,143.2,344.9,143.2z"/>
	<path class="c0" d="M252.7,99.5c1.4,2.3,4.1,2.3,5.4,0c2.3-3.6,1.4-7.2-0.5-11.1c-0.5-0.9-0.9-1.8-2.3-1.8c-1.4,0-2.3,0.9-2.7,1.8c-0.9,1.8-1.8,3.6-1.4,5.9C250.9,96.3,251.8,98.1,252.7,99.5z"/>
	<path class="c0" d="M259.3,113.3c0.5,0.9,1.4,1.4,2.3,0.9c2.3-0.9,5.4-4.5,5.4-6.8c0-2.7-1.4-4.5-3.6-4.5c-0.5,0-1.4,0-1.8,0.5C258.8,104.7,257.5,110.6,259.3,113.3z"/>
	<path class="c0" d="M251.8,112.4c0.5-0.9,0.5-1.4,0.5-2.3c0-1.8-0.5-3.6-1.4-5.4c-0.9-1.4-2.3-2.7-4.1-2.3c-1.8,0.5-2.7,1.8-2.7,3.6c-0.5,3.2,1.4,5.4,4.1,7.2C250,114.6,250.9,114.6,251.8,112.4z"/>
	<path class="c0" d="M202,122.1c0,1.4,0,2.7,0.9,3.6c0.9,1.4,1.8,2.3,3.6,2.3c1.8,0,2.3-1.8,2.3-3.2c0.5-1.4,0-3.2-0.5-4.5c-0.9-1.8-2.7-3.2-4.1-3.2C202,118.5,202,119.8,202,122.1L202,122.1z"/>
	<path class="c0" d="M304.6,128.4c1.4,0,2.7-0.9,3.2-2.3c0.5-0.9,0.9-2.3,0.9-3.6c0-0.9,0-1.4,0-2.3c-0.5-0.9-0.9-2.3-1.8-2.7c-1.4-0.5-2.3,0.5-2.7,1.4c-1.8,1.8-1.8,4.1-1.4,6.3C302.8,126.6,303.2,128,304.6,128.4z"/>
	<path class="c0" d="M246.8,158.4c2.7,1.8,5.4,2.3,10.2,2.3c1.8,0,4.5-0.5,6.8-2.3c2.3-1.8,2.7-4.1,0.9-6.3c-3.6-4.1-13.8-4.5-17.9-0.5C244.1,153.1,244.5,156.5,246.8,158.4z"/>
	<path class="c0" d="M299.6,163.3c3.6,2.7,7.7,3.6,12.5,3.2c4.1-0.5,6.3-5,3.6-8.2c-2.7-3.6-6.8-4.5-11.1-4.5c-0.5,0-1.4,0-1.8,0c-1.8,0.5-4.1,0.9-5,3.2C296.9,159.3,297.8,162,299.6,163.3z"/>
	<path class="c0" d="M200.6,166.5c4.1,0,7.2-0.9,10.6-2.7c1.8-1.4,2.3-3.2,2.3-5.4c0-1.8-1.4-3.2-3.2-4.1c-4.1-1.8-11.6,0-14.3,3.2c-1.8,1.8-2.3,4.1-0.9,6.3S198.6,166.5,200.6,166.5z"/>
	<path class="c0" d="M281.7,162.4c3.6,0,6.8-2.7,6.8-6.3c0-4.1-2.7-6.8-6.8-6.8c-2.7,0-6.8,3.6-6.8,6.3C274.4,158.8,278.1,162.4,281.7,162.4z M282.1,152.2c1.4,0,2.3,0.9,2.3,2.7c0,1.8-0.9,3.2-2.3,3.2c-0.9,0-3.2-2.3-3.2-3.2C279,154,280.8,152.2,282.1,152.2z"/>
	<path class="c0" d="M330.9,172.6c3.6,0,6.3-3.2,6.3-6.8c0-4.1-2.3-6.3-6.8-6.3c-3.6,0-5.9,2.7-5.9,6.3C323.8,170.6,327.7,172.6,330.9,172.6z M330.4,163.3c1.4,0,3.2,1.4,3.2,2.7s-1.4,2.7-3.2,2.7c-1.4,0-2.3-0.9-2.7-2.7C327.7,164.7,329,163.3,330.4,163.3z"/>
	<path class="c0" d="M229.4,162.4c3.2,0,6.3-3.2,6.3-5.9c0-5-2.3-7.7-6.8-7.7c-3.6,0-5.9,2.7-5.9,6.3C222.6,159.3,225.3,162.4,229.4,162.4z M228.9,152.2c1.8,0,3.2,1.8,3.2,3.2c0,1.4-1.4,2.7-3.2,2.7c-1.8,0-3.6-1.8-3.6-3.6C225.7,153.6,227.5,152.2,228.9,152.2z"/>
	<path class="c0" d="M180.7,171.9c3.2,0.5,6.3-2.7,6.3-6.3s-3.2-6.8-6.8-6.8s-6.3,2.7-6.3,6.3C173.9,169.2,177.5,172.6,180.7,171.9z M180.7,162.4c1.8,0,2.7,1.4,3.2,3.2c0,1.8-1.4,2.7-3.2,3.2c-1.4,0-3.2-1.4-3.6-2.7C177,164.2,178.8,162.4,180.7,162.4z"/>
	<path class="c0" d="M97.7,224.7c0.9,5,1.4,10.6,0.9,15.6c0,2.7-0.5,2.7,2.3,2.7c6.3,0,12.5,0,18.8,0c0.5,0,0.5,0,0.9,0l0,0l0,0l0,0l0,0c0.5,0,0.5,0,0.9,0c6.3,0,12.5,0,18.8,0c2.7,0,2.3,0,2.3-2.7c-0.5-5,0-10.6,0.9-15.6c0.9-5.9,3.2-11.6,5.9-16.5c0.5-0.9,0.9-1.8,0-2.3c-0.9-0.9-1.8-0.5-2.3,0c-5,1.8-9.7,4.5-14.3,7.2c-2.3,1.4-2.7,1.4-4.1-0.9c-1.8-3.2-3.6-5.9-5.9-8.6c-0.9-0.9-1.4-1.4-2.3-1.4c-0.9,0-1.4,0.5-2.3,1.4c-2.3,2.7-4.1,5.9-5.9,8.6c-1.4,2.3-1.8,2.3-4.1,0.9c-4.5-2.7-9.3-5.4-14.3-7.2c-0.9-0.5-1.8-0.9-2.3,0c-0.9,0.9,0,1.8,0,2.3C94.6,213.4,96.8,218.8,97.7,224.7z"/>
	<path class="c0" d="M399.5,212c-1.8-3.2-3.6-5.9-5.9-8.6c-0.9-0.9-1.4-1.4-2.3-1.4c-0.9,0-1.4,0.5-2.3,1.4c-2.3,2.7-4.1,5.9-5.9,8.6c-1.4,2.3-1.8,2.3-4.1,0.9c-4.5-2.7-9.3-5.4-14.3-7.2c-0.9-0.5-1.8-0.9-2.3,0c-0.9,0.9,0,1.8,0,2.3c2.3,5.4,5,10.6,5.9,16.5c0.9,5,1.4,10.6,0.9,15.6c0,2.7-0.5,2.7,2.3,2.7c6.3,0,12.5,0,18.8,0c0.5,0,0.5,0,0.9,0l0,0l0,0l0,0l0,0c0,0,0.5,0,0.9,0c6.3,0,12.5,0,18.8,0c2.7,0,2.3,0,2.3-2.7c-0.5-5,0-10.6,0.9-15.6c0.9-5.9,3.6-11.6,5.9-16.5c0.5-0.9,0.9-1.8,0-2.3c-0.9-0.9-1.8-0.5-2.3,0c-5,1.8-9.7,4.5-14.3,7.2C401.5,214.8,401.1,214.3,399.5,212z"/>
</svg>