<svg clip-rule="evenodd" fill-rule="evenodd" stroke-linejoin="round" stroke-miterlimit="1.41421" viewBox="0 0 100 98" xmlns="http://www.w3.org/2000/svg"><path d="m28 16.297c0 5.15-3.315 9.751-8.199 11.382-.609.117-.826-.256-.826-.577 0-.393.015-1.687.015-3.291.062-.823-.236-1.634-.815-2.222 2.674-.297 5.479-1.311 5.479-5.92.019-1.191-.423-2.345-1.233-3.219.366-1.035.323-2.171-.119-3.175-.443-1.005-1.006-.323-3.297 1.23-1.967-.539-4.042-.539-6.008 0-2.293-1.553-3.3-1.23-3.3-1.23-.442 1.004-.484 2.14-.118 3.175-.81.874-1.253 2.027-1.235 3.219 0 4.598 2.801 5.627 5.466 5.93-.437.426-.707.995-.762 1.604-.383.215-.814.328-1.253.328-.931 0-1.791-.509-2.239-1.325-.389-.674-1.068-1.13-1.838-1.237-.771-.106-1.172-.015-.083.73.639.407 1.112 1.03 1.332 1.755.221.725.705 2.333 4.043 1.608.006 1.001.016 1.756.016 2.04 0 .318-.219.689-.819.579-4.887-1.629-8.205-6.232-8.205-11.383 0-6.583 5.417-11.999 11.999-11.999s11.999 5.416 11.999 11.998z" fill="#fff" transform="matrix(4.16709 0 0 4.16709 -16.6786 -17.9135)"/></svg>