<svg xmlns="http://www.w3.org/2000/svg" viewBox="0 0 17 17"><path d="M15.23,0H1.77A1.78,1.78,0,0,0,0,1.77V15.23A1.78,1.78,0,0,0,1.77,17H15.23A1.78,1.78,0,0,0,17,15.23V1.77A1.78,1.78,0,0,0,15.23,0ZM13.56,6.31c0,.11,0,.22,0,.33A7.22,7.22,0,0,1,2.45,12.72a5.19,5.19,0,0,0,.61,0,5.1,5.1,0,0,0,3.15-1.09A2.54,2.54,0,0,1,3.84,9.91a2.48,2.48,0,0,0,.48,0A2.6,2.6,0,0,0,5,9.86a2.54,2.54,0,0,1-2-2.49v0a2.5,2.5,0,0,0,1.15.32,2.54,2.54,0,0,1-.79-3.39A7.21,7.21,0,0,0,8.54,6.92a2.54,2.54,0,0,1,4.33-2.32A5.07,5.07,0,0,0,14.48,4a2.54,2.54,0,0,1-1.12,1.4A5,5,0,0,0,14.83,5,5.19,5.19,0,0,1,13.56,6.31Z" style="fill:#fff"/></svg>