<svg viewBox="0 0 133.76 339.92" xmlns="http://www.w3.org/2000/svg"><path d="m83.57 105.2v-35.06a16.68 16.68 0 0 1 4.9-11.82l32.77-32.76a6.69 6.69 0 0 0 0-9.46l-14.19-14.1a6.68 6.68 0 0 0 -9.44 0l-32.77 32.68a50.12 50.12 0 0 0 -14.69 35.46v35.06m0 0a66.89 66.89 0 0 0 .25 129.58l-.25-.06v2.1 33a16.65 16.65 0 0 1 -4.9 11.82l-32.76 32.72a6.69 6.69 0 0 0 0 9.46l14.19 14.18a6.68 6.68 0 0 0 9.45 0l32.76-32.8a49.79 49.79 0 0 0 14.69-35.46v-32.91-2.11l-.29.07a66.88 66.88 0 0 0 .29-129.59" fill="#5fc1c8"/><circle cx="66.86" cy="169.96" fill="#fff" r="33.43"/></svg>