<svg clip-rule="evenodd" fill-rule="evenodd" stroke-linejoin="round" stroke-miterlimit="2" viewBox="0 0 99 19" xmlns="http://www.w3.org/2000/svg"><g fill-rule="nonzero" transform="translate(-1.976 -5.432)"><path d="m1.976 5.436h6.422c1.352 0 2.461.13 3.328.39.867.243 1.551.589 2.054 1.04.52.433.875.953 1.066 1.56.191.589.286 1.222.286 1.898 0 .78-.173 1.508-.52 2.184-.347.659-.979 1.205-1.898 1.638.589.26 1.075.555 1.456.884s.685.685.91 1.066c.225.364.381.754.468 1.17.087.399.13.806.13 1.222 0 .763-.121 1.482-.364 2.158-.225.676-.607 1.265-1.144 1.768-.537.485-1.239.875-2.106 1.17-.867.277-1.933.416-3.198.416h-6.89zm6.786 7.618c1.231 0 2.089-.225 2.574-.676s.728-1.101.728-1.95c0-.884-.286-1.517-.858-1.898-.555-.399-1.525-.598-2.912-.598h-3.276v5.122zm0 8.424c.745 0 1.361-.069 1.846-.208.503-.139.893-.338 1.17-.598.295-.26.503-.572.624-.936s.182-.771.182-1.222c0-.936-.269-1.647-.806-2.132-.52-.503-1.43-.754-2.73-.754h-4.03v5.85zm13.069-10.998v2.002c.468-.711 1.031-1.257 1.69-1.638s1.361-.572 2.106-.572c.295 0 .537.009.728.026.208.017.407.043.598.078l-.338 2.704c-.191-.052-.399-.087-.624-.104s-.459-.026-.702-.026c-.555 0-1.04.095-1.456.286-.416.173-.771.407-1.066.702-.277.295-.494.633-.65 1.014-.139.364-.208.737-.208 1.118v7.93h-2.938v-13.52zm13.5 11.544c1.248 0 2.158-.425 2.73-1.274.589-.867.884-2.045.884-3.536 0-1.473-.295-2.635-.884-3.484-.572-.849-1.482-1.274-2.73-1.274s-2.167.433-2.756 1.3c-.572.849-.858 2.002-.858 3.458 0 1.473.277 2.643.832 3.51.572.867 1.499 1.3 2.782 1.3zm-.026 2.392c-2.115 0-3.753-.624-4.914-1.872s-1.742-3.016-1.742-5.304c0-1.075.147-2.054.442-2.938.312-.884.754-1.638 1.326-2.262s1.274-1.109 2.106-1.456 1.777-.52 2.834-.52c1.075 0 2.028.182 2.86.546.832.347 1.525.832 2.08 1.456.572.624.997 1.378 1.274 2.262.295.867.442 1.82.442 2.86 0 1.179-.165 2.219-.494 3.12-.329.884-.797 1.638-1.404 2.262-.589.607-1.291 1.066-2.106 1.378s-1.716.468-2.704.468zm13.166-13.936v1.976c.606-.832 1.282-1.439 2.028-1.82.762-.381 1.577-.572 2.444-.572 3.016 0 4.524 1.664 4.524 4.992v8.944h-2.964v-8.476c0-1.092-.2-1.855-.598-2.288-.399-.451-.988-.676-1.768-.676-.52 0-1.006.095-1.456.286-.434.173-.806.416-1.118.728s-.564.676-.754 1.092c-.174.399-.26.823-.26 1.274v8.06h-2.938v-13.52zm19.267 2.34h-7.072v-2.34h10.79v2.08l-7.202 9.1h7.566l-.338 2.34h-10.972v-2.08zm18.683 7.176c-.243 1.404-.841 2.496-1.794 3.276-.954.763-2.323 1.144-4.108 1.144-2.15 0-3.788-.615-4.914-1.846-1.11-1.248-1.664-2.999-1.664-5.252 0-1.161.156-2.193.468-3.094.329-.901.78-1.655 1.352-2.262.589-.624 1.282-1.092 2.08-1.404.814-.329 1.707-.494 2.678-.494 1.04 0 1.941.165 2.704.494.762.312 1.395.763 1.898 1.352.502.572.875 1.265 1.118 2.08.242.797.364 1.69.364 2.678v1.3h-9.698c.034 1.231.346 2.227.936 2.99.589.763 1.482 1.144 2.678 1.144.936 0 1.638-.182 2.106-.546s.78-.884.936-1.56zm-2.704-4.082c0-1.109-.26-1.985-.78-2.626s-1.352-.962-2.496-.962c-1.092 0-1.924.329-2.496.988-.572.641-.902 1.508-.988 2.6z" fill="#171717"/><path d="m96.108 5.432 1.416 3.672 1.44-3.672h1.176v4.8h-.9v-3.312l-1.308 3.312h-.828l-1.308-3.3v3.3h-.9v-4.8zm-5.892.876v-.876h4.056v.876h-1.536v3.924h-.984v-3.924z"/></g></svg>