<svg clip-rule="evenodd" fill-rule="evenodd" stroke-linejoin="round" stroke-miterlimit="2" viewBox="0 0 73 48" xmlns="http://www.w3.org/2000/svg"><path d="m2292.86 904.001h33.14v65.605c0 9.904 0 14.856-1.68 20.186-2.12 5.82-6.71 10.408-12.53 12.528-5.33 1.68-10.28 1.68-20.18 1.68h-14.02c-14.85 0-22.28 0-30.28 2.53-8.73 3.18-15.6 10.05-18.78 18.78-2.53 8-2.53 15.43-2.53 30.28v148.41c-27.61-.01-41.96-.18-57.37-5.06-17.46-6.35-31.22-20.1-37.57-37.56-5.06-16-5.06-30.85-5.06-60.56v-24.84c0-49.52 0-74.28 8.43-100.936 10.59-29.101 33.51-52.024 62.61-62.616 25.72-8.132 49.68-8.417 95.82-8.427z" fill="#1ed8b9" transform="matrix(-.116841 -.116841 .116841 -.116841 184.924 408.903)"/><path d="m2292.86 904.001h33.14v65.605c0 9.904 0 14.856-1.68 20.186-2.12 5.82-6.71 10.408-12.53 12.528-5.33 1.68-10.28 1.68-20.18 1.68h-14.02c-14.85 0-22.28 0-30.28 2.53-8.73 3.18-15.6 10.05-18.78 18.78-2.53 8-2.53 15.43-2.53 30.28v148.41c-27.61-.01-41.96-.18-57.37-5.06-17.46-6.35-31.22-20.1-37.57-37.56-5.06-16-5.06-30.85-5.06-60.56v-24.84c0-49.52 0-74.28 8.43-100.936 10.59-29.101 33.51-52.024 62.61-62.616 25.72-8.132 49.68-8.417 95.82-8.427z" fill="#4769d5" transform="matrix(.116841 .116841 -.116841 .116841 -112.324 -361.703)"/></svg>