<svg clip-rule="evenodd" fill-rule="evenodd" stroke-linejoin="round" stroke-miterlimit="1.41421" viewBox="0 0 92 100" xmlns="http://www.w3.org/2000/svg"><g fill="#fff" fill-rule="nonzero"><path d="m0-40.453c0-25.054-13.367-48.206-35.065-60.735l-224.216-129.451c-3.702-2.136-7.559-3.88-11.503-5.289v285.137l270.784 146.266z" transform="matrix(.155003 0 0 .155003 91.249 36.5711)"/><path d="m0-305.456v6.263h-.245c-4.043 62.082-55.808 111.362-118.893 111.362-34.664 0-65.909-14.887-87.705-38.591l-.232.134-105.851 64.076c.786 1.041 1.626 2.069 2.56 3.072 5.888 6.33 14.407 11.858 21.887 16.079l3.241 1.829 242.028 136.607c.486.275.984.52 1.48.772l3.109 1.44c4.892 1.988 10.104 2.99 15.32 2.996.008 0 .017.001.025.001-.008 0-.017-.001-.026-.001.013 0 .026.002.038.002h.001c5.228 0 10.454-1.004 15.358-2.998l1.35-.595c1.097-.494 2.182-1.021 3.239-1.617l242.028-136.607 3.242-1.829c7.679-4.334 16.446-10.452 22.345-17.086.637-.718 1.227-1.444 1.791-2.172l-266.074-143.722c-.007.194-.013.39-.016.585" transform="matrix(.155003 0 0 .155003 49.2302 99.9093)"/><path d="m0 244.976c0-65.716 53.463-119.179 119.177-119.179 27.189 0 52.264 9.171 72.34 24.556v-242.932c-.702.25-1.4.512-2.094.784-.361.141-.728.259-1.086.407-2.849 1.174-5.64 2.543-8.352 4.109l-194.03 112.024-30.184 17.426c-1.076.621-2.093 1.312-3.127 1.983-10.374 6.743-18.664 15.965-24.174 26.677-.866 1.683-1.663 3.402-2.392 5.152-.062.151-.112.309-.174.461-.813 1.994-1.513 4.036-2.142 6.104-.588 1.938-1.07 3.912-1.493 5.904-1.003 4.702-1.564 9.535-1.564 14.455v234.648l86.369-52.283c-4.548-12.598-7.074-26.151-7.074-40.296" transform="matrix(.155003 0 0 .155003 12.2909 14.35)"/><path d="m0 .001c0 39.931 32.369 72.3 72.3 72.3 39.93 0 72.3-32.369 72.3-72.3s-32.37-72.301-72.3-72.301c-39.931 0-72.3 32.37-72.3 72.301" transform="matrix(.155003 0 0 .155003 19.5013 52.3219)"/></g></svg>