<svg clip-rule="evenodd" fill-rule="evenodd" stroke-linejoin="round" stroke-miterlimit="1.41421" viewBox="0 0 100 100" xmlns="http://www.w3.org/2000/svg"><path d="m16 27.984c-6.568-.009-11.968-5.416-11.968-11.984 0-6.574 5.41-11.984 11.984-11.984s11.984 5.41 11.984 11.984c-.012 6.576-5.424 11.981-12 11.984zm10.12-10.344c-2.072-.601-4.249-.75-6.384-.437.871 2.371 1.537 4.813 1.991 7.298 2.348-1.581 3.939-4.066 4.393-6.861zm-6.116 7.798c-.481-2.651-1.214-5.25-2.187-7.762l-.067.023c-5.782 2.012-7.857 6.015-8.041 6.392 2.929 2.28 6.877 2.797 10.295 1.347zm-11.619-2.578c1.933-3.129 4.871-5.511 8.332-6.755.133-.043.268-.084.404-.122-.258-.581-.538-1.163-.831-1.737-3.426.979-6.972 1.469-10.535 1.457-.003.104-.005.208-.005.313-.002 2.528.938 4.969 2.635 6.844zm-2.418-8.941c3.198-.018 6.381-.437 9.476-1.247-1.16-2.04-2.429-4.016-3.801-5.92-2.906 1.369-5.009 4.024-5.675 7.167zm7.631-7.855c1.404 1.912 2.681 3.914 3.825 5.992 2.107-.692 3.973-1.975 5.372-3.697-2.505-2.22-5.943-3.078-9.197-2.295zm10.336 3.479c-1.524 1.82-3.497 3.211-5.723 4.036.238.487.467.983.68 1.482.075.177.149.353.22.528 2.383-.247 4.788-.136 7.138.33-.02-2.327-.837-4.579-2.315-6.376z" fill="#fff" fill-rule="nonzero" transform="matrix(4.17223 0 0 4.17223 -16.8224 -16.7557)"/></svg>