<svg clip-rule="evenodd" fill-rule="evenodd" stroke-linejoin="round" stroke-miterlimit="1.41421" viewBox="0 0 100 101" xmlns="http://www.w3.org/2000/svg"><path d="m28 5.325v21.351c0 .726-.598 1.324-1.325 1.324h-6.115v-9.294h3.119l.467-3.622h-3.586v-2.313c0-1.048.291-1.763 1.795-1.763l1.918-.001v-3.239c-.929-.099-1.862-.146-2.795-.143-2.766 0-4.659 1.688-4.659 4.788v2.671h-3.128v3.622h3.128v9.294h-11.494-.001c-.726 0-1.324-.598-1.324-1.324v-21.351s0 0 0-.001c0-.726.598-1.324 1.324-1.324h21.351c.727 0 1.325.598 1.325 1.325z" fill="#fff" fill-rule="nonzero" transform="matrix(4.16667 0 0 4.16667 -16.6664 -16.667)"/></svg>