<svg clip-rule="evenodd" fill-rule="evenodd" stroke-linejoin="round" stroke-miterlimit="1.41421" viewBox="0 0 100 100" xmlns="http://www.w3.org/2000/svg"><path d="m16 6.162c3.204 0 3.584.012 4.849.07.761.009 1.515.149 2.228.413 1.046.404 1.874 1.232 2.278 2.278.264.713.404 1.467.413 2.228.058 1.265.07 1.645.07 4.849s-.012 3.584-.07 4.849c-.009.761-.149 1.515-.413 2.228-.404 1.046-1.232 1.874-2.278 2.278-.713.264-1.467.404-2.228.413-1.265.058-1.645.07-4.849.07s-3.584-.012-4.849-.07c-.761-.009-1.515-.149-2.228-.413-1.046-.404-1.874-1.232-2.278-2.278-.264-.713-.404-1.467-.413-2.228-.058-1.265-.07-1.645-.07-4.849s.012-3.584.07-4.849c.009-.761.149-1.515.413-2.228.404-1.046 1.232-1.874 2.278-2.278.713-.264 1.467-.404 2.228-.413 1.265-.058 1.645-.07 4.849-.07m0-2.162c-3.259 0-3.668.014-4.948.072-.995.02-1.98.209-2.912.558-1.612.623-2.887 1.898-3.51 3.51-.349.932-.538 1.917-.558 2.912-.058 1.28-.072 1.689-.072 4.948s.014 3.668.072 4.948c.02.995.209 1.98.558 2.912.623 1.612 1.898 2.887 3.51 3.51.932.349 1.917.538 2.912.558 1.28.058 1.689.072 4.948.072s3.668-.014 4.948-.072c.995-.02 1.98-.209 2.912-.558 1.612-.623 2.887-1.898 3.51-3.51.349-.932.538-1.917.558-2.912.058-1.28.072-1.689.072-4.948s-.014-3.668-.072-4.948c-.02-.995-.209-1.98-.558-2.912-.623-1.612-1.898-2.887-3.51-3.51-.932-.349-1.917-.538-2.912-.558-1.28-.058-1.689-.072-4.948-.072zm0 5.838c-3.38 0-6.162 2.782-6.162 6.162s2.782 6.162 6.162 6.162 6.162-2.782 6.162-6.162-2.782-6.162-6.162-6.162zm0 10.162c-2.194 0-4-1.806-4-4s1.806-4 4-4 4 1.806 4 4-1.806 4-4 4zm6.406-11.846c-.79 0-1.44.65-1.44 1.44s.65 1.44 1.44 1.44 1.44-.65 1.44-1.44-.65-1.44-1.44-1.44z" fill="#fff" fill-rule="nonzero" transform="matrix(4.16667 0 0 4.16667 -16.6667 -16.6667)"/></svg>