<svg clip-rule="evenodd" fill-rule="evenodd" stroke-linejoin="round" stroke-miterlimit="1.41421" viewBox="0 0 93 100" xmlns="http://www.w3.org/2000/svg"><path d="m1.49 16.51-.4-.89-.09-.38-.45.49-.45.49v-.94c-.068-1.24.023-2.483.27-3.7.561-2.246 2.058-4.147 4.11-5.22l.47-.22-.11-.34c-.081-.26-.134-.529-.16-.8v-.47h-.47c-.588.042-1.142-.291-1.38-.83-.13-.27-.13-.31-.09-1 0-.94.11-1.14.4-1.45s.61-.49 1.5-.45c.367-.014.733.055 1.07.2.18.09.33.18.36.18.17-.18.324-.374.46-.58l.47-.6.27.16.38.24.16.09-.14.34c-.078.211-.138.429-.18.65v.31h.38c1.274.101 2.36.983 2.72 2.21.111.514.111 1.046 0 1.56-.11.36-.11.38 0 .38.57.201 1.116.463 1.63.78.898.615 1.678 1.387 2.3 2.28.993 1.433 1.437 3.177 1.25 4.91-.061.943-.281 1.87-.65 2.74l-.12.35h-1.13l.27-.54c.306-.667.515-1.374.62-2.1.066-.688.066-1.382 0-2.07v-.16l-.29.31c-.844.805-2.085 1.048-3.17.62-.917-.275-1.873-.403-2.83-.38-.547-.031-1.095.012-1.63.13-1.268.275-2.457.832-3.48 1.63-.47.33-.85.6-.87.6.023-.175.066-.346.13-.51.09-.29.25-.76.33-1.07l.18-.56-.2.2c-.11.11-.42.42-.69.71l-.47.51.11.42c.166.624.43 1.218.78 1.76.09.162.17.329.24.5-.193.02-.387.02-.58 0h-.58l-.25-.47zm2-5.4c1.04-1.11 1.91-2.05 1.93-2.05-.047.252-.114.499-.2.74-.74 2.32-.89 2.77-.87 2.79l.56-.2c2.051-.836 4.328-.945 6.45-.31 1 .27 1.45.27 2 0 .227-.093.416-.259.54-.47.238-.433.274-.948.1-1.41-.688-1.364-1.831-2.447-3.23-3.06-.77-.31-.77-.31-.96-.14l-.13.13.58.71c.252.286.482.59.69.91.145.317.145.683 0 1-.225.406-.681.631-1.14.56-.18 0-.25 0-.42.11-.176.137-.392.211-.615.211-.349 0-.674-.182-.855-.481-.288-.254-.458-.616-.47-1-.003-.185-.04-.368-.11-.54-.068-.154-.099-.322-.09-.49v-.31l-.25-.11c-.407-.116-.792-.298-1.14-.54-.089-.066-.187-.12-.29-.16-.224.08-.441.177-.65.29-2.119 1.078-3.549 3.165-3.79 5.53 0 .22 0 .51-.07.62v.2l.25-.25c.11-.11 1.09-1.14 2.16-2.28zm5.74-1.65c.127-.114.268-.212.42-.29s.09.07.16.16c.036.078.114.128.2.128s.164-.05.2-.128c.07-.11.07-.13-1.25-1.74-.78-1-.94-1.12-1-1.12-.27 0-.2.22.22.74l.4.49-.22.18c-.25.22-.27.27-.11.4s.13.09.36-.07l.25-.16.14.16c.064.05.11.121.13.2s-.18.2-.38.38c-.147.098-.27.228-.36.38.067.183.173.35.31.49.07.13.18.09.56-.2zm-2.29-3.17c.162-.414.556-.693 1-.71.331.03.641.179.87.42l.19.31.2-.25c.555-.623.629-1.546.18-2.25-.411-.61-1.095-.983-1.83-1-.313.027-.621-.096-.83-.33l-.18-.18-.09.13c-.263.471-.487.962-.67 1.47-.146.57-.108 1.173.11 1.72.2.38.74.89.89.83s.07-.07.11-.18zm-2-3c0-.11.16-.4.27-.62.09-.16.157-.332.2-.51 0-.2-.22-.29-.83-.33s-.58 0-.69.09c-.092.096-.14.227-.13.36v.58c0 .47 0 .56.49.62.66 0 .63 0 .7-.22zm-.69-.54c0-.38 0-.42.36-.42h.29v.62h-.62v-.2zm1.41 13c-.13-.111-.198-.28-.18-.45-.003-.024-.004-.048-.004-.072 0-.33.27-.6.6-.6.018 0 .036 0 .054.002.027-.003.054-.005.08-.005.357 0 .65.293.65.65s-.293.65-.65.65c-.026 0-.053-.002-.08-.005-.17.018-.339-.05-.45-.18zm4.34.05c-.172-.122-.274-.32-.274-.53 0-.357.293-.65.65-.65h.024c.011-.001.021-.001.032-.001.34 0 .62.28.62.62 0 .017-.001.034-.002.051 0 .25 0 .31-.18.45-.113.128-.28.194-.45.18-.149.007-.297-.036-.42-.12z" fill="#fff" fill-rule="nonzero" transform="matrix(5.87705 0 0 5.87705 -.459427 0)"/></svg>