<svg clip-rule="evenodd" fill-rule="evenodd" stroke-linejoin="round" stroke-miterlimit="1.41421" viewBox="0 0 100 100" xmlns="http://www.w3.org/2000/svg"><path d="m26.224 4h-20.453c-.96-.011-1.759.77-1.771 1.73v20.538c.011.961.811 1.742 1.771 1.732h20.453c.962.011 1.763-.77 1.776-1.732v-20.538c-.014-.962-.815-1.742-1.776-1.73zm-15.106 20.451h-3.56v-11.453h3.56zm-1.779-13.019h-.001c-1.132 0-2.064-.932-2.064-2.064s.932-2.064 2.064-2.064 2.063.932 2.064 2.063c0 1.132-.931 2.064-2.063 2.065zm15.112 13.019h-3.557v-5.57c0-1.328-.025-3.037-1.85-3.037-1.853 0-2.136 1.447-2.136 2.941v5.666h-3.557v-11.453h3.414v1.565h.048c.694-1.189 1.992-1.902 3.368-1.85 3.604 0 4.27 2.372 4.27 5.456z" fill="#fff" fill-rule="nonzero" transform="matrix(4.16661 0 0 4.16661 -16.6658 -16.6659)"/></svg>