<svg clip-rule="evenodd" fill-rule="evenodd" stroke-linejoin="round" stroke-miterlimit="1.41421" viewBox="0 0 100 100" xmlns="http://www.w3.org/2000/svg"><path d="m16 4c-6.583 0-12 5.417-12 12s5.417 12 12 12 12-5.417 12-12c0-6.583-5.417-12-12-12zm5.503 17.308c-.135.223-.378.359-.638.359-.138 0-.273-.038-.39-.11-2.818-1.722-6.365-2.111-10.542-1.157-.054.012-.11.019-.166.019-.411 0-.748-.338-.748-.748 0-.348.242-.651.581-.729 4.571-1.045 8.492-.595 11.655 1.338.222.135.358.378.358.638 0 .138-.038.273-.11.39zm1.469-3.267c-.269.437-.85.576-1.287.308-3.642-2.031-7.945-2.534-11.958-1.399-.088.027-.18.041-.273.041-.513 0-.935-.422-.935-.935 0-.412.271-.777.665-.896 4.523-1.302 9.385-.727 13.48 1.594.437.269.576.849.308 1.287zm.126-3.403c-3.868-2.297-10.248-2.508-13.941-1.387-.106.032-.217.049-.328.049-.616 0-1.122-.507-1.122-1.123 0-.494.326-.932.799-1.074 4.239-1.287 11.285-1.039 15.738 1.605.339.202.548.569.548.964 0 .616-.507 1.122-1.123 1.122-.201 0-.398-.054-.571-.156z" fill="#fff" fill-rule="nonzero" transform="matrix(4.16667 0 0 4.16667 -16.6667 -16.6667)"/></svg>