<svg clip-rule="evenodd" fill-rule="evenodd" stroke-linejoin="round" stroke-miterlimit="1.41421" viewBox="0 0 100 82" xmlns="http://www.w3.org/2000/svg"><path d="m26.329 10.204c.01.229.01.458.01.687-.001 8.328-6.854 15.18-15.182 15.18-2.893 0-5.726-.827-8.165-2.383.421.051.845.075 1.269.073 2.403.003 4.739-.804 6.628-2.289-2.277-.041-4.288-1.536-4.984-3.704.798.151 1.62.119 2.404-.094-2.478-.506-4.274-2.704-4.276-5.233v-.073c.741.408 1.568.637 2.413.666-2.327-1.561-3.056-4.699-1.654-7.127 2.708 3.333 6.709 5.362 10.997 5.577-.087-.4-.132-.808-.135-1.217 0-.001 0-.001 0-.001 0-2.928 2.409-5.337 5.336-5.337 1.474 0 2.884.611 3.892 1.686 1.197-.232 2.344-.669 3.392-1.29-.4 1.237-1.236 2.287-2.351 2.955 1.059-.128 2.093-.412 3.069-.843-.716 1.073-1.618 2.01-2.663 2.767z" fill="#fff" fill-rule="nonzero" transform="matrix(3.84615 0 0 3.84615 -11.5082 -18.9591)"/></svg>