<svg clip-rule="evenodd" fill-rule="evenodd" stroke-linejoin="round" stroke-miterlimit="2" viewBox="0 0 73 91" xmlns="http://www.w3.org/2000/svg"><path d="m215.766 205.261c-2.315 1.839-3.667 4.639-3.667 7.596 0 5.321 4.379 9.7 9.7 9.7s9.7-4.379 9.7-9.7c0-2.957-1.352-5.757-3.667-7.596-2.318-1.839-3.673-4.641-3.673-7.6s1.355-5.761 3.673-7.6c2.315-1.839 3.666-4.639 3.666-7.595 0-5.321-4.378-9.7-9.7-9.7-5.321 0-9.699 4.379-9.699 9.7 0 2.956 1.351 5.756 3.666 7.595 2.318 1.839 3.673 4.641 3.673 7.6s-1.355 5.761-3.673 7.6z" fill="#e03248" fill-rule="nonzero" transform="translate(-212.0985 -172.765812)"/><path d="m286.873 227c.362 2.435 1.638 4.643 3.566 6.174 2.318 1.839 3.673 4.641 3.673 7.6s-1.355 5.761-3.673 7.6c-2.315 1.839-3.667 4.639-3.667 7.596 0 5.321 4.379 9.7 9.7 9.7s9.7-4.379 9.7-9.7c0-2.957-1.352-5.757-3.667-7.596-2.317-1.84-3.67-4.642-3.67-7.6s1.353-5.76 3.67-7.6c2.327-1.838 3.687-4.646 3.687-7.612 0-5.321-4.378-9.7-9.7-9.7-1.228 0-2.446.234-3.587.688-1.135.448-2.344.678-3.564.678-4.788 0-8.896-3.542-9.6-8.278-.704-4.733-4.81-8.273-9.595-8.273-5.321 0-9.7 4.378-9.7 9.7 0 5.321 4.379 9.7 9.7 9.7 1.22 0 2.428-.23 3.562-.678 1.135-.448 2.344-.679 3.565-.679 4.787 0 8.894 3.544 9.595 8.279z" fill="#003267" fill-rule="nonzero" transform="translate(-234.1135 -185.473812)"/><circle cx="36.0405" cy="85.697188" fill="#009a9b" r="4.852"/><circle cx="9.7035" cy="70.497188" fill="#ee95a3" r="7.278"/></svg>