<svg viewBox="0 0 70 70" xmlns="http://www.w3.org/2000/svg" xmlns:xlink="http://www.w3.org/1999/xlink"><linearGradient id="a" gradientUnits="userSpaceOnUse" x2="70" y1="35" y2="35"><stop offset="0" stop-color="#e85a0c"/><stop offset="1" stop-color="#f39a00"/></linearGradient><rect fill="url(#a)" height="70" rx="1.62" width="70"/><g fill="#3e3f4e" opacity=".25"><path d="m35.08 50.42c6.29 0 11.63-4.42 11.63-11.25a12.16 12.16 0 0 0 -11.9-12.42 11.6 11.6 0 0 0 -11.57 11.89 11.57 11.57 0 0 0 11.84 11.78z"/><path d="m49.1 14a1.24 1.24 0 0 1 .17.61.5.5 0 0 1 0 .12.14.14 0 0 1 0 .06v36.59s0 .07 0 .11a1.28 1.28 0 0 1 -1.27 1.17 1.27 1.27 0 0 1 -1.27-1.17v-.13-2.78a.81.81 0 0 0 -1.43-.53 13.72 13.72 0 0 1 -10.49 4.61 13.81 13.81 0 0 1 -12.21-6.88 11.25 11.25 0 0 0 1.84 2.69l21.29 21.29a.82.82 0 0 0 .57.24h21.42a2.28 2.28 0 0 0 2.28-2.28v-32.51a.84.84 0 0 0 -.24-.58z"/></g><path d="m48 12.87a1.72 1.72 0 0 0 -1.72 1.72.38.38 0 0 0 0 .1.19.19 0 0 0 0 .08v15.52a14.48 14.48 0 0 0 -11.84-6.29c-7.93 0-14.14 6.44-14.14 14.64a14.15 14.15 0 0 0 14.46 14.46 14.09 14.09 0 0 0 11.47-5.57v3.84.22a1.71 1.71 0 0 0 3.4-.07.53.53 0 0 0 0-.14v-36.69a.38.38 0 0 0 0-.1 1.72 1.72 0 0 0 -1.63-1.72zm-12.92 37.13a11.13 11.13 0 0 1 -11.4-11.35 11.18 11.18 0 0 1 11.13-11.47 11.75 11.75 0 0 1 11.46 12c0 6.26-4.71 10.82-11.19 10.82z" fill="#fff"/></svg>