<?xml version="1.0" encoding="UTF-8" standalone="no"?>
<!DOCTYPE svg PUBLIC "-//W3C//DTD SVG 1.1//EN" "http://www.w3.org/Graphics/SVG/1.1/DTD/svg11.dtd">
<svg width="100%" height="100%" viewBox="0 0 7045 7764" version="1.1" xmlns="http://www.w3.org/2000/svg" xmlns:xlink="http://www.w3.org/1999/xlink" xml:space="preserve" xmlns:serif="http://www.serif.com/" style="fill-rule:evenodd;clip-rule:evenodd;stroke-linejoin:round;stroke-miterlimit:1.41421;">
    <path d="M7042.07,2386.47C7042.07,2086.89 6882.23,1810.04 6622.78,1660.24L3941.74,112.35C3682.28,-37.45 3362.62,-37.45 3103.15,112.35L422.125,1660.24C162.666,1810.04 2.833,2086.89 2.833,2386.47L2.833,5482.28C2.833,5525.18 6.475,5567.5 12.85,5609.14C53.995,5475.75 216.725,5376.82 351.154,5300.94L449.358,5245.51L3093.55,3753.05C3226.19,3678.19 3374.2,3640.74 3522.22,3640.7L3522.45,3640.7C3670.54,3640.7 3818.64,3678.15 3951.34,3753.05L6595.55,5245.51L6693.75,5300.94C6828.74,5377.13 7001.77,5531.03 7042.07,5673.28C7048.1,5632.76 7042.07,5523.95 7042.07,5482.25L7042.07,2386.47Z" style="fill:rgb(96,198,197);fill-rule:nonzero;"/>
    <path d="M3522,0.012C3377.36,0.096 3232.75,37.525 3103.15,112.342L422.129,1660.23C162.671,1810.04 2.833,2086.88 2.833,2386.47L2.833,5482.27C2.833,5525.17 -3.542,5646.01 2.833,5687.65C43.979,5554.25 216.725,5376.82 351.154,5300.94L449.358,5245.5L3093.56,3753.05C3226.12,3678.22 3374.05,3640.8 3522,3640.71L3522,0.012Z" style="fill:rgb(252,227,89);fill-rule:nonzero;"/>
    <path d="M7032.64,5605.62C6992.33,5463.37 6828.74,5377.12 6693.75,5300.94L6595.55,5245.51L3951.35,3753.05C3818.64,3678.14 3708.35,3640.7 3522.45,3640.7L3522.22,3640.7C3328.47,3640.7 3226.19,3678.19 3093.56,3753.05L449.361,5245.51L351.153,5300.94C216.724,5376.82 53.995,5475.74 12.849,5609.13C6.503,5629.7 2.836,5651.03 2.836,5673.3C2.836,5737.01 37.686,5797.77 89.445,5853.38C159.857,5929.08 261.715,5995.16 351.153,6045.64L389.915,6067.52L3283.94,7700.98C3289.75,7704.27 3295.71,7707.19 3301.63,7710.21L3338.81,7727.43C3397.3,7751.21 3459.64,7763.19 3521.99,7763.25C3522.15,7763.25 3522.29,7763.27 3522.45,7763.27L3522.45,7763.27C3584.96,7763.27 3647.46,7751.27 3706.08,7727.43L3722.24,7720.31C3735.35,7714.41 3748.33,7708.1 3760.96,7700.98L6654.99,6067.52L6693.75,6045.64C6785.57,5993.82 6890.41,5920.67 6960.94,5841.35C7009.59,5786.62 7042.07,5728.99 7042.07,5673.27C7042.07,5649.36 7038.66,5626.89 7032.64,5605.62" style="fill:rgb(130,201,239);fill-rule:nonzero;"/>
    <path d="M3787.01,6823.13L3789.53,5764.97C4345.52,5680.74 4786.57,5398.91 5100.48,4927.22C5291.18,4640.69 5393.28,4312.56 5403.95,3951.97C5409.15,3776.06 5309.95,3651.91 5157.08,3643.03C5005.53,3634.26 4891.59,3750.41 4880.03,3925.51C4879.36,3935.75 4879.07,3945.4 4878.8,3954.79C4878.63,3960.5 4878.47,3966.21 4878.19,3971.95C4865.44,4237.89 4774.39,4492.56 4614.9,4708.39C4455.37,4924.28 4238.22,5086.65 3986.91,5177.91C3470.89,5365.36 2898.81,5227.9 2529.46,4827.72C2303.28,4582.66 2180.84,4285.55 2165.54,3944.63C2157.19,3758.43 2056.66,3642.79 1903.18,3642.79C1901.2,3642.79 1899.21,3642.79 1897.09,3642.84C1738.39,3646 1637.73,3768.89 1640.67,3955.93C1647.07,4364.3 1796.94,4767.45 2062.66,5091.07C2328.14,5414.4 2697.63,5644.12 3103.07,5737.98C3153.91,5749.73 3205.31,5759.1 3255,5768.16L3256.94,5768.51L3257.74,6822C3257.65,6968.22 3376.16,7086.8 3522.37,7086.8L3520.88,7086.8C3666.66,7086.8 3786.48,6968.91 3787.01,6823.13" style="fill:white;fill-rule:nonzero;"/>
    <path d="M3559.38,1426.66C3538.17,1426.66 3517.05,1427.41 3496.01,1428.91C3219.23,1448.7 2979.86,1551.49 2803.77,1726.13C2626.96,1901.51 2531.57,2132.09 2527.91,2392.97C2521.36,2859.34 2524.6,3330.99 2527.45,3747.12C2529.26,4011.06 2619.91,4233.03 2796.88,4406.85C2939.46,4546.88 3098.32,4640.86 3269.04,4686.15C3348.28,4707.17 3431.17,4717.82 3515.41,4717.82C3615.42,4717.82 3719.38,4702.83 3824.4,4673.29C4026.82,4616.33 4190.22,4522.26 4310.05,4393.69C4433.22,4261.53 4507.3,4096.08 4530.22,3901.97C4552.65,3712.05 4547.01,3517.1 4541.55,3328.56L4540.8,3328.58L4541.55,3328.43C4539.14,3245.05 4536.65,3158.81 4536.65,3074.47L4536.16,3050.59C4536.47,2972.18 4538.21,2892.95 4539.88,2816.23C4544.04,2626.42 4548.33,2430.16 4531.52,2237.92C4512.3,2017.81 4385.21,1801.94 4182.87,1645.68C4000.41,1504.8 3776.39,1426.67 3559.38,1426.66M3559.37,1900.24C3672.68,1900.24 3794.45,1944.08 3893.41,2020.5C3989.92,2095.04 4052.11,2191.71 4059.75,2279.16C4074.3,2445.66 4070.3,2628.78 4066.41,2806C4064.7,2884.72 4062.91,2966.11 4062.59,3048.72C4062.58,3052.56 4062.6,3056.41 4062.68,3060.25L4063.08,3079.4C4063.16,3161.86 4065.33,3243.08 4067.59,3322.09C4067.43,3335.11 4067.8,3348.22 4068.73,3361.4C4073.68,3533.67 4077.61,3696.56 4059.91,3846.44C4048.89,3939.7 4017.4,4013.09 3963.62,4070.8C3903.8,4134.97 3813.8,4184.3 3696.17,4217.4C3632.85,4235.21 3572.04,4244.25 3515.41,4244.25C3472.14,4244.25 3430.11,4238.91 3390.46,4228.41C3300.09,4204.42 3212.02,4150.79 3128.72,4068.99C3042.54,3984.33 3001.96,3881.03 3001.01,3743.56C2998.19,3329.83 2994.97,2860.92 3001.44,2399.6C3003.35,2263.34 3049.05,2149.88 3137.27,2062.37C3231.83,1968.58 3367.56,1912.88 3529.84,1901.28C3539.5,1900.58 3549.43,1900.24 3559.35,1900.24L3559.37,1900.24" style="fill:white;fill-rule:nonzero;"/>
</svg>
