<svg clip-rule="evenodd" fill-rule="evenodd" stroke-linejoin="round" stroke-miterlimit="1.41421" viewBox="0 0 2453 2689" xmlns="http://www.w3.org/2000/svg"><g fill-rule="nonzero"><path d="m0-40.453c0-25.054-13.367-48.206-35.065-60.735l-224.216-129.451c-3.702-2.136-7.558-3.88-11.503-5.289v285.137l270.784 146.266z" fill="#82c9ef" transform="matrix(4.16667 0 0 4.16667 2452.89 983.078)"/><path d="m0-305.456v6.263h-.246c-4.042 62.082-55.807 111.362-118.892 111.362-34.664 0-65.909-14.887-87.706-38.591l-.231.134-105.851 64.076c.786 1.041 1.626 2.069 2.559 3.072 5.888 6.33 14.407 11.858 21.887 16.079l3.242 1.829 242.028 136.607c.486.275.984.52 1.48.772l3.109 1.44c4.891 1.988 10.104 2.99 15.319 2.996.009 0 .017.001.026.001-.009 0-.017-.001-.026-.001.013 0 .026.002.038.002 5.228 0 10.455-1.004 15.358-2.998l1.351-.595c1.097-.494 2.182-1.021 3.239-1.617l242.027-136.607 3.243-1.829c7.678-4.334 16.446-10.452 22.344-17.086.639-.718 1.228-1.444 1.792-2.172l-266.075-143.722c-.007.194-.013.39-.015.585" fill="#60c6c5" transform="matrix(4.16667 0 0 4.16667 1323.38 2685.69)"/><path d="m0 244.976c0-65.716 53.463-119.179 119.177-119.179 27.189 0 52.264 9.171 72.34 24.556v-242.932c-.702.25-1.399.512-2.094.784-.361.141-.727.259-1.086.407-2.849 1.174-5.64 2.543-8.351 4.109l-194.031 112.024-30.184 17.426c-1.075.621-2.094 1.312-3.127 1.983-10.374 6.743-18.664 15.965-24.174 26.677-.866 1.683-1.663 3.402-2.391 5.152-.063.151-.113.309-.175.461-.813 1.994-1.513 4.036-2.142 6.104-.588 1.938-1.069 3.912-1.494 5.904-1.003 4.702-1.563 9.535-1.563 14.455v234.648l86.369-52.283c-4.548-12.598-7.074-26.151-7.074-40.296" fill="#fce359" transform="matrix(4.16667 0 0 4.16667 330.396 385.746)"/><path d="m0 .001c0 39.931 32.37 72.3 72.3 72.3s72.301-32.369 72.301-72.3-32.371-72.301-72.301-72.301-72.3 32.37-72.3 72.301" fill="#60c6c5" transform="matrix(4.16667 0 0 4.16667 524.217 1406.48)"/></g></svg>