<svg clip-rule="evenodd" fill-rule="evenodd" stroke-linejoin="round" stroke-miterlimit="1.41421" viewBox="0 0 1520 1652" xmlns="http://www.w3.org/2000/svg"><g fill="#60c6c5" fill-rule="nonzero"><path d="m0 116.886c-8.52 8.366-18.011 13.981-28.211 16.687-4.734 1.256-9.686 1.893-14.721 1.893-.408 0-.821-.015-1.231-.023-.411.008-.824.023-1.232.023-5.035 0-9.987-.637-14.721-1.893-10.2-2.706-19.692-8.321-28.211-16.687-10.573-10.386-15.989-23.647-16.098-39.418-.003-.45-.006-.904-.009-1.357v-.001c-.168-24.529-.347-52.19.037-79.549.218-15.586 5.918-29.363 16.482-39.842 10.52-10.435 24.822-16.575 41.36-17.758.794-.056 1.591-.089 2.39-.11.799.021 1.596.054 2.39.11 16.538 1.183 30.839 7.323 41.36 17.758 10.564 10.479 16.264 24.256 16.482 39.842.384 27.359.204 55.02.037 79.549l.002.002c-.002.453-.005.906-.008 1.356-.109 15.771-5.525 29.032-16.098 39.418m138.033 27.257c0 1.665-.106 3.313-.298 4.943.192-1.63.298-3.278.298-4.944v-.001-160.28c0-.929-.039-1.853-.097-2.773-.04-.612-.091-1.223-.156-1.83-.092-.858-.199-1.714-.341-2.561-.01-.061-.023-.122-.034-.183-.15-.876-.324-1.745-.527-2.607-2.712-11.512-10.059-21.586-20.553-27.646l-138.805-80.139c-1.679-.969-3.407-1.817-5.17-2.544-.112-.046-.225-.088-.336-.132-.33-.133-.66-.265-.992-.39-.388-.146-.78-.282-1.171-.416-.056-.02-.112-.041-.167-.06-4.49-1.513-9.169-2.271-13.849-2.274-4.68.003-9.359.761-13.849 2.274-.055.019-.111.04-.166.06-.392.134-.784.27-1.173.416-.332.125-.661.257-.991.39-.111.044-.224.086-.336.132-1.763.727-3.491 1.575-5.17 2.544l-138.805 80.139c-10.494 6.06-17.841 16.134-20.553 27.646-.203.862-.377 1.731-.527 2.607-.011.061-.024.122-.035.183-.141.847-.249 1.703-.339 2.561-.066.607-.118 1.218-.157 1.83-.058.92-.097 1.844-.097 2.773v160.281c0 1.666.106 3.314.299 4.944-.193-1.63-.299-3.278-.299-4.943 0 2.223-.33 8.475 0 10.631.008-.026.017-.052.026-.077.223 3.055 1.959 5.972 4.458 8.657 3.646 3.919 8.919 7.341 13.549 9.954l2.007 1.133 145.528 82.139-.044-58.339-.116-.021c-2.97-.541-6.04-1.101-9.077-1.803-24.225-5.607-46.301-19.333-62.162-38.651-12.541-15.274-20.758-33.512-23.848-52.526-.821-5.058-1.285-10.169-1.365-15.296-.176-11.174 5.838-18.517 15.32-18.706.126-.003.246-.003.363-.003 8.913 0 14.835 6.527 15.62 17.106v.001c.023.306.043.614.056.927.914 20.369 8.23 38.121 21.743 52.763 15.751 17.065 37.672 26.131 60.142 25.853 22.469.278 44.391-8.788 60.141-25.853 13.513-14.642 20.829-32.394 21.743-52.763.013-.313.034-.621.056-.927v-.001l-.003-.001c.785-10.578 6.707-17.105 15.62-17.105.118 0 .237 0 .363.003 9.482.189 15.496 7.532 15.321 18.706-.081 5.127-.544 10.238-1.366 15.296h.003c-3.09 19.015-11.307 37.253-23.847 52.526-15.862 19.318-37.938 33.044-62.163 38.651-3.037.702-6.107 1.262-9.077 1.803l-.115.021-.045 58.339 145.528-82.139 2.007-1.133c4.63-2.613 9.904-6.035 13.549-9.954 2.497-2.683 4.232-5.597 4.458-8.651.008.023.016.047.023.071.33-2.156 0-8.408 0-10.631" transform="matrix(4.16667 0 0 4.16667 943.791 582.059)"/><path d="m0-120.716c-5.649-5.604-13.759-8.932-23.455-9.625-.121-.009-.246-.013-.369-.02h-.003c-.123.007-.247.011-.369.02-9.697.693-17.806 4.021-23.455 9.625-5.271 5.229-8.001 12.007-8.116 20.148-.3 21.392-.252 43.056-.135 63.24v.001c.033 5.823.072 11.523.11 17.057.057 8.214 2.481 14.387 7.63 19.445 4.977 4.887 10.238 8.09 15.639 9.524 2.368.628 4.879.946 7.465.946.407 0 .819-.007 1.233-.023.414.016.825.023 1.231.023 2.586 0 5.098-.318 7.467-.946 5.399-1.434 10.661-4.637 15.638-9.524 5.149-5.058 7.574-11.231 7.63-19.445.038-5.534.077-11.234.11-17.057v-.001c.116-20.184.165-41.848-.136-63.24-.114-8.141-2.844-14.919-8.115-20.148" transform="matrix(4.16667 0 0 4.16667 859.05 988.413)"/></g></svg>