<svg clip-rule="evenodd" fill-rule="evenodd" stroke-linejoin="round" stroke-miterlimit="1.41421" viewBox="0 0 1521 1652" xmlns="http://www.w3.org/2000/svg"><g fill-rule="nonzero"><path d="m0 273.314c0 1.665-.106 3.314-.299 4.944.193-1.63.299-3.279.299-4.945v-.002-160.343c0-.929-.039-1.853-.098-2.773-.039-.613-.091-1.223-.156-1.831-.091-.86-.199-1.715-.341-2.563-.01-.06-.023-.121-.033-.182-.151-.876-.325-1.746-.528-2.608-2.713-11.517-10.063-21.595-20.561-27.657l-138.86-80.171c-1.68-.97-3.407-1.818-5.172-2.545-.112-.046-.225-.088-.337-.132-.329-.132-.659-.265-.991-.389-.389-.146-.78-.283-1.173-.418-.056-.019-.11-.04-.166-.059-4.491-1.514-9.173-2.272-13.855-2.275v78.576c.799.021 1.597.054 2.391.11 16.545 1.183 30.852 7.326 41.377 17.765 10.568 10.482 16.27 24.265 16.488 39.857.384 27.37.204 55.042.037 79.581l21.679 12.237c.784-10.584 6.71-17.114 15.625-17.114.118 0 .237 0 .363.002 9.487.19 15.503 7.536 15.328 18.714-.08 5.128-.544 10.242-1.367 15.302l47.222 26.653 5.087 2.871c6.963 3.93 15.391 9.054 17.521 15.962h.001c.329 1.067.519 2.171.519 3.324 0 .222-.01.445-.026.666.007.026.017.051.026.078.33-2.156 0-8.411 0-10.635" fill="#82c9ef" transform="matrix(4.16667 0 0 4.16667 1519.53 44.313)"/><path d="m0-73.773c-5.652-5.605-13.765-8.936-23.465-9.629-.121-.009-.246-.013-.369-.019v81.664c9.896.877 15.324 1.943 22.19 5.819l9.898 5.586c.116-20.192.165-41.864-.136-63.265-.114-8.144-2.846-14.926-8.118-20.156" fill="#82c9ef" transform="matrix(4.16667 0 0 4.16667 859.392 793.007)"/><path d="m0-73.773c-5.272 5.23-8.004 12.012-8.118 20.156-.301 21.401-.252 43.073-.136 63.265l9.898-5.586c6.867-3.876 12.294-4.942 22.19-5.819v-81.664c-.123.006-.247.01-.369.019-9.7.693-17.813 4.024-23.465 9.629" fill="#fce359" transform="matrix(4.16667 0 0 4.16667 660.763 793.007)"/><path d="m0-289.916c-.393.135-.784.272-1.173.418-.332.124-.661.257-.991.39-.112.044-.225.086-.336.131-1.765.727-3.493 1.576-5.173 2.545l-138.859 80.171c-10.499 6.062-17.849 16.14-20.562 27.658-.203.861-.377 1.731-.527 2.607-.011.061-.024.122-.034.183-.142.847-.249 1.703-.341 2.562-.065.608-.116 1.218-.155 1.831-.06.92-.099 1.844-.099 2.774v160.344c.001 1.666.106 3.316.299 4.946-.193-1.63-.298-3.28-.299-4.945 0 2.224-.33 8.479 0 10.635.009-.026.019-.052.026-.078-.016-.221-.026-.443-.026-.666 0-1.152.19-2.257.52-3.323 2.13-6.909 10.559-12.033 17.521-15.962l5.087-2.871 47.222-26.654c-.823-5.059-1.287-10.174-1.367-15.301-.175-11.179 5.841-18.525 15.328-18.714.126-.002.245-.002.363-.002 8.916 0 14.841 6.529 15.625 17.113l21.68-12.236c-.168-24.539-.348-52.211.036-79.581.218-15.593 5.921-29.375 16.489-39.858 10.524-10.438 24.832-16.582 41.376-17.764.794-.057 1.592-.089 2.391-.111v-78.576c-4.682.003-9.363.761-13.855 2.275-.056.019-.11.04-.166.059" fill="#fce359" transform="matrix(4.16667 0 0 4.16667 701.653 1217.71)"/><g fill="#60c6c5"><path d="m0-92.089c-.004.453-.007.907-.01 1.358-.108 15.777-5.526 29.044-16.103 39.433-8.523 8.37-18.018 13.987-28.222 16.694-4.736 1.256-9.691 1.894-14.727 1.894-.409 0-.821-.015-1.232-.024-.411.009-.824.024-1.233.024-5.036 0-9.991-.638-14.726-1.894-10.204-2.707-19.699-8.324-28.222-16.694-10.578-10.389-15.996-23.656-16.104-39.433-.003-.451-.006-.905-.009-1.358l-21.68 12.236c.024.306.043.615.057.928.914 20.377 8.232 38.136 21.752 52.783 15.757 17.072 37.687 26.142 60.165 25.864 22.478.278 44.408-8.792 60.164-25.864 13.52-14.647 20.838-32.406 21.752-52.783.015-.313.034-.622.057-.928z" transform="matrix(4.16667 0 0 4.16667 1011.3 1283.24)"/><path d="m0 34.635c-2.97-.541-6.042-1.102-9.081-1.804-24.233-5.61-46.318-19.341-62.187-38.667-12.545-15.279-20.765-33.524-23.856-52.547l-47.222 26.654-5.087 2.871c-6.962 3.93-15.39 9.054-17.521 15.962-.329 1.066-.52 2.171-.52 3.323 0 .223.01.445.027.666.223 3.058 1.96 5.976 4.46 8.662 3.646 3.92 8.923 7.343 13.554 9.957l2.008 1.133 145.585 82.173-.044-58.362z" transform="matrix(4.16667 0 0 4.16667 690.084 1264.22)"/><path d="m0-60.428h-.001c-2.131-6.908-10.559-12.032-17.521-15.962l-5.087-2.871-47.222-26.653c-3.091 19.022-11.311 37.267-23.857 52.547-15.868 19.326-37.953 33.056-62.186 38.667-3.039.702-6.11 1.262-9.081 1.803l-.116.021-.044 58.362 145.585-82.173 2.008-1.133c4.632-2.614 9.908-6.037 13.554-9.957 2.5-2.686 4.238-5.604 4.46-8.662.017-.22.027-.443.027-.666 0-1.152-.191-2.257-.519-3.323" transform="matrix(4.16667 0 0 4.16667 1517.38 1462.27)"/><path d="m0-46.759c-2.146-1.212-4.37-2.233-6.647-3.066-.419-.154-.84-.299-1.262-.44-.036-.012-.072-.025-.109-.037-4.594-1.515-9.383-2.273-14.172-2.276h-.001-.002c-4.789.003-9.579.761-14.172 2.276-.037.012-.073.025-.109.037-.423.141-.843.286-1.262.44-2.278.833-4.501 1.854-6.648 3.066l-9.897 5.586v.001c.033 5.825.072 11.527.11 17.064.057 8.217 2.482 14.392 7.633 19.452 4.979 4.889 10.243 8.094 15.644 9.529 2.371.627 4.883.946 7.469.946.407 0 .819-.009 1.234-.024.414.015.825.024 1.232.024 2.587 0 5.099-.319 7.469-.946 5.402-1.435 10.666-4.64 15.644-9.529 5.152-5.06 7.577-11.235 7.633-19.452.038-5.537.077-11.239.11-17.064v-.001z" transform="matrix(4.16667 0 0 4.16667 852.544 1004.76)"/></g></g></svg>