<svg viewBox="0 0 159.06 161.3" xmlns="http://www.w3.org/2000/svg"><path d="m155.94 69.45a32.43 32.43 0 0 0 .53-10.45c-.9-8.36-4.88-15.84-10.45-19.78a25.16 25.16 0 0 0 -24.14-24.45 20.56 20.56 0 0 0 -8-4.54 20.39 20.39 0 0 0 -24.68-5 24.73 24.73 0 0 0 -15.2-5.23 24.46 24.46 0 0 0 -9.07 1.73 24.69 24.69 0 0 0 -26.18 10.86 25.3 25.3 0 0 0 -10.31 11.24 25.1 25.1 0 0 0 -22.69 25.17 25.65 25.65 0 0 0 .47 4.88 25.51 25.51 0 0 0 -1.94 30.82 19.63 19.63 0 0 0 .6 2.18 18.36 18.36 0 0 0 11.94 23.65 72.71 72.71 0 0 0 30.74 24.79 75.69 75.69 0 0 0 10.93 14.61c6.68 6.83 13.69 10.62 20.84 11.27.72.07 1.47.1 2.23.1a27.18 27.18 0 0 0 13.66-3.87 43.68 43.68 0 0 0 10.05-8.24 67.22 67.22 0 0 0 9.49-13.35c.31-.42.84-1.18 1.47-2.19a71.52 71.52 0 0 0 29.41-26.54 18.76 18.76 0 0 0 3.36-5.11 25.49 25.49 0 0 0 6.93-32.52zm-10.36 29.81-.29.69a14.6 14.6 0 0 1 -2.83 4.4l-.19.2-.15.24a67.37 67.37 0 0 1 -28.12 25.28l-.71.35-.41.67c-.7 1.15-1.27 2-1.56 2.34l-.13.17-.1.19c-1.25 2.38-12.66 23.3-29.53 23.3-.63 0-1.25 0-1.84-.08-14.16-1.29-24.83-17.38-28.72-24.23l-.45-.78-.82-.35a68.5 68.5 0 0 1 -29.71-24l-.57-.83-1-.25a14 14 0 0 1 -10.4-13.57 14.18 14.18 0 0 1 1-5.13l.37-.95-.42-.92a15.45 15.45 0 0 1 -.67-2.39l-.09-.61-.31-.46a21.29 21.29 0 0 1 1.92-26.41l1-1-.31-1.38a21.48 21.48 0 0 1 -.54-4.75 20.87 20.87 0 0 1 19.61-21l1.68-.09.65-1.55a21.06 21.06 0 0 1 9.19-10.24l.61-.34.37-.59a20.48 20.48 0 0 1 22.29-9.25l.86.21.81-.34a20.29 20.29 0 0 1 7.93-1.59 20.51 20.51 0 0 1 13.27 4.9l1.43 1.22 1.63-.93a16.18 16.18 0 0 1 20.58 3.86l.55.67.83.22a16.34 16.34 0 0 1 7.11 4.05l.77.75h1.08a20.92 20.92 0 0 1 20.57 21v1.54l1.24.79c4.88 3.12 8.41 9.69 9.22 17.15a28.08 28.08 0 0 1 -.57 9.62l-.25 1 .54.94a21.27 21.27 0 0 1 -5.81 27.78z" fill="#fff"/><path d="m152 71-.54-.93.25-1a28.08 28.08 0 0 0 .57-9.62c-.81-7.46-4.34-14-9.22-17.15l-1.24-.79v-1.51a20.92 20.92 0 0 0 -20.57-21h-1.08l-.77-.75a16.34 16.34 0 0 0 -7.11-4.05l-.83-.22-.55-.67a16.18 16.18 0 0 0 -20.59-3.91l-1.63.93-1.44-1.21a20.51 20.51 0 0 0 -13.25-4.9 20.29 20.29 0 0 0 -7.9 1.59l-.81.34-.86-.21a20.48 20.48 0 0 0 -22.29 9.22l-.37.59-.61.34a21.06 21.06 0 0 0 -9.19 10.24l-.65 1.55-1.71.12a20.87 20.87 0 0 0 -19.61 21 21.48 21.48 0 0 0 .53 4.73l.31 1.38-1 1a21.29 21.29 0 0 0 -1.91 26.47l.31.46.11.54a15.45 15.45 0 0 0 .65 2.42l.35 1-.35.86a14.18 14.18 0 0 0 -1 5.13 14 14 0 0 0 10.38 13.61l1 .25.57.83a68.41 68.41 0 0 0 29.05 23.68c3.17 5.41 8.68 13.44 16 18.93 4.24 3.52 9.17 6.21 14.63 6.71.59.05 1.21.08 1.84.08 6.49 0 12.17-3.09 16.77-7 8.69-6.66 14.11-16.5 15.14-18.47.27-.36.73-1 1.29-1.9a67.21 67.21 0 0 0 27.36-24.88l.15-.24.19-.2a14.6 14.6 0 0 0 2.83-4.4l.29-.69.61-.44a21.27 21.27 0 0 0 5.9-27.86z"/><g fill="#808184" opacity=".3"><path d="m32.28 31.2h-.61c-10.14 0-18.36 8-18.36 17.77a17.24 17.24 0 0 0 .6 4.5c.17-10.54 7.86-19.4 18.37-22.27z"/><path d="m139 41.4c0-.2 0-.4 0-.6-.14-9.95-8.06-17.9-17.69-17.77a16.88 16.88 0 0 0 -4.41.65c10.34.03 19.1 7.45 22.1 17.72z"/><path d="m44.36 73.82.64-.06c10.61-1.25 18.5-8.27 17.62-15.67a9.69 9.69 0 0 0 -1-3.32c.73 7.95-6.53 15.58-17.26 19.05z"/><path d="m91 58.15c0 .23 0 .46.08.69 1.66 11.28 13.41 18.89 26.24 17a26.53 26.53 0 0 0 5.79-1.53c-13.81 1.82-26.64-5.03-32.11-16.16z"/><path d="m146.71 73.16c.12-.19.25-.39.36-.59 5.68-9.89 1.16-23.14-10.08-29.6a26.64 26.64 0 0 0 -5.5-2.38c11.96 7.11 17.8 20.41 15.22 32.57z"/><path d="m108.87 78.59c0 .18 0 .36.06.54 1.29 8.78 10.43 14.7 20.41 13.23a20.67 20.67 0 0 0 4.5-1.19c-10.72 1.41-20.71-3.92-24.97-12.58z"/><path d="m25 87.47.53.28c8.92 4.41 19.61 1 23.88-7.64a16.9 16.9 0 0 0 1.44-4.22c-4.79 9.18-15.4 13.62-25.85 11.58z"/><path d="m16.16 55.71-.52.35c-8.48 6.01-10.64 17.53-4.83 25.74a17.79 17.79 0 0 0 3.19 3.42c-6.11-8.92-4.92-20.88 2.16-29.51z"/><path d="m67.67 11.56-.45-.29a15.77 15.77 0 0 0 -21.78 4.79 15 15 0 0 0 -1.62 3.62c4.96-7.74 14.73-10.79 23.85-8.12z"/></g><path d="m110.65 104.34c-4.93-7.77-18-13.2-31.72-13.2a51.1 51.1 0 0 0 -21.54 4.71c-5.55 2.6-8.86 6-9.83 10.1-1.78 7.55 3.24 16 3.79 16.07l.38.64c.11.25 12.51 24.84 28.38 26.28 15.57 1.42 26.85-20.73 27-20.95l.39-.62c.07-.12 9.69-12.74 3.15-23.03z" fill="#fccb98"/><path d="m107.67 105.79v3.57h-24.32v2.83h-2.03-.76v-3.24h-27.98v-3.08h-6.52v6.47h5.81v2.57h2.73v3.23h2.78v5.56h19.14v-2.83h1.51v-2.73h1.69 1.6 2.03v2.83h2.9v2.76h20.86v-2.76h.81v-5.65h1.28v-3.17h5.92v-6.36z" fill="#fff"/><path d="m60.3 112.23h14.43v8.45h-14.43z" fill="#183319"/><path d="m63.26 114.86h8.5v5.82h-8.5z" fill="#69bc45"/><path d="m89.1 112.23h14.43v8.45h-14.43z" fill="#3e1211"/><path d="m92.07 114.86h8.5v5.82h-8.5z" fill="#ec2024"/><g fill="#231f20"><path d="m74.79 120.87h2.87v2.87h-2.87z"/><path d="m54.62 115.21h2.87v8.45h-2.87z"/><path d="m83.32 120.87h2.87v2.87h-2.87z"/><path d="m109.14 112.18v2.87h-2.68v2.74.13 5.74h2.87v-5.74h2.68v-2.54-.33-2.87z"/><path d="m80.55 109.31h2.87v2.87h-2.87z"/><path d="m114.88 103.65h-8.93v2.79h-22.55v2.87h25.66v-2.79h5.82v2.87h-2.79v2.87h2.79v2.47h2.87v-11.08z"/><path d="m54.58 106.44v-2.79h-8.76v2.87h5.79v2.79h28.92v-2.87z"/><path d="m48.88 109.51h-2.83v-3.03h-2.87v9.3h2.87v-3.2h2.83z"/><path d="m48.79 112.34h5.83v2.87h-5.83z"/><path d="m77.66 118.02h5.66v2.87h-5.66z"/><path d="m57.47 123.69h17.31v2.87h-17.31z"/><path d="m86.27 123.66h20.01v2.87h-20.01z"/></g></svg>