<svg clip-rule="evenodd" fill-rule="evenodd" stroke-linejoin="round" stroke-miterlimit="2" viewBox="0 0 263 293" xmlns="http://www.w3.org/2000/svg" xmlns:xlink="http://www.w3.org/1999/xlink"><linearGradient id="a" gradientUnits="userSpaceOnUse" x1="0" x2="1" y1=".000003" y2=".000003"><stop offset="0" stop-color="#b0008e"/><stop offset="1" stop-color="#ff8f1c"/></linearGradient><linearGradient id="b" gradientUnits="userSpaceOnUse" x1="0" x2="1" y1=".008502" y2=".008502"><stop offset="0" stop-color="#b0008e"/><stop offset=".38" stop-color="#b0008e"/><stop offset=".87" stop-color="#fff"/><stop offset="1" stop-color="#fff"/></linearGradient><g fill-rule="nonzero"><path d="m.608.318-.277.008c-.029.001-.057-.014-.072-.038l-.146-.236c-.016-.025-.017-.056-.003-.082l.131-.245c.014-.025.041-.042.07-.043l.277-.008c.029-.001.057.014.072.038l.146.236c.016.025.017.056.003.082l-.131.245c-.007.013-.017.023-.029.03-.012.008-.026.012-.041.013z" fill="url(#a)" transform="matrix(345.794 -214.279 -214.279 -345.794 -27.848294 244.550071)"/><path d="m0-28.528c-.56-.97-1.372-1.796-2.376-2.376l-7.929-4.578c-.911-.525-2.033-.525-2.944 0l-11.175 6.452-11.175-6.452c-.911-.525-2.033-.525-2.944 0l-7.93 4.578c-1.004.58-1.815 1.406-2.375 2.376-.561.971-.87 2.086-.87 3.246v21.712c0 1.159.309 2.274.87 3.245.56.97 1.371 1.796 2.375 2.376l9.402 5.428v-29.207l9.91 5.721c1.694.978 3.78.978 5.474 0l9.91-5.721v29.207l9.401-5.428c1.004-.58 1.816-1.406 2.376-2.376.561-.971.87-2.086.87-3.245v-21.712c0-1.16-.309-2.275-.87-3.246" fill="#fff" transform="matrix(4.16667 0 0 4.16667 232.829806 205.287071)"/><g fill="url(#b)"><path d="m.717-.324.49.255c.027.014.048.034.063.058.016.024.025.052.026.082l.012.276-.66-.343-.012-.276c0-.011.002-.02.006-.028.014-.026.046-.039.075-.024z" transform="matrix(-75.5451 145.076 145.076 75.5451 126.826806 20.431771)"/><path d="m.717-.324.49.255c.027.014.048.034.063.058.016.024.025.052.026.082l.012.276-.66-.343-.012-.276c0-.011.002-.02.006-.028.014-.026.046-.039.075-.024z" transform="matrix(75.5451 145.076 -145.076 75.5451 135.261806 20.476171)"/></g></g></svg>