<svg height="588.6" width="512" xmlns="http://www.w3.org/2000/svg"><g fill="#bf1616"><path d="m511.6 273.4c-.5-4.1-.9-8.6-1.8-12.9-.9-5-2.3-9.7-2.3-14.7 0-.5.5-1.4-.5-1.8-.9 0-1.4.5-1.4 1.4-2.3 5-5.4 9.3-9.7 13.4-1.4 1.4-2.3 2.3-3.6 3.6-1.4 1.8-2.3 1.8-3.6.5-3.2-3.2-5.9-5.9-7.7-10.2-1.8-3.6-2.7-8.2-4.1-12-.5-.5-.5-1.4-1.4-1.8-.9 0-.9.9-1.4 1.4-4.5 6.3-8.2 13.4-10.2 21.1-.9 3.6-1.4 3.6-4.1 1.4-.5-.5-.5-.5-.9-.9-5-2.3-8.6-5.9-11.1-11.6 0-.5-.5-1.4-1.4-1.4s-.9.5-1.4 1.4c0 .5-.5.9-.5 1.4-2.3 5.9-2.3 12-1.8 18.3 1.4 11.1 6.3 20.6 13.8 28.5 4.5 5 9.7 9.7 14.7 14.3 1.4 1.4 2.3 2.7 1.8 4.5-.5 4.5-.5 8.6-.5 13.4 0 1.4-.5 2.7-1.8 3.2-.9.5-.9.9-.9 1.8-2.3 7.7-7.7 12.9-12.5 19.3-.5.9-1.4.9-2.3 0-.9-1.4-2.3-2.7-3.2-4.1-2.7-3.6-4.1-7.2-5.9-11.6-.5-.5 0-1.8-1.4-1.4-.9 0-.9.9-.9 1.8-.5 1.8-.9 3.6-1.8 5-4.1 6.3-5.4 13.8-5.9 21.1-.9 8.6 1.4 16.5 5 24.7 1.8 5 1.8 5-3.2 5-7.2 0-14.7 0-22 0-2.7 0-3.2 0-3.2-3.2 0-40.3 0-81.1 0-121.7 0-2.3 0-4.5.9-6.8 1.4-5 4.1-8.2 7.7-11.6.9-.9 1.4-1.4.9-2.3 0-.5-1.4-.5-2.3-.5-19.3 0-39 0-58.7 0-1.4 0-1.8.9-1.4 2.3.5.5.5.9.9.9 5.4 5 8.2 12 8.2 19.3v41.7l-103.5-102.9h2.3c5-.9 9.7-1.8 14.7-2.7 10.2-1.8 20.2-5 30.4-8.2 8.2-3.2 16.5-6.8 23.8-11.6 2.3-1.4 4.1-3.2 5-5.9 4.1-11.6 10.6-22.4 16.1-33.5 5-9.7 10.2-19.3 15.2-29 .9-1.4.5-2.7-.9-3.6-2.3-1.4-5-2.3-7.7-2.3-6.8 0-12.9 1.8-17.4 6.8-.9.9-1.8 1.4-3.2 1.4-5.4-.9-9.3 1.4-10.6 7.2-.5.9-.5 1.8-.5 2.7-.5 2.7-.5 5.4-3.6 5.9-3.2.5-5.9.9-9.3.9-1.8 0-4.1-1.4-4.5-2.7-.9-2.3.5-3.2 2.3-4.5l.5-.5c4.5-2.7 5.4-8.6.9-13.4-1.4-1.4-1.8-2.7-1.8-4.1 0-4.1-2.3-7.2-5.9-8.6-4.5-1.4-8.2 0-10.6 3.6-1.4 1.8-2.7 3.6-4.5 5-2.7 1.8-3.6 4.1-4.1 7.7 0 2.3.9 4.1 1.8 5.9 1.4 3.2.9 5.4-2.3 5.9-6.3 1.4-12.9 0-18.3-3.6-2.3-1.4-3.6-4.5-2.3-6.8 1.4-1.8 2.3-3.6 3.2-5.4 2.3-3.6 2.7-7.7 2.3-12 0-4.5-2.3-8.2-5-12-.9-1.4-2.3-2.3-2.3-3.6-.5-4.5-2.3-8.6-5-12.5-.9-.9-.9-1.8 0-2.7 3.2-6.3 8.6-10.2 15.2-12 6.8-1.8 14.3-1.4 21.1 0 1.8.5 3.2.5 5 0 1.4-.5 2.3-.9 3.6-1.4 5.4-1.4 11.1-2.3 16.5-3.2 5.9-.9 12-.5 17.9 1.4 5.4 1.4 10.6 3.6 16.1 5.9.9.5 1.8.5 2.7.5 1.8-.5 3.2-.5 5-.9 3.6-.5 6.8-1.4 10.6-.9 6.3 1.4 12.9 4.1 18.8 6.8 4.5 2.3 8.6 4.5 12.9 6.8.5.5 1.4.9 1.8 0 .5-.5.5-1.4 0-1.8-.5-.5-.5-.9-.5-.9-3.6-6.3-9.3-11.1-14.3-16.1-7.2-6.3-14.7-12.5-22.9-17.4-12.2-7.3-24.4-14.3-37.8-18.4-3.6-.9-7.2-1.8-10.2-4.5-.9-.9-1.8-.5-2.3.9-.5.9-.5 1.8-.5 2.7 0 1.4-.5 2.3-1.8 3.2-2.3.9-4.1 1.8-6.3 2.7-6.3 2.3-12.5 4.5-19.3 5.9-4.5.9-8.6 2.3-13.8 1.8-3.2-.5-5.9-.5-8.6-2.3s-2.7-4.5 0-6.3c3.6-2.7 5-5.9 4.1-10.6-.5-3.2-2.7-5.4-5-7.2-2.7-2.3-5-5-6.8-8.2-.9 0-1.4-.9-1.8-.9-.9 0-.9.9-1.4 1.8-.5 3.2-.9 6.3-1.4 9.7-.5 4.5-.9 5-5.4 5-4.1 0-4.5-.5-5-4.5-.5-3.6-.9-6.8-1.4-10.6 0-.5-.5-1.4-.9-1.4-.5 0-.9.5-1.4.9-.5.5-.5.9-.9 1.4-.9 3.6-3.6 5.4-6.3 7.7-5.9 4.5-6.8 13.8 0 17.9 1.4.9 1.8 1.8 1.4 3.2-.5 1.8-1.8 3.6-3.6 4.1-2.7-.5-5.4 0-8.2 0-5 0-10.2-1.4-15.2-2.3-6.3-1.4-12.9-4.1-19.3-6.3-3.2-1.4-5-2.7-5-6.3 0-1.8-1.4-2.7-2.7-1.4-2.3 2.3-5 2.7-7.2 3.6-12 3.6-22.9 8.6-33.5 15.2-6.3 4.1-13.4 7.7-19.3 12.9-3.6 2.7-7.2 5.9-10.6 9.3-5.4 4.5-10.2 10.2-13.8 16.1-.5.5-.9 1.4-.5 2.3.5.5 1.4 0 1.8 0 3.2-.9 5.9-2.7 8.6-4.5 5-2.3 9.7-5 14.7-6.8 3.6-1.4 7.7-2.7 11.6-2.3 3.6 0 7.2.9 11.1 1.8 1.4.5 2.7 0 4.1-.5 5-2.3 9.7-4.1 15.2-5.4 3.6-.9 7.2-1.8 11.1-1.8 2.7 0 5.4.5 8.2.5 6.3.5 12.5 1.8 17.9 4.1 1.8.5 3.6.9 5.4.5 4.1-.9 8.2-1.4 12-1.4 5.4 0 11.1 1.4 16.1 4.1 3.6 2.3 6.3 5.4 8.2 9.3.5 1.4.5 2.3-.5 3.2-2.3 2.7-3.6 5.9-4.1 9.7-.5 2.7-1.8 5-3.6 7.2-2.7 3.2-4.1 7.2-4.1 11.6 0 5.9 2.3 10.6 5 15.6.9 1.4 1.4 3.2.5 4.5-.9 1.4-1.8 2.7-3.2 3.6-5.4 3.6-11.6 3.6-17.9 2.7-1.8-.5-2.7-2.3-2.3-4.1.5-.9.9-1.8 1.4-2.7 1.8-4.1 1.4-9.3-2.3-11.6-2.7-1.8-4.5-4.5-6.3-6.8-2.3-3.2-5.9-3.2-9.7-2.7-4.1.9-5.9 3.2-6.3 7.2-.5 2.3-.5 4.1-2.3 6.3-2.7 3.2-2.7 6.3-.9 10.2.9 1.4 2.3 2.3 3.6 3.6.9.9 2.3 1.8 1.8 3.6s-1.4 2.7-3.2 3.2c-2.7.9-5.4 0-8.2 0-1.4 0-2.3-.5-3.6-.9-1.4-.5-2.3-1.8-2.3-3.2s-.5-2.3-.5-3.6c-.9-6.3-5-10.2-10.6-8.6-1.4.5-1.8 0-2.7-.9-1.8-1.8-4.1-3.6-6.3-4.5-5.4-2.7-11.6-3.6-17.4-.9-3.6 1.4-4.1 2.3-1.8 5.4.5.9.5 1.8.9 2.3 4.5 9.3 9.7 18.3 14.3 27.6 2.3 4.5 4.5 9.7 6.8 14.3 2.7 5.4 5.4 11.1 7.2 16.5.9 1.8 1.8 3.6 3.2 5 5.9 5 12.9 8.2 20.2 11.6 10.6 4.1 21.1 7.2 32.2 9.7 5.4.9 11.6 2.3 17 3.2.5 0 2.7.5 4.5.5l-104.3 104c0-14.3 0-31.7 0-44.9 0-5.4 1.8-10.2 5.9-13.4 1.4-.9 2.7-2.3 3.6-3.6.5-.5.9-.9.5-1.8-.5-.9-.9-.5-1.4-.5s-1.4 0-1.8 0h-54.6c-.9 0-1.8 0-3.2 0-1.8 0-2.7.9-1.4 2.7.9.9 1.8 1.8 2.7 2.7 4.1 4.5 6.3 9.7 6.3 15.6v140c0 .9-.5 1.8-.9 2.7-1.4 2.7-3.6 5-5.4 7.2-.5.5-.9.9-.5 1.4.5.5.9.5 1.4.5h1.8 72.5c4.5 0 6.8-1.4 9.3-5 1.8-3.6 5.4-8.2 8.2-12l70.2 70.2 113.7-113.7v43.5c0 2.3-.5 4.1-1.4 6.3-1.8 4.1-3.2 5.4-6.3 8.6-1.4.9-.5 2.3.5 2.3h72c.9 0 1.8-.5 1.8.5.5.9-.5.9-.9 1.4-2.7 3.2-5.9 5.9-8.6 9.3-3.6 4.1-7.7 8.2-12 12-.9.9-1.8 1.4-2.3-.5-.5-1.4-1.4-1.8-2.7-.9-4.5 3.2-10.2 5-15.2 7.2-1.8.9-2.3 0-1.8-1.4.5-3.6.5-7.2.5-10.6 0-3.2-.5-5.9-1.8-9.3-.9-2.3-1.8-2.3-3.2-.9s-2.7 3.2-4.5 5c-2.7 2.7-5.4 5-8.6 7.2-3.6 3.2-6.8 6.3-9.7 10.2-4.1 5-7.2 10.6-10.2 16.5-2.7 5.9-4.1 12.5-4.1 18.8 0 3.6-1.8 5.4-5 6.8-8.2 4.1-17 7.7-26.1 10.2-5 1.4-9.7 2.7-14.7 3.2-.5 0-1.4.5-1.8-.5-.5-.5 0-.9.5-1.4 2.7-2.7 4.1-6.3 5.9-10.2 1.4-2.3 1.8-4.5 1.8-7.2-.5-5.9-2.3-11.1-5.9-15.6-1.4-1.8-3.2-3.2-5.9-2.3-9.7 2.7-17.9 7.2-25.1 14.3-6.3 5.9-11.6 13.4-15.2 21.1-.9 1.8-1.8 2.7-4.1 2.3-1.4-.5-1.8-.9-2.3-2.3-2.7-6.3-6.8-12.5-11.6-17.4-7.7-8.6-17.4-15.2-28.5-18.3-2.3-.9-5.4 0-6.8 2.3s-2.7 4.5-4.1 6.8c-2.7 6.8-2.3 13.8 1.8 20.2 1.4 1.8 2.3 4.5 4.1 5.9.5.5.9.9.5 1.4-.5.5-.9 0-1.4 0-2.7-.5-5.4-1.4-8.2-1.8-11.6-2.7-22.4-6.8-33.1-12.5-1.4-.9-3.2-1.4-3.6-3.2-.9-2.7-1.8-5.9-1.8-8.6-.5-4.1-.9-7.7-2.3-12-4.1-11.6-11.6-20.2-20.6-28.5-4.1-3.6-8.6-7.2-12.5-11.6-2.3-2.7-3.2-2.7-4.5.9 0 .5-.5.9-.5 1.8-1.4 5.9-1.8 12-.5 17.4.5 1.4 0 2.3-1.4 1.4-5-2.3-10.6-4.1-15.6-7.2-1.8-1.4-2.7-1.4-3.2 1.4-.5 1.4-.5 1.4-1.8.5-2.7-2.7-5.4-5-8.2-7.7-2.3-2.3-4.1-4.5-6.3-6.8-5-5-10.2-10.6-14.7-16.1-2.3-2.7-4.5-5-6.3-7.7-.9-1.4-.9-2.3 0-3.6 1.4-1.4 2.3-2.7 3.2-4.1 7.7-11.1 11.6-23.3 10.2-36.7-.5-4.5-1.4-9.7-3.6-14.3-1.4-3.2-3.6-5.9-4.5-9.7 0-.9 0-1.8-1.4-1.8-.9 0-.9 1.4-1.4 1.8-2.3 5.4-4.5 11.1-8.6 15.6-.9.9-1.4.9-2.3 0-.9-1.4-2.3-2.7-3.6-4.5-4.1-4.5-7.2-9.3-9.3-15.2 0-.5-.5-.9-.5-.9-2.7-.9-2.3-3.2-2.3-5 0-3.6 0-7.2-.5-11.6 0-1.4 0-2.7.9-3.6 5.4-5.4 11.1-10.6 16.5-16.1 5-5.4 8.2-12 11.1-18.8 1.8-5.9 2.7-12 2.3-18.3-.5-3.6-.9-6.8-2.7-10.6-.5-.5-.5-1.4-1.4-1.4s-.9.9-1.4 1.4c-1.4 3.2-3.2 6.3-6.3 8.2-1.4.9-3.2 2.3-5 3.2-3.2 2.3-3.2 2.3-4.5-1.4-1.8-7.2-5.4-14.3-9.7-20.2-.5-.9-.9-1.8-1.8-1.8s-.9 1.4-1.4 2.3v.5c-1.8 6.3-4.1 12.9-8.6 18.3-1.4 1.4-2.3 2.7-3.6 3.6-.9.5-1.4.5-1.8 0-2.3-2.7-5-5.4-7.2-7.7-3.2-3.2-5-6.8-6.8-10.6-.5-.5-.5-1.4-1.4-1.4-.9.5-.9.9-.5 1.8.5 2.7 0 5.9-.9 8.6-1.4 6.3-2.7 13.4-2.7 19.7-.5 8.6.5 17 5.4 24.2 3.2 5 6.8 10.2 12.5 12.9 3.6 2.3 4.5 5.9 6.3 9.7-.5 9.7.5 19.3 1.4 28.5 0 .9.9 2.3 0 2.7-.9.5-1.8-.9-2.7-1.4-1.4-1.4-2.7-2.7-4.1-4.1-1.4-.9-2.3-.9-2.7.9-1.8 8.2-2.7 17-1.8 25.6s5 15.6 10.6 22c5 5.9 12 9.7 19.3 12.5.9.5 2.3.9 2.7 1.4 4.1 5.4 8.6 10.6 12.9 15.6 5.4 6.8 11.1 12.9 17 19.3 2.3 2.3 4.5 4.5 6.3 6.8 3.6 4.1 7.7 8.2 12 12 1.8 1.8 4.1 3.2 4.5 5.9 1.4 6.8 5.4 12 10.6 16.5.5.5 1.8.9 1.4 1.8s-1.4.9-2.3.9c-3.6.9-6.8 1.8-10.2 3.6-3.2 1.8-6.3 3.2-9.3 5.4-1.4 1.4-1.4 1.8.5 2.3 3.2.9 6.3 1.8 9.3 3.2 6.8 3.2 13.8 6.3 21.5 8.6 5.9 1.8 11.6 2.3 17.9.9 5.9-1.4 11.6-3.2 17-5.4.9-.5 1.8-.9 2.3-.5 3.6 1.8 7.2 3.2 11.1 4.5 5.4 2.3 11.6 4.5 17 6.3 6.8 2.3 14.3 4.1 21.5 5.4 5.4.9 11.1 2.3 16.5 2.7 2.3.5 4.5-.5 6.8.9 2.7 1.4 5.4 2.3 8.2 2.7 1.8.5 1.4.9.5 2.3-4.1 4.1-9.3 7.2-14.3 9.7-8.6 4.1-18.3 5.9-28.1 7.2-6.8.9-13.4 2.3-20.2 2.7-.5 0-.9.5-.9.9s.5.5.5.9c1.4 1.4 3.2 1.4 5 2.3 5.9 2.3 12.5 4.1 18.8 4.5.5 0 1.4 0 1.8.5 0 .5-.5.9-.9 1.4-3.6 5-7.2 10.2-9.7 16.1-.9 2.7-1.8 5-1.8 7.7 0 1.8.9 2.3 2.3 1.4 2.3-1.4 4.1-2.3 6.3-3.6 6.3-4.1 12.9-8.2 18.8-13.4 5.4-4.1 11.1-8.6 16.1-13.4 3.2-2.7 6.8-5.9 10.2-9.3 2.7-2.7 5.9-5.4 9.3-8.2.9-.9 1.4-.5 1.8 0 4.5 4.1 9.3 8.2 13.8 12.5 4.1 3.6 8.2 7.2 12.9 11.1 4.1 3.2 8.6 6.3 12.9 9.7 5 4.1 10.2 7.2 15.2 10.6 2.3 1.4 4.5 2.7 6.8 4.1.5.5 1.4.9 2.3 0 .5-.5.5-.9.5-1.8-.5-4.5-2.3-8.6-4.5-12.5-2.3-3.6-4.5-7.2-7.2-11.1-.9-.9-.9-1.8.9-1.8 3.2 0 5.9-.9 9.3-1.8 5-1.4 9.7-2.7 14.3-5 .5-.5 1.4-.5 1.4-1.4s-.9-.9-1.8-.9c-2.7-.5-5.9-.9-8.6-1.4-7.7-1.4-15.6-2.3-23.3-4.1-10.2-2.3-19.3-6.3-27.6-12.9-.9-.9-2.3-1.4-2.3-2.7 0-1.4 1.8-1.4 3.2-1.8 2.7-.9 5-2.3 7.7-2.7 4.1-.5 8.2-.5 12.5-1.4 10.6-1.8 21.5-4.1 31.7-7.7 9.3-3.2 18.3-6.8 27.6-10.6.9-.5 1.4-.5 2.3 0 3.6 1.4 7.2 2.7 11.1 3.6 5.4 1.4 10.6 2.7 16.1 2.3 6.3-.9 12.9-2.7 18.8-5 6.3-2.7 12.5-5.9 19.3-7.7.9 0 2.3 0 2.3-1.4 0-.9-.9-1.8-1.8-2.3-5.4-3.2-11.6-6.8-17.9-8.2-.9 0-1.8 0-1.8-.9s.5-1.4 1.4-1.8c5.4-4.5 9.3-10.6 11.1-17.4.5-1.4.9-2.3 1.8-3.2 1.8-1.4 3.6-3.2 5.4-5l8.6-8.6c4.1-4.5 8.6-9.3 12.9-14.3 7.2-8.2 14.3-17 21.1-25.1 2.3-3.2 5-5 8.6-5.9 1.8-.5 3.6-1.4 5-2.3 5.4-3.2 10.2-6.8 13.8-12 3.2-4.5 5.9-9.3 6.8-14.7 1.4-5.9.9-12 .5-17.4-.5-3.6-.9-7.7-1.8-11.6-.5-1.8-.9-1.8-2.3-.9-1.4 1.4-3.2 2.7-4.5 4.1-.9.5-1.4 1.8-2.3 1.4-.9-.5-.5-1.8-.5-2.7.9-5.4 1.4-11.1 1.4-16.1 0-3.6 0-7.7 0-11.6 0-.9 0-2.3.9-3.2.9-1.4 1.8-3.2 2.7-4.5.5-.9.9-1.4 1.8-1.8 4.1-1.8 7.2-5 10.6-8.6 3.2-4.1 5.9-8.6 6.8-13.8 1-5.1 1.9-10.7 1-16.2zm-149.3-215.6c1.4-3.6 4.1-4.5 7.2-4.5 5-.5 9.7 1.4 14.3 3.2 5.4 2.3 10.2 5.9 14.7 10.2.9.9 1.8 2.3 2.7 3.2-4.1-1.4-7.7-4.1-12-5.4-5.4-1.8-10.6-4.1-16.5-4.1-2.7 0-5.4.5-8.2 1.4-1.4.5-2.7.9-3.6 0-.4-1.8 1-2.7 1.4-4zm-54.1-2.3c3.6-8.6 8.6-15.6 17.4-19.7 4.5-2.3 10.2-1.8 14.3 2.3 6.3 6.3 12.9 13.4 17.4 21.5.5.5.5.9.9 1.4-6.8-3.2-13.4-5.4-20.6-6.3-3.6-.5-7.2-.5-11.1-.5-5.9 0-11.6 1.8-17 2.7-2.2 0-1.8-.5-1.3-1.4zm-42.1 7.3c1.8-6.3 1.8-13.4 2.3-20.2 0-1.4.5-2.3 2.3-1.8 6.8 1.8 12.9 5 18.8 8.6 3.2 1.8 5.9 3.6 8.6 6.3.5.5 1.4.9 1.4 2.3-7.7-.9-15.6-.9-23.3.5-2.7.5-5 2.3-7.7 3.6-.5.5-.9.9-1.4.9s-.9.5-.9 0c-.1.2-.1-.2-.1-.2zm-118.3-1.4c-3.2-.9-6.8-1.4-10.2-1.8-1.4 0-2.3 0-3.2 0-7.2 1.8-14.3 4.1-20.6 7.7-.9.5-1.4.9-2.7 1.4.5-2.3 2.3-3.2 3.2-4.5 1.8-1.8 4.1-3.6 6.3-5 5-2.7 10.2-5 15.6-6.3 3.6-.5 7.7-.5 11.1 2.3 1.4 1.4 1.8 2.7 2.3 4.5 0 1.2-.4 1.7-1.8 1.7zm55.1-4.5c-.5.5-2.3 0-3.6-.5-5.9-1.4-12-2.7-18.3-2.3-7.7 0-15.2 1.4-22.4 4.5-1.4.9-3.2 1.4-5.4 1.8 3.6-5.9 7.2-11.6 12-16.1 2.7-2.7 5-5.9 8.2-8.2 4.1-2.7 8.2-2.7 12.5-.9 7.7 3.6 12.5 10.2 16.1 17 .4 1.9 1.3 3.3.9 4.7zm41.2 7c-.9.5-1.8-.9-2.7-1.8-4.1-2.3-8.6-3.6-13.8-4.1-5.4-.5-10.6 0-16.5 0 2.7-3.6 5.9-5.9 9.3-7.7 4.1-2.7 8.6-4.5 13.4-6.8 1.8-.9 4.1-1.4 6.3-2.3 1.4-.5 2.3 0 2.3 1.8 0 5.9.9 12 1.8 17.4-.1 1 1.2 2.4-.1 3.5zm-117.6 275.2 26.5-26.5v53.2zm32.2 57.3c-4.5 0-9.3 0-14.3 0-1.8 0-2.7-.9-2.7-2.7 0-8.6 0-21.1 0-30.4l11.1 11.1 21.5 21.5c-4.5.5-11.5.5-15.6.5zm6.1-238.5c-2.7-4.5-4.5-9.3-6.8-13.8-3.6-6.8-7.2-13.8-11.1-21.1-.5-.5-.9-1.4-.9-2.3s.5-1.4 1.4-1.8c5-.9 12.5 2.7 15.2 7.2.9 1.4 1.8 2.3 3.6.9 2.3-1.4 5-.5 5.9 2.3.5.9.5 2.3.9 3.2 0 4.1 2.3 7.2 5.9 8.6 4.1 1.4 8.2 2.3 12.9 2.3 4.5-.5 7.2-2.7 9.3-6.3 1.4-2.7 1.4-5.9-.5-8.6-.9-1.4-1.8-1.8-2.7-2.7-2.3-2.3-2.3-4.1 0-6.3 1.4-.9 1.8-2.3 1.4-3.6 0-.5 0-1.4 0-1.8 0-1.8.9-3.2 2.7-3.6 2.7-.5 4.5.5 5.4 2.3s1.8 3.6 4.1 4.5c2.3 1.4 2.7 3.6 1.8 5.9-.9 2.7-1.8 5-1.8 7.7 0 2.3.9 3.6 2.3 5 1.8 1.4 4.1 2.3 6.8 2.3s5.4.5 8.6 0c5.4-1.4 11.1-2.7 15.2-7.2 2.7-3.2 4.1-10.6 0-15.2-4.5-5.4-5.4-13.8 0-19.3 2.7-2.7 3.2-6.3 4.5-10.2.9-2.3 1.8-5 4.5-6.3 1.8-.9 3.6-.5 5 .9 2.3 2.3 3.6 5.4 4.1 8.2.5 3.2 1.8 5.4 4.1 7.7 5.4 5.9 4.1 13.8-.5 19.3-2.3 2.7-2.7 5.9-1.8 9.7 1.4 5.4 5 8.6 10.6 10.6 4.1 1.4 7.7 2.7 11.6 2.3 3.2 0 5.9-.5 8.6-1.4 5-2.3 5.4-5.4 4.1-10.6-.5-.9-.9-1.8-1.4-3.2-.9-2.7 0-5.4 2.7-6.8 1.4-.9 2.3-1.8 2.7-3.2.9-3.2 3.2-4.1 5.9-3.2 2.3.5 2.3 2.7 2.3 4.5 0 2.3 0 4.1 2.3 5.4 1.8 1.4 1.4 3.6 0 5.4-.5.5-.9 1.4-1.8 1.8-4.5 3.6-3.6 9.7 0 13.8 3.2 3.2 6.8 4.1 11.6 3.6 3.2-.5 6.3-.9 9.3-2.3 3.2-.9 5.4-4.5 5.4-7.7 0-1.8.5-3.2.9-4.5.9-2.3 3.6-3.2 5.4-2.3 2.7.9 2.7.9 4.5-.9 3.6-4.5 8.2-6.8 13.8-6.8 2.3 0 3.2.9 1.8 2.7-4.1 7.2-7.7 15.2-12 22.4-2.3 4.1-4.1 8.6-6.3 12.9-.9 1.4-1.4 1.4-2.7.5-3.6-3.2-8.2-5-12.9-6.3-7.2-2.3-14.3-4.1-21.5-5.9-7.7-1.8-16.1-2.7-23.8-4.1-7.7-.9-16.1-1.4-24.2-1.8-5.9-.5-12.5 0-18.3 0-8.6.5-17.4 1.4-26.1 2.7-7.7 1.4-16.1 2.7-23.8 4.5-6.3 1.8-12.9 3.2-18.8 5.9-2.3 1.4-5 2.3-6.8 4.5-1.2 1.4-2.1 1-2.6-.4zm7.7 18.3c-1.4-3.6-2.7-7.2-4.1-11.1-.5-1.4.9-2.3 1.8-3.2 1.4-1.4 3.2-2.3 5.4-3.2 12-4.5 24.7-7.2 37.2-10.2 7.7-1.4 16.1-1.8 24.2-3.2 4.1-.5 7.7-.9 11.6-.5h17.4c5 .5 10.2.5 15.6 1.4 4.1.5 8.2.9 12.5 1.4 5.9.9 12 2.3 18.3 3.6 8.2 1.8 16.5 4.5 24.2 7.2 1.8.9 3.6 2.3 5.4 3.2 1.4.9 1.8 2.7.9 4.1-1.4 2.7-2.3 5.4-3.2 8.2-.9 2.7-1.8 3.2-4.5 1.8-4.1-2.7-9.3-3.6-13.8-5-6.8-1.8-13.8-3.6-20.6-4.5-7.2-1.4-14.3-2.3-21.5-3.2-5.4-.9-11.6-1.4-17-1.8-5 0-10.2-.5-15.2 0-3.2.5-5.9.9-9.3.9-3.6 0-7.2.9-11.1 1.4-6.3.5-12.5 1.8-18.8 3.2-7.2 1.4-14.7 3.2-22 5-3.6.9-7.2 2.3-10.2 4.5-1.8 2.3-2.7 1.4-3.2 0zm50.5-4.3c-4.5.9-8.6.9-13.4 1.8-3.6.9-7.2 1.4-11.1 2.3-3.6.9-6.8 1.4-10.6 2.7-1.8.5-3.2 1.4-5 1.8-2.7.9-3.2 3.6-1.4 5.9l.9.9c-.9.5-1.8 0-2.3-.5-1.4-.5-2.3-1.4-3.2-2.3-2.3-1.8-1.8-3.6.5-5 4.1-2.3 9.3-3.6 13.8-5 5.9-1.4 12-2.7 17.9-3.6 6.8-1.4 13.8-2.3 20.6-3.2 7.2-.9 14.3-1.4 21.5-1.8s14.7 0 22 .9c11.1.9 22.4 2.3 33.5 5 8.2 1.8 16.5 3.6 24.7 6.8 1.8.9 3.6 1.4 4.5 3.2 0 .5.5.9 0 1.4-.9 1.8-5 4.1-7.2 4.1.5-.5.9-.9 1.4-1.4 1.8-2.3.9-4.5-1.8-5.4-7.2-2.7-14.7-4.1-22-5.9-8.2-1.8-16.5-3.2-25.1-4.1s-17.9-1.8-26.5-1.4c-11.5 1-21.7 1-31.7 2.8zm-11.5 252-28.5-28.5v-112.9l28.5-28.5zm58.2 29.9-14.3 14.2-14.3-14.3v-229.9l14.3-14.3 14.3 14.3zm58.4-58.3-28.5 28.5v-169.6l28.5 28.5zm30.2-29.9v-53.2l26.5 26.5zm-341.4-90.4c-.9 3.2-1.4 6.8-1.4 10.2 0 .5 0 .9-.5 1.8-1.4-1.8-1.8-3.6-1.8-5.9-.5-3.6-.9-7.7-1.8-11.6 0-.9-.5-1.8-.9-2.3 0-.5-.5-.9-.9-.9s-.9.9-.5 1.4c.9 3.2.9 6.8 1.4 10.6 0 .5.5.9 0 1.4-.9 6.3.5 12.9 2.3 18.8-2.3-1.8-3.6-4.1-4.5-6.3-2.3-5.4-4.1-11.5-3.2-17.4.5-5 .5-9.7 1.8-14.3 0-.9.5-1.8 1.4-2.3.9 0 1.4.9 1.8 1.4 1.4 1.8 3.2 3.2 4.5 4.5 1.8 3.2 4.1 6.4 2.3 10.9zm32.1 16.1c3.6-3.2 5.9-7.2 8.2-11.6.9-2.3 1.8-4.5 2.3-6.8 0-.5.5-1.4-.5-1.4-.9-.5-.9.5-1.4.9-1.8 3.2-3.6 6.3-6.3 8.6-.5.5-.9.9-1.4.5-.5-.5-.5-.9-.5-1.8.5-1.4 0-3.2 0-4.5 0-3.6 1.8-5.9 4.5-7.7 2.3-1.8 5-3.2 7.2-5 1.4-.9 2.3-.5 2.3 1.4.5 6.3-1.4 12.5-4.1 18.3-2.3 5-5.4 10.2-9.7 13.8-1.4 1.4-2.7 2.3-4.1 3.2l-.5-.5c2.2-2.4 1.8-5.6 4-7.4zm-23.3 19.3h-.5c-1.8-2.7-2.7-5.4-3.6-8.6-2.3-8.6-.9-17.9.9-26.5.9-3.6 3.2-5.9 5-8.6 3.6-4.5 7.2-9.7 9.7-15.6 2.7 2.7 3.6 5.9 4.5 8.6 2.7 6.3 3.2 12.9 2.7 19.3-.5 7.7-2.3 15.6-5.4 22.9-1.4 2.7-2.7 5.4-4.5 7.7-.9 1.4-1.8.9-2.7-.5-1.4-3.6-1.8-7.2-.9-11.6 1.4-7.2 2.7-14.3 4.5-21.5.5-2.3 0-4.5 0-6.8 0-.5 0-.9-.9-1.4-.5 0-.5.5-.5.9-.9 7.7-4.1 15.2-6.3 22.4-.9 3.6-2.3 7.7-2.3 12-.2 2.8.3 5 .3 7.3zm10.9 86.8c-.5.5-.9 0-1.4 0-2.3-1.4-4.1-2.7-5.4-4.5-5.4-5.4-10.2-11.6-11.1-18.8-.9-4.5-.9-9.3 0-13.8 0-.9 0-1.8.5-2.7.5-1.4 1.4-1.8 2.3-.9 2.3 2.7 4.1 5.4 6.3 8.2.9 1.4.9 2.7.9 4.1 0 2.3.9 4.5.5 7.2-2.3-2.7-3.2-5.9-4.5-8.6-.5-.9-.5-3.2-1.8-2.7-1.4 0-.9 1.8-.9 3.2.5 7.2 2.7 13.8 7.2 19.7 2.3 3.2 4.5 6.3 7.2 9.3.2-.2.2-.2.2.3zm16.1-1.9c-.5 1.4-.5 3.2-1.8 3.6s-1.8-1.8-2.3-2.7c-1.4-2.7-2.3-5.9-2.7-8.6-.9-7.2-.9-14.3-.9-21.5 0-2.3-.9-4.5-1.4-6.8 0-.5-.5-1.8-1.4-1.4-.9 0-.9 1.4-.5 1.8.9 5.4 0 11.1.5 16.5 0 2.7-.5 5.9-.5 8.6s.5 5.4.5 8.2c0 .5.5.9 0 1.4-.5 0-.9-.5-.9-.9-1.8-1.8-2.7-4.1-3.6-6.3-2.3-6.3-4.1-12.9-4.1-19.7.5-5.9.9-12.5 4.1-17.9.5-.9.9-2.3 1.4-3.2 1.4-1.8 2.3-1.8 3.2 0s2.3 3.2 3.2 5c2.3 3.2 5 6.3 6.8 10.2 2.3 5 3.6 10.2 3.6 12.9-1 8.4-1.4 14.7-3.2 20.8zm5.2 4.1c-.9-.5-.5-1.4-.5-1.8.9-4.1 2.7-7.2 5-10.6 4.1-7.2 6.8-15.6 5-24.2 0-1.4-.5-2.7-.5-3.6 0-.5-.5-.9-.9-.9s-.5.9-.5 1.4v5.9c0 4.1-.9 8.2-2.7 12 0 .5-.5 1.4-1.4 1.4s-.9-.9-.9-1.4c-.5-4.5-.9-9.3-2.7-13.4-.5-.9 0-1.4.5-2.3 2.7-3.6 5-7.2 7.2-11.6 0-.5.5-.9.9-.9s.9.9.9 1.4c2.7 5.9 4.5 12.5 4.1 18.8-.5 8.6-2.3 17.4-7.2 24.7-1.4 1.8-3.2 3.6-4.5 5.4-.5-.3-.9.2-1.8-.3zm82 107.4c-7.7 3.2-16.1 2.3-23.3-.9-5.4-2.3-11.1-5-16.5-7.2-1.4-.5-.5-1.4 0-1.4 1.8-.9 3.6-1.8 5-2.7 3.6-1.4 7.2-2.3 11.6-2.7 1.8 0 3.2.5 4.5 1.4 5 1.8 10.2 3.6 15.2 5.4.5.5 1.4.5 1.8 1.4-5 .5-9.7-.5-14.7-1.4-5.4-1.4-11.1-1.8-17-1.4-.5 0-1.4 0-1.4.9s.9.9 1.4.9c4.1 0 8.6.9 12.9 1.8 3.2.9 6.3 1.8 9.7 2.7 3.6.9 7.2 1.8 11.1 2.3.5 0 1.4.5 1.8.5-.3.4-1.2.4-2.1.4zm-26.1-39c.9.9 2.3 1.4 3.2 1.8 3.6 2.3 6.8 5 10.2 8.2 5 5 10.2 10.2 15.6 14.7.5.5.9.5.9 1.4-2.3-.5-4.5-.9-6.8-1.4-7.7-2.7-15.2-5.4-22-9.7-5.9-3.6-9.3-9.3-11.6-16.1-1.4-4.1-.5-8.2-.5-12.5 0-2.3.9-2.7 2.7-1.8 5.4 1.8 11.1 4.1 16.1 7.2 7.2 4.1 13.8 10.2 19.3 16.1 3.6 3.6 6.3 7.7 9.3 12 .5.5.5 1.4.9 2.3-5.9-.9-10.2-4.1-14.3-7.2-3.2-2.3-5.9-5-8.6-7.7-3.6-3.6-8.2-6.3-13.4-8.6-.5 0-.5-.5-.9-.5s-.9 0-1.4.5zm43.5 15.2c-.5 0-.9-.5-.9-.9-1.8-3.2-2.7-6.3-4.5-9.3-2.3-3.6-5-7.2-8.2-10.6-4.1-3.6-7.7-7.7-11.6-12-.5-.5-.9-1.4-1.4-.9-.9.5-.5 1.4-.5 1.8 1.4 3.6 4.1 5.9 6.3 8.6 2.7 2.7 5.4 5.9 6.8 9.7-4.1-2.3-7.2-5.9-11.6-8.6-.5-.5-1.4-.9-1.8-1.4-3.6-1.8-5-5.4-5.4-9.3-.5-3.2-1.4-5.9-1.4-9.3 0-.5 0-.9 0-1.4s0-1.4.9-1.8 1.4.5 1.8.9c5.4 5 11.1 10.2 16.5 15.6 5 5 9.7 10.6 12 17.4 1.4 3.2 2.3 6.8 2.7 10.6.8.5.8.9.3.9zm73 16.5c-5.9-4.5-12-7.7-18.8-10.2-.9-.5-1.8-.9-2.7-1.4-2.7-1.4-3.2-1.8-2.7-5 .5-2.7 1.4-5 3.2-6.8.5-.9 1.4-.9 2.7-.9 4.5.9 8.2 2.7 12 5 4.5 2.7 9.3 5.9 12.9 10.2 4.1 4.1 6.8 9.3 9.7 13.8.9 1.4 1.8 3.2 1.8 5 0 0 0 .5-.5.9-.5 1.8-.9 4.1-2.7 4.5-1.4.5-2.3-2.3-3.2-3.2-2.9-5.1-7.2-8.7-11.7-11.9zm22.8 36.3c-2.7 2.7-5.4 5.9-8.6 8.6-3.6 3.2-6.8 6.3-10.6 9.3-5 4.1-10.2 8.6-15.2 12.9-5.9 5.4-12.9 9.3-19.7 13.8-.5 0-.5.5-.9.5-.5 0-.9.9-1.4.5-.5-.5 0-.9 0-1.4 2.3-4.5 4.5-9.3 8.6-13.4 2.3-2.7 4.5-5.4 7.2-7.7.5-.5.9-.9.5-1.4-.5-.5-.9-.5-1.4-.5-6.3.5-12.9.5-18.8-1.8 6.3-.9 12.9-2.3 19.3-3.2 2.3-.5 4.1-1.4 5.9-1.8 8.6-3.2 17-7.2 24.2-13.4l.5-.5c2.3-3.2 5.4-4.1 9.7-2.7.5.5 1.4 0 1.8.9.3.4-.6.8-1.1 1.3zm-.4-7.9c-2.3 0-4.5-1.8-4.5-3.6.5-2.3 1.4-4.5 2.7-6.3.9-1.4 1.8-1.4 2.3 0 .9 1.8 1.8 5 1.8 6.8.2 1.7-.9 3.1-2.3 3.1zm6.6-.9c-.5-3.6-1.8-6.8-2.3-10.6 0-.5-.5-.9.5-.9 2.3.5 5.9 4.5 5.9 6.8-.5 2.3.5 4.5-2.3 5.9-.9.1-1.8.1-1.8-1.2zm20.1 16.9c7.2 4.1 14.7 7.2 22.9 8.6 4.5.9 9.7 1.8 14.7 2.3.9 0 1.4.5 2.3.9-3.6.5-6.3 1.4-9.7 1.8s-6.3.5-9.7 0c-.5 0-1.4-.5-1.4.5 0 .5 0 1.4.5 1.4 2.7 2.7 5.4 5.9 8.2 9.3 3.2 3.2 5 7.7 7.2 12 0 .5.5.9 0 1.4s-.9 0-1.4 0c-3.2-2.3-6.8-4.1-10.2-6.3-9.3-5.9-16.5-13.8-25.1-20.2-4.1-3.2-7.7-7.2-12-10.6-2.3-1.8-4.1-4.1-5.9-6.3-.9-1.4.5-4.1 2.3-4.5 1.4-.5 2.7 0 4.1.9 3.9 3.4 8.7 6.1 13.2 8.8zm-7.9-35.3c-1.8 1.8-3.2 3.6-4.5 5.9-.9 1.4-1.4.9-1.8 0-1.8-2.7-2.7-5.4-.9-8.6 3.6-5.9 6.8-12 12-16.5 3.2-3.2 6.8-5.9 11.1-8.2 3.6-1.8 7.2-4.5 12-5.4 2.7-.5 3.2-.5 5 1.8s2.3 4.5 2.7 7.2c-.5 1.4-.9 2.3-2.3 2.7-3.2 1.8-6.8 2.7-10.2 4.1-9.3 4.5-16.5 10.2-23.1 17zm83.1-25.1c-.9-2.3 0-4.5.9-6.8 2.3-7.7 6.3-14.7 12-20.2 4.1-4.5 9.3-8.2 13.8-12.5 1.8-1.4 3.2-3.2 4.5-4.5s1.8-1.4 2.7.9.5 5 0 7.2c-.5 2.3-.9 5-1.8 7.2-.9 2.3-2.3 3.6-4.1 5-5 3.2-8.6 7.7-14.7 11.1 1.8-3.6 3.6-6.3 5.9-8.6 2.3-2.7 5-5 6.8-8.2 0-.5.5-.9.5-1.4 0-.9.5-1.8-.5-1.8-.9-.5-.9.5-1.4.9-2.7 2.7-5 5.4-7.7 8.2-6.3 6.3-12 12.9-15.6 21.1.1 1 .1 2.4-1.3 2.4zm56.9 13.6c.5.5 1.4.5 1.4 1.4s-.9.9-1.4.9c-6.3 2.7-12.5 5.9-18.8 8.2-6.8 2.7-13.8 2.3-21.1 0-.9-.5-1.8-.5-1.8-1.4s.9-.9 1.8-.9c6.8-.9 13.4-3.2 20.2-5 3.6-.9 7.2-1.4 11.1-1.4.9 0 3.2 0 3.2-.9 0-1.4-1.8-.9-3.2-.9-7.2-.5-14.7 1.4-21.5 3.2-2.7.5-5 .5-8.2 0 2.3-1.8 4.5-2.3 6.8-3.2 4.1-1.8 8.2-2.7 12.5-4.5 2.3-.9 4.5 0 6.8.5 4.5.3 8.6 2.1 12.2 4zm-8.6-17.9c-3.2 3.6-7.2 6.3-12 8.2-7.2 3.2-14.7 5.9-22 7.7-.5 0-.5 0-.9 0 0-.9.5-.9.9-1.4 4.1-2.7 7.2-6.3 11.1-9.7 2.7-2.7 5.4-5.9 8.6-8.6 2.7-2.3 5.4-4.1 8.2-5.9 0 0 .5 0 .5-.5.5-.5 1.8-.9 1.4-1.8-.5-.9-1.4 0-2.3 0-5.9 2.7-11.1 6.3-15.6 11.1-5 5-10.6 9.3-17 12-.9.5-1.8 1.4-2.7.5-.5-.9.5-1.8.9-2.3 2.3-3.2 4.5-6.3 6.8-9.7 5-5.4 10.6-10.6 16.5-15.2 4.5-3.6 10.2-5.9 15.6-8.2 1.8-.9 3.2-1.4 4.5-2.3 2.3-.9 3.2-.5 3.2 1.8 1.5 9.3.2 17.5-5.7 24.3zm51.4-79.3c-.9.5-1.4 0-1.8-.5-3.6-3.2-6.3-7.2-8.2-12-2.7-5.4-3.6-12-4.1-17.9 0-6.8 1.4-13.4 4.5-19.3.5-1.4.9-1.4 1.8 0 1.8 4.1 4.5 7.7 7.2 11.6.5.9.9 1.8.9 2.7-1.8 4.1-2.3 8.6-2.7 12.9 0 .5 0 1.4-.9 1.4s-.9-.5-1.4-1.4c-1.8-4.1-2.7-8.2-2.7-12.9 0-1.4 0-2.7 0-4.5 0-.5 0-1.4-.9-1.4-.5 0-.9.5-.9.9-1.4 5.9-1.4 12 .5 18.3 1.4 5 4.1 9.7 6.8 13.8 1.4 2.3 1.4 4.5 2.3 6.8.5 1 .1 1.5-.4 1.5zm.5-111.9c-3.2-5.4-5.9-11.1-6.8-17.4-.5-2.3 0-4.5 0-6.8 0-1.4.9-1.8 2.3-.9 3.6 2.3 7.2 4.5 10.6 7.2 1.4 1.4 1.8 3.2 1.8 5s0 3.6 0 5.4c0 .5 0 .9-.5 1.4-.5 0-.9-.5-1.4-.5-2.7-2.3-4.5-5-6.3-7.7 0 0-.5-.5-.5-.9-.5-.5-.5-1.4-1.4-.9s-.5.9-.5 1.4c.9 5.4 3.6 10.2 6.8 14.7.9 1.4 2.3 2.3 3.2 3.6 2.3 1.8 2.3 5 3.2 7.7-4.6-2.7-7.8-6.8-10.5-11.3zm16.7 106c-.5.5-.5 1.4-1.4.9-.5-.5-.5-.9-.5-1.8.9-5 .5-10.2.5-15.6 0-4.5 0-9.3-.5-13.8 0-1.4.5-2.7.5-4.5 0-.5 0-1.4-.5-1.4-.9 0-.9.5-1.4.9-.5 1.4-1.4 2.7-1.4 4.5 0 4.1-.9 7.7-.5 11.6 0 6.8 0 12.9-1.8 19.3-.5 1.8-1.8 3.6-3.2 5-.9.9-.9 0-1.4-.5-1.4-2.3-1.8-5.4-2.3-8.2-.9-5.4-1.4-11.1-1.4-16.5.5-7.2 3.2-13.8 8.2-19.7 2.3-2.3 4.1-5 5.4-7.7 1.4-2.3 2.3-2.3 3.2 0 2.3 4.1 3.6 8.2 4.1 12.9.5 3.6.9 6.8.9 10.6 0 5.9-1.8 12-4.1 17.4.6 2.5-.3 4.8-2.4 6.6zm20-36.7c.9-1.4 2.3-.5 2.3.9 1.4 8.6 1.4 17-2.7 24.7-2.3 4.5-5.9 7.7-9.3 11.1-1.4 1.4-2.7 2.3-4.1 3.2-.5 0-.9.5-1.4.5-.5-.5 0-.9.5-1.4 2.3-3.2 5-6.3 7.2-9.7 4.1-5.9 6.8-12.5 6.8-19.7 0-.9.5-2.3-.5-2.3-1.4 0-1.4 1.4-1.4 2.3-.9 3.2-2.7 6.3-4.5 9.3 0-2.3 0-4.1 0-6.3-.9-5.8 3.7-9 7.1-12.6zm-4.8-46c-.9-1.4 0-2.7 0-4.1.5-5-.9-10.2-2.3-15.2-1.8-6.3-4.5-12.9-5.9-19.3 0-.9 0-1.4-.5-2.3 0-.5 0-1.4-.9-.9-.5 0-.5.9-.5 1.4 0 2.7-.5 5.9.5 8.6 1.8 6.3 3.2 12.9 4.1 19.7.5 3.2.5 6.8-.9 10.2-1.4 2.3-1.8 2.3-3.2 0-3.6-5-5.9-11.1-7.7-17-1.8-7.2-2.7-14.7-1.8-22.4.5-6.3 2.7-12.5 6.3-17.9.5-.9.9-1.4 1.4 0 2.3 5 5.4 9.7 9.3 13.8 4.5 5.4 6.8 11.1 6.8 18.3 0 3.2.9 5.9.9 9.3-.8 6-1.7 11.9-5.6 17.8zm16.1-15.6c-.9 1.4-1.8 2.3-2.7 3.2.9-3.2.9-5.9 1.8-9.3 0-1.4.5-2.7 0-4.1 0-5.4.5-11.1 1.4-16.5 0-.5.5-1.8-.5-1.8-.9 0-.9.9-1.4 1.4-.9 4.1-1.4 8.6-1.8 12.9-.5 1.8-.9 3.6-1.8 5.4-1.4-1.4-.9-3.2-.9-5-.5-3.2-1.4-5.9-1.8-9.3-.5-1.4 0-2.7.5-4.1 2.3-3.6 5.4-6.8 8.6-10.2.9-.9 1.4-.5 1.8.5.9 1.8.9 3.2.9 5 1.3 11.2 1.3 21.9-4.1 31.9z"/><path d="m157.8 128.9c-1.4 0-2.3 1.4-1.8 2.7.9 1.8 1.8 4.1 3.2 5.9s2.7 4.1 5.4 5c2.3.9 5.4-.9 5.4-3.2v-.5c-.2-4.5-8.1-9.9-12.2-9.9z"/><path d="m344.9 143.2c2.7-.5 4.5-1.4 5.9-3.6 1.8-2.3 2.7-4.5 4.1-7.2.5-.9.5-1.8 0-2.3-.5-.9-1.4-.9-2.3-.5-4.5 1.4-8.6 3.6-11.1 8.2-1.6 2.7-.2 5.4 3.4 5.4z"/><path d="m252.7 99.5c1.4 2.3 4.1 2.3 5.4 0 2.3-3.6 1.4-7.2-.5-11.1-.5-.9-.9-1.8-2.3-1.8s-2.3.9-2.7 1.8c-.9 1.8-1.8 3.6-1.4 5.9-.3 2 .6 3.8 1.5 5.2z"/><path d="m259.3 113.3c.5.9 1.4 1.4 2.3.9 2.3-.9 5.4-4.5 5.4-6.8 0-2.7-1.4-4.5-3.6-4.5-.5 0-1.4 0-1.8.5-2.8 1.3-4.1 7.2-2.3 9.9z"/><path d="m251.8 112.4c.5-.9.5-1.4.5-2.3 0-1.8-.5-3.6-1.4-5.4-.9-1.4-2.3-2.7-4.1-2.3-1.8.5-2.7 1.8-2.7 3.6-.5 3.2 1.4 5.4 4.1 7.2 1.8 1.4 2.7 1.4 3.6-.8z"/><path d="m202 122.1c0 1.4 0 2.7.9 3.6.9 1.4 1.8 2.3 3.6 2.3s2.3-1.8 2.3-3.2c.5-1.4 0-3.2-.5-4.5-.9-1.8-2.7-3.2-4.1-3.2-2.2 1.4-2.2 2.7-2.2 5z"/><path d="m304.6 128.4c1.4 0 2.7-.9 3.2-2.3.5-.9.9-2.3.9-3.6 0-.9 0-1.4 0-2.3-.5-.9-.9-2.3-1.8-2.7-1.4-.5-2.3.5-2.7 1.4-1.8 1.8-1.8 4.1-1.4 6.3 0 1.4.4 2.8 1.8 3.2z"/><path d="m246.8 158.4c2.7 1.8 5.4 2.3 10.2 2.3 1.8 0 4.5-.5 6.8-2.3s2.7-4.1.9-6.3c-3.6-4.1-13.8-4.5-17.9-.5-2.7 1.5-2.3 4.9 0 6.8z"/><path d="m299.6 163.3c3.6 2.7 7.7 3.6 12.5 3.2 4.1-.5 6.3-5 3.6-8.2-2.7-3.6-6.8-4.5-11.1-4.5-.5 0-1.4 0-1.8 0-1.8.5-4.1.9-5 3.2s0 5 1.8 6.3z"/><path d="m200.6 166.5c4.1 0 7.2-.9 10.6-2.7 1.8-1.4 2.3-3.2 2.3-5.4 0-1.8-1.4-3.2-3.2-4.1-4.1-1.8-11.6 0-14.3 3.2-1.8 1.8-2.3 4.1-.9 6.3s3.5 2.7 5.5 2.7z"/><path d="m281.7 162.4c3.6 0 6.8-2.7 6.8-6.3 0-4.1-2.7-6.8-6.8-6.8-2.7 0-6.8 3.6-6.8 6.3-.5 3.2 3.2 6.8 6.8 6.8zm.4-10.2c1.4 0 2.3.9 2.3 2.7s-.9 3.2-2.3 3.2c-.9 0-3.2-2.3-3.2-3.2.1-.9 1.9-2.7 3.2-2.7z"/><path d="m330.9 172.6c3.6 0 6.3-3.2 6.3-6.8 0-4.1-2.3-6.3-6.8-6.3-3.6 0-5.9 2.7-5.9 6.3-.7 4.8 3.2 6.8 6.4 6.8zm-.5-9.3c1.4 0 3.2 1.4 3.2 2.7s-1.4 2.7-3.2 2.7c-1.4 0-2.3-.9-2.7-2.7 0-1.3 1.3-2.7 2.7-2.7z"/><path d="m229.4 162.4c3.2 0 6.3-3.2 6.3-5.9 0-5-2.3-7.7-6.8-7.7-3.6 0-5.9 2.7-5.9 6.3-.4 4.2 2.3 7.3 6.4 7.3zm-.5-10.2c1.8 0 3.2 1.8 3.2 3.2s-1.4 2.7-3.2 2.7-3.6-1.8-3.6-3.6c.4-.9 2.2-2.3 3.6-2.3z"/><path d="m180.7 171.9c3.2.5 6.3-2.7 6.3-6.3s-3.2-6.8-6.8-6.8-6.3 2.7-6.3 6.3c0 4.1 3.6 7.5 6.8 6.8zm0-9.5c1.8 0 2.7 1.4 3.2 3.2 0 1.8-1.4 2.7-3.2 3.2-1.4 0-3.2-1.4-3.6-2.7-.1-1.9 1.7-3.7 3.6-3.7z"/><path d="m97.7 224.7c.9 5 1.4 10.6.9 15.6 0 2.7-.5 2.7 2.3 2.7h18.8.9.9 18.8c2.7 0 2.3 0 2.3-2.7-.5-5 0-10.6.9-15.6.9-5.9 3.2-11.6 5.9-16.5.5-.9.9-1.8 0-2.3-.9-.9-1.8-.5-2.3 0-5 1.8-9.7 4.5-14.3 7.2-2.3 1.4-2.7 1.4-4.1-.9-1.8-3.2-3.6-5.9-5.9-8.6-.9-.9-1.4-1.4-2.3-1.4s-1.4.5-2.3 1.4c-2.3 2.7-4.1 5.9-5.9 8.6-1.4 2.3-1.8 2.3-4.1.9-4.5-2.7-9.3-5.4-14.3-7.2-.9-.5-1.8-.9-2.3 0-.9.9 0 1.8 0 2.3 3 5.2 5.2 10.6 6.1 16.5z"/><path d="m399.5 212c-1.8-3.2-3.6-5.9-5.9-8.6-.9-.9-1.4-1.4-2.3-1.4s-1.4.5-2.3 1.4c-2.3 2.7-4.1 5.9-5.9 8.6-1.4 2.3-1.8 2.3-4.1.9-4.5-2.7-9.3-5.4-14.3-7.2-.9-.5-1.8-.9-2.3 0-.9.9 0 1.8 0 2.3 2.3 5.4 5 10.6 5.9 16.5.9 5 1.4 10.6.9 15.6 0 2.7-.5 2.7 2.3 2.7h18.8.9.9 18.8c2.7 0 2.3 0 2.3-2.7-.5-5 0-10.6.9-15.6.9-5.9 3.6-11.6 5.9-16.5.5-.9.9-1.8 0-2.3-.9-.9-1.8-.5-2.3 0-5 1.8-9.7 4.5-14.3 7.2-1.9 1.9-2.3 1.4-3.9-.9z"/></g></svg>